<svg width="258" height="150" viewBox="0 0 258 150" fill="none" xmlns="http://www.w3.org/2000/svg">
<g filter="url(#filter0_d_202_14840)">
<mask id="mask0_202_14840" style="mask-type:alpha" maskUnits="userSpaceOnUse" x="4" y="0" width="250" height="150">
<rect x="4" width="250" height="150" fill="#D9D9D9"/>
</mask>
<g mask="url(#mask0_202_14840)">
<path d="M4.03906 -19H254.078V168.5H4.03906V-19Z" fill="#FFD520"/>
<path d="M4.03906 168.5H254.078V-19L4.03906 168.5Z" fill="#FF4E12"/>
<path d="M138.922 39.5937C137.359 39.0859 136.344 39.8672 136.422 41.8984C136.422 43.8906 137.516 45.0234 139.078 44.2812L138.922 39.5937Z" fill="white" stroke="black" stroke-width="0.2"/>
<path d="M140.289 35.8437C139 34.8281 137.789 35.2578 137.164 37.1719C136.578 39.125 137.203 40.5312 138.922 40.2969L140.289 35.8437Z" fill="white" stroke="black" stroke-width="0.2"/>
<path d="M142.438 32.1719C141.344 31 140.094 31.2344 139.156 33.0312C138.258 34.8281 138.649 36.3516 140.406 36.4297L142.438 32.2109V32.1719ZM141.031 49.9453C139.117 50.6484 138.922 53.2656 140.133 54.8672C141.305 56.4687 143.531 56.7812 144.742 54.8672L141.031 49.9453Z" fill="white" stroke="black" stroke-width="0.2"/>
<path d="M138.805 44.3984C137.008 43.8125 135.367 46.2344 135.094 48.4219C134.742 51.1563 130.797 52.0937 132.984 56.2734C133.453 53.6172 135.211 52.1328 136.617 52.0547C138.023 51.9375 140.133 51.6641 141.031 49.9453L138.805 44.3984ZM144.547 55.1797C142.437 55.6875 142.125 58.5 143.648 60.4922C144.937 62.2109 149 61.8203 148.883 60.1016L144.586 55.1797H144.547ZM150.523 72.1328C150.641 70.2969 147.711 69.5937 146.305 69.9453C144.898 70.3359 142.203 69.9062 141.617 68.3828C141.07 69.5937 141.812 70.9219 143.844 71.5859C145.406 72.0547 145.367 73.1484 144.898 73.6953C146.07 73.8906 149.469 73.8906 150.523 72.1328Z" fill="white" stroke="black" stroke-width="0.2"/>
<path d="M148.883 60.5703C146.813 59.6328 145.602 61.0391 144.82 62.3672C143.648 64.3203 140.094 61.8203 138.883 64.4375C140.523 63.7344 142.164 65.2187 142.945 65.7266C145.172 67.1719 149.43 66.7422 150.055 63.3047L148.883 60.5703Z" fill="white" stroke="black" stroke-width="0.2"/>
<path d="M150.094 62.9531C148.024 64.5156 147.203 66.3906 147.281 67.6406C147.32 68.8906 149.078 71.6641 150.992 71.8203C152.086 69.5547 152.672 64.7891 150.094 62.9531ZM141.5 72.6797C141.5 71.8984 142.594 71.625 143.375 71.8984C144.117 72.1328 145.289 72.875 144.859 73.6953L141.5 72.6797ZM130.172 68.5C129.977 67.6016 131.422 66.0391 133.375 66.8984C135.328 67.7578 135.602 69.3984 134.781 70.0625L130.172 68.5Z" fill="white" stroke="black" stroke-width="0.2"/>
<path d="M134.938 70.2187C134.781 69.7109 136.227 68.6953 138.609 69.2812C141.031 69.9062 141.617 71.4687 141.539 72.6797L134.938 70.2187ZM129.899 68.5391C131.188 67.6016 130.68 65.8047 129.547 65.2188C127.516 64.2031 128.258 61.625 126.93 61.1172C125.641 60.6094 124.391 59.7109 124.313 58.7734C123.688 60.0625 124.078 61.1953 124.977 62.0156C125.875 62.7969 124.274 66.0781 125.445 66.9375L129.899 68.5391ZM102.945 67.8359C101.891 66.1953 99.3907 66.4687 98.336 67.6406C97.2813 68.8125 97.4376 70.4922 98.4141 71.2734L102.945 67.8359ZM109 65.375C108.609 63.1484 105.914 62.9141 104.469 63.4609C102.984 64.0078 102.008 66.2344 102.945 67.8359L109 65.375Z" fill="white"/>
<path d="M102.945 67.8359C101.891 66.1953 99.3907 66.4687 98.336 67.6406C97.2813 68.8125 97.4376 70.4922 98.4141 71.2734L102.945 67.8359ZM102.945 67.8359C102.008 66.2344 102.984 64.0078 104.469 63.4609C105.914 62.9141 108.609 63.1484 109 65.375L102.945 67.8359ZM134.938 70.2187C134.781 69.7109 136.227 68.6953 138.609 69.2812C141.031 69.9062 141.617 71.4687 141.539 72.6797L134.938 70.2187ZM129.899 68.5391C131.188 67.6016 130.68 65.8047 129.547 65.2188C127.516 64.2031 128.258 61.625 126.93 61.1172C125.641 60.6094 124.391 59.7109 124.313 58.7734C123.688 60.0625 124.078 61.1953 124.977 62.0156C125.875 62.7969 124.274 66.0781 125.445 66.9375L129.899 68.5391Z" stroke="black" stroke-width="0.2"/>
<path d="M112.984 65.0625C113.961 63.2266 112.086 60.4531 109.976 60.0625C108.219 59.6719 106.148 59.7109 105.445 57.9922C105.055 59.4766 106.148 60.4531 107.476 61.3125C108.766 62.1719 107.242 64.3594 109.351 65.6094L113.023 65.0625H112.984Z" fill="white" stroke="black" stroke-width="0.2"/>
<path d="M112.828 65.1406C112.359 63.8125 113.258 62.0156 115.055 62.1719C116.891 62.2891 117.906 63.5781 117.125 65.2578L112.828 65.1406Z" fill="white" stroke="black" stroke-width="0.2"/>
<path d="M116.852 65.2578C116.578 63.8516 117.711 62.2109 119.508 62.6016C121.266 62.9922 122.086 64.4375 121.07 65.9219L116.852 65.2188V65.2578Z" fill="white" stroke="black" stroke-width="0.2"/>
<path d="M120.797 65.8828C120.641 64.4766 121.852 62.9141 123.609 63.3828C125.367 63.8516 126.109 65.3359 125.016 66.7812L120.836 65.8828H120.797ZM90.4844 88.9297C87.086 88.9297 86.2657 89.7109 85.7969 93.2266C85.1719 97.5234 91.0704 98.0312 90.4844 88.9297Z" fill="white" stroke="black" stroke-width="0.2"/>
<path d="M91.9687 84.3984C86.8125 82.4453 84 90.6484 78.8438 89.1641C80.6797 92.0937 85.1328 89.1641 86.8125 89.4766C89.625 89.9844 95.7188 88.9297 91.9687 84.3984ZM88.6094 95.6094C86.0312 94.4375 83.2969 98.3437 83.7656 100.102C84.4297 102.25 90.2891 100.492 88.6094 95.6094ZM76.6562 112.523C78.0625 112.914 79.7812 113.695 79.4687 116.43C79.1562 119.164 74 124.672 69.3906 125.023C64.7812 125.297 63.1406 130.883 59.1172 129.32C62.8672 128.617 62.8672 124.398 65.7578 123.07C63.6484 122.289 62.5547 127.094 59.8203 127.094C57.0859 127.094 55.7969 131.43 52.4766 131.117C49.1562 130.844 48.8438 136.391 42.1641 136.469C37.0859 136.508 30.8359 142.445 28.5312 139.867C33.4922 139.164 35.4844 136.43 38.4141 133.422C43.1016 128.617 48.4531 130.766 50.2891 126.508C48.1805 127.931 45.6839 128.667 43.1406 128.617C40.0156 128.539 36.6562 133.539 33.1797 131.352C35.1719 131.078 36.5 130.219 38.6094 127.992C40.7578 125.727 43.9609 127.211 46.4609 124.867C50.3672 121.273 53.7656 124.281 57.5156 119.789C56.4609 119.242 54.1953 119.594 52.0859 120.727C49.9766 121.82 47.2812 119.945 44.8594 121.273C45.1328 118.305 50.7969 119.984 54.3125 117.953C58.2969 115.609 61.5781 116.312 64.7031 116.586C60.3281 116.586 58.6484 112.406 52.5938 113.617C49.9766 114.164 47.8672 109.984 45.25 112.094C45.3281 110.531 48.0625 109.281 50.875 110.805C53.6875 112.328 54.8203 109.477 60.4453 113.031C62.7891 114.477 66.7344 112.094 69.2344 113.656C68.9219 112.719 67.4766 112.094 65.7969 112.25C66.8516 110.062 73.6875 110.336 76.6562 112.523Z" fill="white" stroke="black" stroke-width="0.2"/>
<path d="M81.1094 109.242C78.9219 107.523 75.8359 109.594 73.6875 108.773C73.6875 110.18 74.4297 112.289 76.7344 113.109C77.4375 112.602 80.6406 109.828 81.1094 109.242Z" fill="white" stroke="black" stroke-width="0.2"/>
<path d="M84.5859 104.359C81.1094 102.602 80.5234 106.977 77.7891 106.078C77.9063 107.328 78.9219 108.891 81.1094 109.242L84.625 104.359H84.5859Z" fill="white" stroke="black" stroke-width="0.2"/>
<path d="M86.6562 100.375C81.5391 98.3828 80.875 103.305 77.8672 102.328C78.5703 104.047 82.8672 104.984 85.0938 104.359L86.6562 100.375ZM93.6875 78.8125C92.3203 76.8594 89.4688 78.4219 89 80.7266C88.5703 82.9922 89.6641 86.1562 91.5781 85.4141L93.6875 78.7734V78.8125Z" fill="white" stroke="black" stroke-width="0.2"/>
<path d="M97.164 72.7969C94.8203 72.2109 92.0859 72.4844 92.3984 74.75C91.4609 75.1797 91.2265 78.1484 93.6874 78.8125L97.164 72.7578V72.7969Z" fill="white" stroke="black" stroke-width="0.2"/>
<path d="M98.7266 71.2344C96.3828 68.5 93.8437 68.5391 92.3984 69.6719C89.7031 71.8203 87.125 70.6094 87.0469 72.7187C88.6484 71.4687 90.0938 72.9531 91.3438 72.5234C92.6719 72.0547 93.6484 74.5937 97.2812 73.5391L98.7266 71.1953V71.2344ZM93.1406 111.82C93.4922 112.484 95.6406 112.758 96.6953 111.664C98.1016 110.18 96.5781 106.117 94.3516 105.805C92.125 105.531 91.9297 110.414 93.1406 111.82Z" fill="white" stroke="black" stroke-width="0.2"/>
<path d="M90.6406 111.898C93.7656 113.07 95.1328 110.453 93.4531 108.773C92.5868 109.877 91.6472 110.921 90.6406 111.898Z" fill="white" stroke="black" stroke-width="0.2"/>
<path d="M78.7656 116.234C78.1406 118.07 75.0156 118.344 71.5 123.969C67.9844 129.633 64.625 127.25 63.7656 131.117C67.9844 127.719 71.3047 129.945 73.8438 126.586C77.6328 121.469 80.7969 122.211 82.2812 118.773C84.3906 113.812 93.6094 113.93 94.1563 106.156C91.0313 105.57 81.1484 113.93 78.7656 116.234ZM158.141 40.1797C162.164 41.5078 162.242 46.7031 166.891 48.4219C171.5 50.1406 171.969 54.2812 175.758 53.2656C172.242 52.2891 172.477 48.2266 168.805 47.2109C164.508 46.0391 162.867 39.4766 159.43 38.4609M176.617 67.4844C177.32 69.125 177.203 71.9766 174.664 72.7188C176.031 73.5781 178.063 72.7969 179.156 70.9219C177.516 74.5937 178.609 77.9141 181.227 78.5781C179.977 76 182.789 74.7891 181.891 73.1094C183.531 73.8516 185.016 76.1172 184.938 77.5234C187.125 75.1016 183.375 71.8594 184.039 69.5937L176.617 67.4844ZM150.484 93.3438C148.023 91.1953 146.969 93.9297 145.797 92.9531C144.625 92.0938 143.141 91.9766 142.555 92.8359C144.664 92.9141 143.648 94.5547 147.75 94.9453C143.648 95.2188 144.391 99.8281 141.656 99.5938C144.547 102.328 146.07 97.1328 148.453 97.9922C147.75 98.1875 149.547 99.8281 148.297 102.055C150.328 102.016 151.148 99.2031 151.422 97.7578L150.484 93.3438ZM96.1875 116.859C95.3281 116.078 92.6719 115.727 91.6953 116.352C90.6797 116.938 91.0312 117.133 92.2422 117.211C93.4531 117.289 94.9766 119.242 92.3984 119.359C91.1875 119.398 91.6172 122.328 89.0781 122.523C90.0938 123.773 93.0625 122.953 94.1172 121.586C93.9219 122.719 95.4063 123.734 94.8203 125.102C96.6563 125.297 95.6016 121.312 98.5313 121.508C97.3594 121.664 97.8281 124.398 99.9375 123.695C98.6875 124.281 99.3516 125.766 100.719 125.414C99.8594 125.688 99.5469 126.859 100.797 127.523C102.008 125.844 100.641 119.906 96.2266 116.859H96.1875ZM205.797 61.3516C206.756 61.4234 207.72 61.2965 208.629 60.9786C209.537 60.6608 210.37 60.1589 211.075 59.5044C211.78 58.8499 212.343 58.0569 212.728 57.175C213.113 56.293 213.311 55.3411 213.311 54.3789C213.311 53.4167 213.113 52.4648 212.728 51.5828C212.343 50.7009 211.78 49.9079 211.075 49.2534C210.37 48.5989 209.537 48.097 208.629 47.7792C207.72 47.4613 206.756 47.3344 205.797 47.4062C204.038 47.538 202.393 48.3298 201.194 49.6229C199.994 50.916 199.327 52.6149 199.327 54.3789C199.327 56.1429 199.994 57.8418 201.194 59.1349C202.393 60.428 204.038 61.2198 205.797 61.3516Z" fill="white"/>
<path d="M158.141 40.1797C162.164 41.5078 162.242 46.7031 166.891 48.4219C171.5 50.1406 171.969 54.2812 175.758 53.2656C172.242 52.2891 172.477 48.2266 168.805 47.2109C164.508 46.0391 162.867 39.4766 159.43 38.4609M78.7656 116.234C78.1406 118.07 75.0156 118.344 71.5 123.969C67.9844 129.633 64.625 127.25 63.7656 131.117C67.9844 127.719 71.3047 129.945 73.8438 126.586C77.6328 121.469 80.7969 122.211 82.2812 118.773C84.3906 113.813 93.6094 113.93 94.1563 106.156C91.0313 105.57 81.1484 113.93 78.7656 116.234ZM176.617 67.4844C177.32 69.125 177.203 71.9766 174.664 72.7187C176.031 73.5781 178.063 72.7969 179.156 70.9219C177.516 74.5937 178.609 77.9141 181.227 78.5781C179.977 76 182.789 74.7891 181.891 73.1094C183.531 73.8516 185.016 76.1172 184.938 77.5234C187.125 75.1016 183.375 71.8594 184.039 69.5937L176.617 67.4844ZM150.484 93.3438C148.023 91.1953 146.969 93.9297 145.797 92.9531C144.625 92.0937 143.141 91.9766 142.555 92.8359C144.664 92.9141 143.648 94.5547 147.75 94.9453C143.648 95.2188 144.391 99.8281 141.656 99.5938C144.547 102.328 146.07 97.1328 148.453 97.9922C147.75 98.1875 149.547 99.8281 148.297 102.055C150.328 102.016 151.148 99.2031 151.422 97.7578L150.484 93.3438ZM96.1875 116.859C95.3281 116.078 92.6719 115.727 91.6953 116.352C90.6797 116.937 91.0312 117.133 92.2422 117.211C93.4531 117.289 94.9766 119.242 92.3984 119.359C91.1875 119.398 91.6172 122.328 89.0781 122.523C90.0938 123.773 93.0625 122.953 94.1172 121.586C93.9219 122.719 95.4063 123.734 94.8203 125.102C96.6563 125.297 95.6016 121.313 98.5313 121.508C97.3594 121.664 97.8281 124.398 99.9375 123.695C98.6875 124.281 99.3516 125.766 100.719 125.414C99.8594 125.688 99.5469 126.859 100.797 127.523C102.008 125.844 100.641 119.906 96.2266 116.859H96.1875ZM205.797 61.3516C206.756 61.4234 207.72 61.2965 208.629 60.9786C209.537 60.6608 210.37 60.1589 211.075 59.5044C211.78 58.8499 212.343 58.0569 212.728 57.175C213.113 56.293 213.311 55.3411 213.311 54.3789C213.311 53.4167 213.113 52.4648 212.728 51.5828C212.343 50.7009 211.78 49.9079 211.075 49.2534C210.37 48.5989 209.537 48.097 208.629 47.7792C207.72 47.4613 206.756 47.3344 205.797 47.4062C204.038 47.538 202.393 48.3298 201.194 49.6229C199.994 50.916 199.327 52.6149 199.327 54.3789C199.327 56.1429 199.994 57.8418 201.194 59.1349C202.393 60.428 204.038 61.2198 205.797 61.3516Z" stroke="black" stroke-width="0.2"/>
<path d="M169.391 69.75C171.539 67.7578 174.742 66.7422 176.969 68.2656C179.156 69.75 186.5 71.5469 190.133 69.0469C193.766 66.5469 195.484 65.2187 197.086 65.5312C198.258 67.3281 199.742 68.1875 201.539 68.3438C202.086 68.9688 204.078 69.4375 205.172 69.3203C206.773 69.7109 208.727 69.2031 210.289 67.4844C212.711 67.875 214.977 66.0391 215.836 63.3047C218.414 63.0312 218.57 60.1797 216.93 58.2266C215.445 57.9531 216.578 52.8359 211.109 53.8516C213.453 55.2578 211.656 58.0703 213.57 59.3984C212.281 59.3984 210.562 59.9453 210.172 61.8984C210.68 60.5703 210.094 59.6328 209.781 59.3594C209.781 58.1875 207.242 55.3359 204.82 56.3906C206.539 56.7812 205.602 59.5156 206.852 60.6094C206.377 60.6287 205.913 60.7546 205.494 60.9778C205.074 61.2009 204.711 61.5156 204.43 61.8984C203.766 60.7266 201.461 59.5547 200.055 59.4375C200.055 59.0469 199.977 58.2656 199.781 57.8359C199.156 56.625 198.609 55.1797 198.883 53.3437C197.74 54.6884 196.794 56.1876 196.07 57.7969C194.156 56.4688 189.43 58.3828 187.203 58.8906C185.016 59.3984 177.555 58.1875 175.875 56.3906C173.484 54.4796 170.672 53.1672 167.672 52.5625C163.375 51.3125 163.375 46.625 158.648 43.3828C158.531 49.2422 167.398 67.7578 169.391 69.75ZM120.094 114.242C121.886 114.242 123.605 113.53 124.872 112.263C126.14 110.996 126.852 109.277 126.852 107.484C126.852 105.692 126.14 103.973 124.872 102.706C123.605 101.439 121.886 100.727 120.094 100.727C118.301 100.727 116.583 101.439 115.315 102.706C114.048 103.973 113.336 105.692 113.336 107.484C113.336 109.277 114.048 110.996 115.315 112.263C116.583 113.53 118.301 114.242 120.094 114.242Z" fill="white" stroke="black" stroke-width="0.2"/>
<path d="M104 109.047C105.367 110.805 107.672 110.688 108.648 110.57C109.43 112.68 112.008 112.602 113.102 113.773C114.234 114.945 117.984 114.828 119.078 114.164C118.102 114.086 116.773 113.461 115.563 112.406C114 111.156 114.703 108.578 113.531 107.719C113.9 107.249 114.167 106.708 114.315 106.13C114.463 105.551 114.489 104.948 114.391 104.359C115.328 103.812 116.031 102.914 116.109 102.445C117.511 102.378 118.841 101.809 119.859 100.844C120.719 101.625 122.867 100.609 124.039 101.938C124.273 98.6172 121.109 96.8594 118.961 97.9922C118.141 97.5234 115.875 97.8359 115.445 98.4219C114.781 98.1094 112.789 99.125 111.93 99.7891C112.906 99.2422 113.063 97.5625 112.672 96.9766C113.531 96.5859 114.469 95.4531 114.586 94.6328C115.758 94.8281 117.594 94.0078 118.375 94.2031C117.086 92.4844 114.937 91.8594 112.711 92.0547C110.406 92.1719 109.43 93.7734 109.117 95.4922C107.789 96.3125 107.32 99.0078 107.828 99.9844C107.047 99.9844 106.305 100.727 106.031 101.156C104.865 100.676 103.621 100.411 102.359 100.375M102.867 97.6406C102.398 96.3125 102.984 95.1406 103.297 94.125C104.078 91.4688 103.609 90.7656 101.227 91.1172C101.367 93.3741 101.923 95.5857 102.867 97.6406Z" fill="white"/>
<path d="M104 109.047C105.367 110.805 107.672 110.688 108.648 110.57C109.43 112.68 112.008 112.602 113.102 113.773C114.234 114.945 117.984 114.828 119.078 114.164C118.102 114.086 116.773 113.461 115.563 112.406C114 111.156 114.703 108.578 113.531 107.719C113.9 107.249 114.167 106.708 114.315 106.13C114.463 105.551 114.489 104.948 114.391 104.359C115.328 103.812 116.031 102.914 116.109 102.445C117.511 102.378 118.841 101.809 119.859 100.844C120.719 101.625 122.867 100.609 124.039 101.938C124.273 98.6172 121.109 96.8594 118.961 97.9922C118.141 97.5234 115.875 97.8359 115.445 98.4219C114.781 98.1094 112.789 99.125 111.93 99.7891C112.906 99.2422 113.063 97.5625 112.672 96.9766C113.531 96.5859 114.469 95.4531 114.586 94.6328C115.758 94.8281 117.594 94.0078 118.375 94.2031C117.086 92.4844 114.937 91.8594 112.711 92.0547C110.406 92.1719 109.43 93.7734 109.117 95.4922C107.789 96.3125 107.32 99.0078 107.828 99.9844C107.047 99.9844 106.305 100.727 106.031 101.156C104.865 100.676 103.621 100.411 102.359 100.375M102.867 97.6406C102.398 96.3125 102.984 95.1406 103.297 94.125C104.078 91.4688 103.609 90.7656 101.227 91.1172C101.367 93.3741 101.923 95.5857 102.867 97.6406Z" stroke="black" stroke-width="0.2"/>
<path d="M101.109 91.2734C101.734 91.8984 103.844 92.1719 104.078 90.2578C104.352 88.0703 103.453 87.2109 101.539 88.0703C101.383 88.5781 101.227 90.6094 101.148 91.2734H101.109Z" fill="white" stroke="black" stroke-width="0.2"/>
<path d="M101.578 87.9922C102.359 88.3047 104.117 88.9688 105.094 87.0938C105.875 85.5313 104.82 84.3594 103.141 84.4375C102.75 84.9062 101.969 86.5078 101.578 87.9922Z" fill="white" stroke="black" stroke-width="0.2"/>
<path d="M103.062 84.2812C103.258 84.9062 105.328 86.8984 106.813 85.4531C108.336 84.0078 108.336 81.8203 106.07 81.0391C105.484 81.1172 103.648 83.2266 103.062 84.2812Z" fill="white" stroke="black" stroke-width="0.2"/>
<path d="M106.07 81C106.5 82.2891 107.945 84.4375 110.562 83.4609C113.18 82.4453 112.047 79.1641 110.836 78.5C109.086 79.0004 107.462 79.8658 106.07 81.0391V81Z" fill="white" stroke="black" stroke-width="0.2"/>
<path d="M110.836 78.5C110.641 79.6328 110.836 82.6406 114.43 82.6016C117.984 82.5234 117.008 78.3438 116.07 77.7578C114.625 77.7578 112.164 77.7969 110.836 78.5391V78.5Z" fill="white" stroke="black" stroke-width="0.2"/>
<path d="M116.226 77.875C115.836 78.7734 114.937 84.3984 121.93 82.8359C122.828 82.6406 125.172 77.4453 116.226 77.9141V77.875Z" fill="white" stroke="black" stroke-width="0.2"/>
<path d="M120.055 78.4219C119.352 79.125 121.149 84.7891 125.914 83.8516C130.602 82.875 126.656 77.4844 120.055 78.3828V78.4219Z" fill="white" stroke="black" stroke-width="0.2"/>
<path d="M124.078 79.2812C123.297 80.8438 124.469 85.4531 130.289 85.4531C135.563 85.4531 130.016 79.3594 124.078 79.2812Z" fill="white" stroke="black" stroke-width="0.2"/>
<path d="M128.648 80.6094C128.258 81.5078 127.828 86.3906 134.703 86.8203C139.664 87.1328 138.453 80.0625 128.648 80.6094Z" fill="white" stroke="black" stroke-width="0.2"/>
<path d="M136.031 82.6797C135.211 84.2031 134.312 87.9531 141.852 88.2656C146.656 88.4609 143.687 82.7969 136.07 82.6797H136.031Z" fill="white" stroke="black" stroke-width="0.2"/>
<path d="M142.32 83.8516C141.226 85.3359 142.047 88.3047 144.859 88.8516C148.375 89.5547 148.883 86.2344 146.461 84.6328C144.039 83.0703 142.32 83.8516 142.32 83.8516Z" fill="white" stroke="black" stroke-width="0.2"/>
<path d="M145.797 84.5156C144.977 85.9609 145.445 89.3594 150.797 89.3594C151.891 89.3594 156.109 85.0625 145.758 84.5547L145.797 84.5156ZM104.43 150.141C106.502 150.141 108.489 149.318 109.954 147.852C111.419 146.387 112.242 144.4 112.242 142.328C112.242 140.256 111.419 138.269 109.954 136.804C108.489 135.339 106.502 134.516 104.43 134.516C102.358 134.516 100.371 135.339 98.9054 136.804C97.4403 138.269 96.6172 140.256 96.6172 142.328C96.6172 144.4 97.4403 146.387 98.9054 147.852C100.371 149.318 102.358 150.141 104.43 150.141Z" fill="white" stroke="black" stroke-width="0.2"/>
<path d="M161.852 36.3516C161.008 37.2914 160.299 38.343 159.742 39.4766C157.125 47.2891 164.117 53.1484 168.18 61.625C169.851 65.4394 170.527 69.6157 170.145 73.7627C169.762 77.9096 168.333 81.8917 165.992 85.3359C164.273 87.6016 164.781 88.2656 162.555 90.5703C161.695 91.4688 160.758 92.6016 161.07 95.8047C162.477 95.2969 164.469 96.5859 164.859 97.7578C165.875 97.2109 167.281 97.4063 167.789 98.0313C169.508 97.25 170.914 97.6406 172.438 99.2031C173.727 99.0469 175.172 99.2031 176.461 100.648C177.164 99.2422 178.57 98.6953 179.586 99.0469C179.469 97.2109 181.266 95.9219 182.867 96.625C182.742 96.1093 182.757 95.5695 182.911 95.0617C183.066 94.5539 183.353 94.0967 183.744 93.7377C184.135 93.3788 184.615 93.1311 185.134 93.0206C185.653 92.9101 186.192 92.9408 186.695 93.1094C188.531 91.7031 192.164 91.5859 193.961 93.6953C190.719 92.7969 190.836 96.2344 188.102 95.9219C188.805 97.9141 187.008 99.0859 185.211 99.75C186.383 99.2031 187.633 98.5391 188.023 99.2422C189.039 98.3438 191.031 98.6953 191.539 99.125C192.867 98.7344 194.156 99.0469 194.742 100.648C196.578 101.742 197.789 104.555 196.461 106.664C196.07 104.477 194.547 104.555 193.961 103.656C192.555 104.164 191.148 104.164 190.719 103.266C189.938 104.047 187.203 104.789 186.031 103.578C185.563 105.375 184 106.898 182.164 106.898C182.672 108.305 181.266 110.688 180.172 111.898C181.891 112.797 181.344 114.828 180.953 116.039C183.609 116.43 181.344 118.773 185.914 120.258C183.688 120.961 179.352 120.258 178.766 117.523C176.539 117.445 175.055 115.219 175.133 112.914C173.414 111.313 173.18 109.008 175.523 107.367C173.531 107.992 172.398 104.75 169.508 106.078C168.063 106.742 164.234 105.609 164.273 104.281C163.688 105.258 159.977 104.867 159.508 103.148C158.297 103.813 155.484 102.719 155.523 101.039C153.961 101.742 151.852 100.492 151.969 98.8906C150.484 98.6953 150.328 97.3672 150.406 96.2734C149.117 95.6484 149.469 94.3984 150.016 92.9141C149.078 91.8984 149.469 90.4922 150.172 89.1641C149.195 88.1484 149.391 86.9766 149.664 85.5313C144.859 85.1406 138.805 83.9688 124.938 79.7109C104 73.2656 98.375 88.3828 102.984 97.8359C108.336 108.773 102.398 111.117 104.195 119.242C106.148 119.633 107.125 121.273 107.008 122.992C108.18 123.031 108.961 124.086 108.57 126.117C109.101 126.03 109.645 126.066 110.159 126.221C110.674 126.377 111.146 126.649 111.539 127.016C112.242 125.688 114.586 125.375 115.758 126.898C118.375 126.703 119.703 128.852 119.586 131.43C120.217 132.612 120.497 133.949 120.393 135.285C120.289 136.62 119.806 137.898 119 138.969C119.156 137.914 119 136.43 118.961 135.492C118.844 133.852 116.539 133.5 116.773 132.133C115.602 132.25 114.43 131.586 114.039 130.688C113.69 130.988 113.269 131.193 112.817 131.283C112.365 131.372 111.898 131.342 111.461 131.195C112.789 131.781 113.883 134.203 113.453 135.805C114.156 137.016 114 139.242 113.18 140.18C112.789 142.133 111.227 142.836 109.273 141.977C110.406 141.273 110.797 140.023 110.758 138.969C110.099 138.31 109.697 137.437 109.625 136.508C107.672 136.82 104.938 135.141 104.469 134.477C103.44 134.477 102.42 134.68 101.47 135.075C100.52 135.47 99.6566 136.049 98.9307 136.779C98.2047 137.508 97.6301 138.374 97.2397 139.326C96.8494 140.279 96.6512 141.299 96.6563 142.328C96.4219 140.727 94.3907 139.125 94.6641 137.758C93.4532 134.047 95.1719 130.57 100.094 129.867C99.4688 128.461 101.578 127.016 100.797 125.414C99.2281 122.561 97.2982 119.922 95.0547 117.563C96.7735 114.633 96.2266 110.727 95.2501 108.305C93.8047 104.828 92.4376 105.688 87.3204 111.313C78.961 120.492 67.7891 117.953 57.9454 124.008C55.3282 125.57 52.711 126.195 55.5235 123.383C58.336 120.57 65.7579 117.758 70.6016 115.336C79.6641 110.805 87.3204 103.266 90.3282 88.5781C97.3985 54.0469 123.531 65.4531 140.016 71.8594C155.523 77.9141 152.711 64.2422 144.859 55.9609C135.406 46.0781 137.32 38.2656 141.734 32.0156C149.664 30.9219 164.938 33.6953 161.852 36.3516Z" fill="white" stroke="black" stroke-width="0.2"/>
<path d="M189.898 121.156C191.03 121.156 192.15 120.933 193.195 120.501C194.24 120.068 195.189 119.433 195.989 118.633C196.789 117.834 197.423 116.884 197.856 115.839C198.289 114.794 198.512 113.674 198.512 112.543C198.512 111.412 198.289 110.292 197.856 109.247C197.423 108.202 196.789 107.252 195.989 106.452C195.189 105.653 194.24 105.018 193.195 104.585C192.15 104.152 191.03 103.93 189.898 103.93C187.619 103.93 185.433 104.835 183.822 106.447C182.21 108.058 181.305 110.244 181.305 112.523C181.305 114.803 182.21 116.988 183.822 118.6C185.433 120.212 187.619 121.117 189.898 121.117V121.156Z" fill="white" stroke="black" stroke-width="0.2"/>
<path d="M157.047 36.7422C155.094 45.2188 156.734 49.0469 159.547 52.7578C165.367 60.4531 170.016 77.9922 163.375 89.4766" stroke="black" stroke-width="0.2"/>
<path d="M167.086 79.5547C167.867 79.2813 169.43 78.3047 169.742 76.6641M167.711 75.8828C167.945 74.4375 170.211 73.8125 170.25 72.25M167.75 70.2187C167.594 68.6953 170.016 67.3281 169.664 65.8437M166.422 64.7891C166.227 63.9297 168.453 62.3281 167.828 60.9609M164.781 59.4766C164.313 58.5391 165.836 57.4453 165.172 56.4297M162.359 55.2578C162.203 54.6328 163.141 53.1875 162.633 52.3281M159.938 50.2969C160.133 50.0234 160.953 49.4375 160.641 48.6953M158.297 46.625C158.609 46.4687 159.586 46.1562 159.469 45.4531" stroke="black" stroke-width="0.2" stroke-linecap="round"/>
<path d="M107.906 141.508C105.953 140.805 103.414 141.781 102.906 143.5M104.43 145.062C104.664 143.344 107.281 142.602 108.062 143.383C106.422 142.484 105.602 145.727 107.086 145.805M120.602 105.258C119.43 105.883 119.039 108.07 120.602 109.75M122.398 105.766C121.578 106.469 121.617 108.578 122.867 109.086C121.812 108.305 122.867 107.016 123.648 106.977C124.391 106.937 124.898 107.836 123.961 108.734M193.102 110.766C190.289 109.984 188.023 113.266 190.602 116.195C190.523 113.383 192.555 111.508 195.016 112.016M193.844 113.969C193.564 113.969 193.296 114.08 193.098 114.278C192.9 114.475 192.789 114.744 192.789 115.023C192.789 115.57 193.258 116.117 194.039 116.117C194.547 116.117 194.977 115.531 194.977 115.063M203.805 52.1719C204.273 53.8906 206.617 54.6328 208.492 54.2031M208.492 53.1094C207.047 53.1484 205.836 51.7813 205.914 50.6484C205.914 51.5078 207.867 51.8984 208.492 51.3516" stroke="black" stroke-width="0.2" stroke-linecap="round" stroke-linejoin="round"/>
<path d="M108.648 110.57C108.258 109.555 109.82 108.539 109.898 107.602C109.938 106.625 111.695 105.883 113.531 107.68M112.672 96.9766L111.695 97.4453M116.148 102.445C115.719 102.445 114.82 102.445 114.352 102.094M114.352 104.359C114.039 104.555 113.258 104.828 112.789 104.945M97.125 134.75C97.0469 135.648 97.9844 136.977 98.4531 137.367M101.031 132.602C100.754 133.038 100.567 133.525 100.48 134.035C100.393 134.545 100.407 135.066 100.523 135.57M108.531 135.57C107.633 134.984 108.219 133.461 108.141 132.445C108.023 131.43 109.195 129.828 111.461 131.195M100.094 129.828C100.992 129.672 101.93 129.711 102.555 129.984M111.539 126.977C111.225 127.441 111.036 127.98 110.992 128.539M115.797 126.859C115.094 126.859 114.469 127.367 114.156 127.875M106.031 101.117C106.813 101.391 108.922 102.68 109 104.008M114.586 94.5547C112.125 94.5156 111.148 92.0156 113.023 92.0156M119 97.9531C118.062 98.3437 118.492 99.9844 119.859 100.805M113.102 113.734C112.633 113.109 113.258 111.391 114.82 111.898M116.773 132.094C116.891 130.531 118.805 129.672 119.586 131.391M109.625 136.469C109.508 134.789 110.406 134.242 111.109 134.125C111.891 134.047 112.945 134.672 113.453 135.766M94.6641 137.719C94.7422 136.703 95.6016 135.648 96.5 135.805M186.734 93.0703C186.07 93.5391 185.641 95.6875 188.102 95.8828M182.906 96.625C182.906 96.8594 183.219 97.2109 183.414 97.4063M194.742 100.648C194.117 100.141 192.398 102.211 193.961 103.656M178.727 117.563C178.375 116.117 179.703 115.727 180.992 116.039M175.523 107.367C176.305 106.898 177.086 106.313 178.023 106.078M175.133 112.914C175.133 111.742 175.758 110.687 176.305 110.414M179.586 99.0469C179.527 100.312 179.854 101.565 180.523 102.641M191.539 99.125C190.797 99.3594 190.172 99.6328 189.898 100.258M190.719 103.266C191.109 102.953 191.5 102.602 191.656 102.367M209.742 59.3203C209.742 60.7266 207.984 61.5078 206.813 60.6094M213.57 59.3984C214.352 59.9844 217.047 59.3984 216.422 57.8359M210.25 67.4844C209.519 67.2702 208.859 66.8658 208.336 66.3125M215.797 63.3047C214.898 63.5 214.273 63.3047 213.844 63.1094M201.5 68.3438C202.379 68.3058 203.242 68.0933 204.039 67.7188M200.094 59.4375C199.43 59.3594 198.922 59.4766 198.57 59.75M210.211 61.8984C210.016 62.6711 209.61 63.3744 209.039 63.9297" stroke="black" stroke-width="0.2" stroke-linecap="round"/>
<path d="M198.336 64.125C199.586 63.5781 201.148 67.8359 204.195 66.3516M204.43 61.8984C204.006 62.5527 203.764 63.3075 203.727 64.0859" stroke="black" stroke-width="0.2" stroke-linecap="round" stroke-linejoin="round"/>
<path d="M144.234 55.375C144.625 55.2969 145.367 55.1797 145.523 54.6719M92.4766 102.211C94 103.07 95.0547 104.516 94.4297 106.664M161.656 50.7266C162.125 51.0391 163.805 51.0391 164.781 50.7266M165.953 51.7422C165.953 52.4453 166.148 55.1016 164.781 55.6484M165.289 55.3359C166.539 55.7266 169.039 55.5703 169.859 53.2656M168.102 55.2188C168.766 56.2344 168.961 58.1875 167.008 59.2422M168.57 56.8984C170.055 57.3672 173.414 57.4453 173.062 54.5547M171.891 56.8984C172.945 58.2656 177.359 59.9453 176.656 57.0156M167.867 60.9219C169.547 61.3516 171.969 60.1797 170.992 57.1719M175.797 58.6953C176.031 59.8672 181.656 61.0391 180.914 58.4219M179.859 59.9453C180.914 62.3672 186.5 62.1719 184.742 58.9297M183.844 61.4688C184.937 62.7969 189.898 62.0156 187.906 58.7344M187.867 61.3906C190.953 63.7344 194.508 60.4141 190.602 57.9922M192.398 60.6484C195.133 62.7969 198.453 58.8906 196.07 57.7969M170.914 59.75C171.773 59.9844 173.57 59.9063 174 58.3438M173.297 59.3984C173.219 61.6641 177.047 62.5234 178.023 59.9063M176.734 61.3516C177.438 62.875 180.836 63.4609 181.383 61.3125M180.836 62.3281C181.383 63.8125 184.313 63.6563 185.133 62.0938M184.039 63.1094C184.937 65.0625 188.687 65.0625 189.508 62.2109M188.883 63.4609C190.328 64.3594 193.453 64.0078 193.18 61.1953M192.594 63.2266C194.781 64.9844 197.828 63.2656 196.305 60.2969M196.188 65.5312C197.359 65.3359 197.945 63.0312 196.734 62.4062M169.391 65.9219C171.734 64.6328 172.242 62.4062 170.562 60.2578M171.422 63.7344C172.945 64.6328 175.797 63.6563 176.305 61.4688M173.492 63.9687C174.352 65.0625 174.508 66.4297 173.375 67.6797M174.156 65.375C176.852 63.7344 180.172 66.7812 177.672 68.6562M177.281 65.2188C177.867 65.0625 178.922 63.9688 179 62.7188M178.453 66.3906C179.586 65.2188 187.125 67.5625 182.359 70.0234M181.969 63.2266C183.453 63.7734 184.195 65.8438 181.969 66.5469M183.922 68.2656C185.484 66.5859 190.562 67.6406 188.727 69.75M187.516 67.6016C188.414 64.5156 193.805 66.4297 192.047 67.6797M186.422 64.5547C186.578 65.1406 186.617 66.625 185.641 67.4453M190.953 63.9297C191.062 64.2758 191.091 64.6422 191.036 65.001C190.982 65.3598 190.847 65.7015 190.641 66M194.352 63.9687C194.664 64.5156 195.133 65.5703 194.039 66.4297M151.305 40.8438C151.344 43.6953 152.359 45.6094 156.227 43.8125M152.516 44.2422C150.563 46.8203 152.75 49.5938 156.539 46.8203M146.578 45.4531C149.195 48.2656 153.883 46.2344 150.875 41.9375M154 47.875C153.531 50.6484 155.797 51.1953 157.633 49.9453M144.273 45.9219C144.742 48.6953 147.594 50.8828 150.367 49.2031M147.672 49.75C147.672 53.7344 153.141 54.1641 154.43 50.0625M152.477 52.5625C154.234 56.1953 158.063 54.7109 159.313 52.5234M148.609 46.7812C149.313 48.5391 150.719 50.4922 153.961 49.0469M138.531 45.9219C139 47.3672 141.617 49.125 144.625 47.0938M140.406 47.7969C138.766 50.1406 141.969 52.3672 145.875 48.8516M142.32 50.6875C142.945 54.0078 144.273 56.7031 148.961 52.4063M146.617 54.125C148.336 56.2344 150.953 57.5234 153.414 53.9688" stroke="black" stroke-width="0.2"/>
<path d="M155.289 54.75C155.133 57.2891 155.602 58.5391 157.594 58.4219C159.156 58.3437 160.602 57.1328 161.461 55.8047M157.242 58.4219C157.164 61.3125 159.43 63.5781 163.687 60.6484M159 61.8203C158.219 63.9687 160.602 67.4844 165.328 65.6875M148.961 56.0781C148.687 58.8125 151.227 60.6875 155.367 57.1328M150.992 59.125C151.148 61.3906 153.727 64.125 157.477 60.1797M152.789 62.0156C152.516 65.8828 156.07 66.9766 159.078 64.0078M147.437 59.125C148.219 59.2031 148.883 58.5 149.273 57.9531M149.117 61.9375C149.82 62.0937 151.07 61.4687 151.461 60.6484M150.914 66.5078C151.695 67.4062 154.43 66.7813 154.781 65.6094M153.922 66.4688C155.406 69.9844 159.43 69.8672 161.109 65.8828M160.328 67.2891C161.109 69.3594 163.023 70.6484 166.148 69.9453M161.852 69.3984C160.094 72.25 162.398 75.6484 166.344 72.3281M162.828 73.6953C162.633 75.4922 164.273 77.5625 166.539 77.7969M155.367 68.4219C154.781 72.4844 157.711 74.4375 161.344 72.25M151.109 70.375C152.047 71.1172 153.766 71.1953 155.406 70.6094M157.359 72.9531C156.422 76.3906 159.937 78.8516 162.945 75.0234M152.437 70.9219C152.516 72.6797 154.195 74.5937 157.164 74.0469M165.484 77.5625C163.453 78.8906 163.062 81.3125 165.875 82.875M160.562 76.8594C160.641 78.8906 161.617 80.0625 163.883 80.2578M157.594 75.8047C154.547 78.5391 157.516 81.7812 161.109 79.0469M159.703 79.9062C158.687 83.0703 162.437 84.9844 164.469 81.7812M153.453 73.1875C152.359 76.3125 153.766 78.3437 156.344 78.1484M149.469 72.5625C149.625 74.4375 151.227 75.1016 153.062 74.6719M150.641 74.5156C149.273 77.1328 151.344 78.5391 154.078 77.5625M162.281 83.4219C161.891 85.0625 162.125 86.2344 164.586 86.8203M162.477 85.7656C159.508 87.0938 159.234 89.9844 161.539 91.8203M160.055 82.5625C159.699 82.8732 159.423 83.2642 159.249 83.7029C159.076 84.1417 159.009 84.6155 159.055 85.0853C159.1 85.555 159.257 86.007 159.513 86.4039C159.768 86.8007 160.115 87.131 160.523 87.3672M146.852 73.3828C145.172 75.0625 146.773 79.7109 150.562 77.1719M156.695 79.2422C154.352 81.1953 155.406 84.6328 159.234 83.6953M152.867 77.8359C151.656 81.2344 152.789 82.4453 155.523 82.4844" stroke="black" stroke-width="0.2"/>
<path d="M144.352 73.2266C143.977 73.4834 143.662 73.8168 143.426 74.2049C143.19 74.5929 143.039 75.0266 142.984 75.4773C142.929 75.9279 142.97 76.3852 143.104 76.8188C143.239 77.2523 143.465 77.6523 143.766 77.9922C144.664 79.0078 146.383 78.5391 146.891 77.25M140.016 71.8594C137.711 74.8281 140.016 78.3437 143.297 77.3281M152.398 80.6875C150.055 81.5078 148.219 83.6563 149.664 85.5703C150.562 86.6641 154.273 86.8203 155.328 82.5234M148.141 77.9141C146.773 79.8672 147.203 81.7422 149.703 82.6797M147.984 81.5859C146.5 82.3672 145.562 83.3437 145.914 85.1016M144.703 78.5C144.156 80.8438 144.82 82.3281 146.266 83.0313M144.664 81.3125C142.398 81.1562 141.227 82.0937 142.008 84.3594M142.203 81.8594C139.977 81.0781 139.625 79.125 140.602 77.1719M140.289 80.1406C137.867 80.2187 136.773 81.4297 136.773 83.0703" stroke="black" stroke-width="0.2"/>
<path d="M137.008 70.7266C135.25 71.4687 134.664 73.8516 135.328 75.1406C135.992 76.4297 138.062 76.5469 139.312 75.6875M132.125 68.8516C130.523 70.6484 132.359 74.2031 135.25 73.3437M127.984 67.4453C126.5 69.5547 128.141 73.0703 132.008 72.0547M132.203 81.8594C131.812 79.3594 134.43 77.7187 137.672 80.9609M136.109 75.8828C135.649 76.2964 135.293 76.8124 135.069 77.3892C134.845 77.966 134.76 78.5874 134.82 79.2031M123.883 66.2344C122.203 69.0469 124.234 71.625 127.789 70.6094M133.18 73.2266C130.836 75.5703 131.617 77.9531 133.375 79.3203M131.656 76C128.101 76.0391 127.906 80.1797 130.797 81.4688M128.961 71.8594C127.476 72.875 127.008 75.6484 129.547 76.7422M128.844 78.0703C127.32 77.3672 125.523 78.2266 125.68 79.9844M126.578 78.1094C125.211 74.9063 121.266 75.4531 121.617 78.7734M127.672 74.125C126.851 74.2812 125.133 74.7891 124.469 76.0781M124.703 70.4922C124.389 70.8164 124.16 71.2133 124.036 71.6476C123.913 72.0819 123.899 72.54 123.996 72.981C124.092 73.422 124.297 73.8322 124.591 74.1749C124.884 74.5177 125.259 74.7824 125.68 74.9453M119.898 65.375C119.586 67.5625 120.445 68.6172 123.18 68.4219M120.836 68.1484C119.82 70.7656 121.226 71.9375 123.961 71.7812M121.461 71.3906C119.859 73.3047 120.953 75.3359 122.516 76.1953M120.719 73.8125C117.828 73.4219 117.398 76.7813 118.375 78.3047" stroke="black" stroke-width="0.2"/>
<path d="M118.414 65.1797C116.656 65.9609 115.641 68.1484 116.578 69.4766C117.555 70.8438 119.469 70.4141 120.484 69.7109M117.203 70.1016C115.719 72.3281 117.047 74.0078 118.609 74.6328" stroke="black" stroke-width="0.2"/>
<path d="M111.539 64.9062C110.367 66.1172 111.109 68.5781 113.883 68.6562C116.188 68.6562 117.32 66.5469 116.617 65.0234M113.492 68.6562C112.594 70.6484 113.18 72.8359 116.617 72.4844M118.023 75.6094C115.953 74.6719 113.102 75.6094 114.313 78.1484M114.039 72.0547C113.18 73.2656 113.453 74.9844 114.43 76.0391M113.883 75.2578C112.477 75.5312 111.109 76.2734 111.93 78.5M111.734 76.7031C109.938 76.1562 107.633 77.4844 109 79.3203M108.727 77.5625C107.164 77.2891 105.328 78.9687 106.813 80.6094M106.227 79.2422C104.82 79.6328 103.141 81.1953 104.625 82.4844M113.336 71.3516C111.305 72.25 111.109 74.5156 112.047 76.1953M111.188 67.2109C108.18 68.3828 108.219 72.3672 111.578 73.6172M110.133 72.7188C108.336 73.7734 107.984 75.8047 109.195 77.0937M106.969 65.6875C105.797 66.0781 105.875 69.7891 109.078 69.7109M103.648 66.9375C101.227 68.5391 104.156 72.6016 108.063 69.6719M105.914 70.7266C105.563 72.3672 106.031 74.1641 108.688 74.3984M106.07 72.9141C104.156 73.6172 103.805 77.5625 107.242 77.875M99.9766 69.3594C97.5157 71.625 102.008 73.5781 103.648 70.2969M96.5782 73.1094C95.3672 74.5937 99.586 78.4219 101.461 72.0156M101.891 71.8984C102.008 73.4609 102.906 74.3203 104.742 74.4375M104.742 75.8828C101.734 76.3516 100.797 80.0625 104.117 80.8828M99.2344 75.4141C99.1172 76.7812 100.602 77.9531 102.242 77.7188M103.766 80.7656C101.031 81.3906 100.68 84.9062 103.102 84.6719M101.852 87.9531C99.586 87.2891 99.5078 84.5938 101.539 83.5781" stroke="black" stroke-width="0.2"/>
<path d="M99.9766 85.6094C98.0625 86.7812 98.8047 89.5156 99.8203 89.9062C100.836 90.2969 101.656 89.8281 101.773 88.9687M101.578 92.875C101.813 94.1641 96.9297 93.6562 99.4297 89.5937M99.4297 93.0703C97.7891 95.6484 100.445 97.7578 102.125 95.5313M99.625 96.1562C98.9609 98.2266 101.461 99.7109 103.063 98.1094M94.2344 76.8594C93.3359 78.6953 97.8672 79.3984 98.1406 75.5703M92.9844 79.5937C92.0859 83.2266 98.9219 82.4844 97.1641 77.7969M97.3203 80.2187C97.7747 80.4315 98.2727 80.5346 98.7742 80.5197C99.2756 80.5047 99.7666 80.3722 100.207 80.1327C100.648 79.8933 101.027 79.5536 101.312 79.1411C101.598 78.7286 101.783 78.2548 101.852 77.7578M99.7812 80.3359C99.9052 80.8489 100.132 81.3314 100.447 81.7543C100.763 82.1773 101.161 82.532 101.617 82.7969M96.5 81.2734C96.1875 83.2266 98.1797 84.8672 100.406 84.7109M96.8516 83.1875C95.7578 84.7109 95.4062 87.6016 98.8828 87.7969M91.5 83.7344C90.9531 85.2969 94.2344 86.8984 96.1094 84.3203M90.4844 87.7188C90.2109 88.8906 93.1406 90.4531 94.7812 85.4531M93.4922 87.9922C94.1953 89.2422 96.5781 90.2578 98.0234 87.7969M95.6797 89.3203C95.0547 91.0781 96.7344 92.7187 98.7266 92.25M91.8906 88.9297C91.5 91.4297 94.4297 92.875 96.1875 91.5859M89.9766 90.0234C89.1172 93.2266 93.2578 94.4375 94.8203 92.0156M93.7656 92.9922C93.9219 94.7891 96.7344 96.3516 98.9219 94.8672M88.7266 94.4766C88.5312 95.2969 91.8906 96.1172 92.3984 93.3047M90.6797 95.2187C91.4609 97.25 94.1953 97.7578 95.7578 95.2187M94.8594 96.2344C95.25 98.1875 97.6719 99.2422 99.8594 97.9141M100.758 98.6953C100.211 101.234 102.867 103.305 104.508 101.898M96.4609 98.2266C95.6797 101.039 99.1953 102.641 101.148 101.078M92.2422 96.7812C92.0469 99.4375 94.1172 101 96.4609 99.8281M87.75 97.0938C87.0469 98.7734 90.7969 100.18 92.5547 98.7344M85.4453 101.742C86.4219 102.836 89.7422 101.742 90.0156 99.2812M89.1172 101.078C90.3281 102.484 93.2188 103.266 94.3516 100.219M93.3359 101.781C93.3359 103.969 97.1641 105.531 98.4141 101.547M102.984 102.328C102.594 103.383 103.453 105.062 105.211 105.258M99.7812 101.664C99.5469 102.836 101.305 104.555 103.18 103.891M103.531 104.398C103.023 105.687 103.453 107.562 105.211 107.523M103.687 106.82C102.359 107.914 102.906 109.906 104.82 109.945M103.023 108.695C101.148 109.945 101.813 112.719 104.273 112.562M97.3594 103.266C97.3594 106 100.758 106.391 101.383 103.891M100.094 105.453C99.5859 107.094 100.875 108.656 102.945 108.188M100.484 124.906C100.953 125.57 102.828 124.437 102.32 123.344C101.812 122.25 99.8203 122.836 100.055 124.008M101.852 122.875C102.086 120.688 99.5078 120.336 98.8438 122.25M99.7812 121.117C100.445 120.023 98.2187 118.5 97.3203 120.141M98.1016 119.477C98.7266 117.875 96.2266 117.133 96.0313 118.617M95.4453 116.508C95.7578 115.727 98.5703 116.195 97.3984 117.875M99.5469 119.867C100.641 118.852 98.7656 116.82 97.5938 117.523M106.969 122.953C106.109 123.031 105.211 123.617 105.836 125.492C106.305 126.781 108.219 126.82 108.531 126.078" stroke="black" stroke-width="0.2"/>
<path d="M105.758 123.93C104.898 123.344 103.023 124.32 103.883 126.117M103.883 126.117C104.508 127.484 106.148 126.898 106.383 126.195M103.883 126.117C103.492 126.898 101.383 127.289 100.914 126.508M102.398 124.008C102.867 123.695 103.687 124.086 103.844 124.477M102.281 111.586C100.797 112.562 101.695 115.492 103.961 114.711M101.773 113.969C100.602 114.867 101.695 117.719 103.844 116.625M102.164 116.625C101.344 117.445 102.125 119.672 104.195 119.242M101.852 117.758C101.383 117.563 100.211 117.68 99.7031 118.461M100.523 107.523C99.4296 108.617 99.9765 110.766 102.008 110.961M100.133 109.789C98.5703 110.57 98.5703 113.695 101.695 113.813M100.016 113.305C99.1171 114.008 99.5468 116.742 101.812 116.391M100.719 116.273C100.406 116.625 100.328 117.445 100.641 117.797M99.7421 115.258C98.9609 115.258 97.8671 115.844 97.5937 116.703M96.1484 113.773C96.4218 112.992 98.9218 112.992 99.1171 115.375M99.3515 112.562C99 112.641 98.3359 112.953 98.1796 113.656M98.2578 105.18C97.2031 106.195 96.6953 109.281 99.9375 109.867M96.0703 111.586C96.0703 110.766 98.3359 110.023 99.1171 111.273M94.6249 107.094C94.9374 107.719 96.4999 108.578 97.4374 107.875M86.4999 102.172C86.4847 102.533 86.5494 102.894 86.6893 103.227C86.8293 103.561 87.0411 103.86 87.3096 104.102C87.5782 104.345 87.8969 104.525 88.2431 104.63C88.5893 104.735 88.9544 104.763 89.3124 104.711C90.9921 104.516 91.3437 103.07 90.8359 102.094M89.5859 104.789C88.4531 106.117 89.8203 108.031 91.0703 107.484M90.8359 103.812C91.4999 103.578 93.6484 103.266 94.3124 104.281M83.8437 104.203C83.3359 104.984 86.4609 105.727 87.5156 104.281M86.4609 105.023C86.3437 106.039 86.8515 107.758 89.4296 107.016" stroke="black" stroke-width="0.2"/>
<path d="M89.8593 108.578C90.25 107.719 88.375 106.312 86.8906 107.875C85.4453 109.437 87.125 111.195 88.0234 110.609M83.1797 105.219C82.3984 106.547 85.3281 108.93 87.0078 106.703" stroke="black" stroke-width="0.2"/>
<path d="M81.2264 107.484C80.1718 108.578 81.4999 110.57 83.0624 109.945C84.6639 109.359 84.5077 107.68 84.1171 107.25" stroke="black" stroke-width="0.2"/>
<path d="M79.1953 109.516C78.3359 110.297 79.1953 112.094 80.3672 112.094C81.539 112.094 82.2812 111.195 82.0469 109.984M84 109.359C83.8437 110.531 85.5625 111.312 86.6953 110.219M86.6953 108.109C86.8906 107.875 86.7734 107.445 86.5 107.211M77.3594 111.039C76.3828 111.82 78.5312 114.008 79.8203 112.016M84.9375 110.648C84.3125 111.234 85.3281 112.797 86.3437 112.328M81.5 111.742C81.6562 112.797 83.7656 113.617 85.0937 111.977M82.6328 112.797C82.3203 113.5 82.9844 114.555 83.8047 114.438M102.672 119.047C101.891 120.57 104.391 122.367 106.187 120.492M104.469 121.313C104.078 122.133 104.547 123.305 105.25 123.734M102.125 123.07C102.281 122.289 103.375 121.586 104.352 121.937M100.836 121.078C100.953 120.375 101.852 119.711 102.555 119.906M161.07 94.3203C157.984 95.4531 156.461 89.7109 160.055 89.6719C157.906 90.1406 156.227 89.2422 156.07 88.0703M158.883 93.9297C158.18 95.0625 159.547 96.8984 161.07 95.8047M160.68 96.0391C159.586 97.7969 163.375 100.492 164.898 97.7187M163.687 98.7734C163.687 100.453 168.57 101.508 167.867 98.1875M167.398 99.9844C168.57 101.938 172.867 102.133 172.437 99.2031M171.461 101.234C172.359 102.562 176.617 103.344 176.461 100.648M154.312 84.7109C154.898 86.2734 156.969 86.8203 159.234 85.8828M152.984 85.8047C154.43 86.7031 152.359 90.8437 150.211 89.1641M153.023 88.3828C154.586 89.125 156.5 88.5781 157.047 86.3516M152.203 89.2813C154.234 91 151.305 94.5156 149.977 92.9141M152.945 90.5703C153.922 91.2734 156.383 90.8828 156.617 89.0078M155.523 90.5703C155.719 91.7813 156.695 92.25 158.023 92.2891M152.398 92.25C153.414 93.6562 155.914 94.0469 157.047 92.2109M155.914 93.2656C155.836 94.5937 157.32 95.7266 158.883 95.4141M150.484 96.2344C151.773 96.8984 153.219 94.3984 152.086 92.7188M152.008 98.8516C153.57 98.9297 153.766 96.5859 152.281 95.2578M155.562 101C156.891 100.688 156.461 97.8359 153.297 97.6016M159.547 103.109C160.797 102.758 159.781 99.5938 156.305 99.7891M164.312 104.242C165.172 102.914 162.359 100.727 160.016 101.898M166.656 106.039C168.219 106.508 169.312 102.367 164.352 103.031M169.547 106.039C170.914 105.648 171.891 103.227 167.906 104.008M172.594 106.234C173.766 106.859 174.312 103.305 170.641 104.281M152.281 95.2969C153.805 96.1172 156.187 95.1406 155.953 93.2266M155.367 94.8672C155.875 95.7656 155.68 97.5234 154.703 97.9922M155.484 96.9766C156.5 97.3672 157.867 97.0156 158.687 95.4141M157.281 96.9766C157.555 97.6797 157.672 99.0859 157.008 99.7891M157.516 98.1875C158.648 98.8125 159.937 97.9922 160.484 96.8203M159.781 97.8359C160.562 98.3438 161.305 100.687 159.937 101.664M160.719 100.57C161.656 100.57 163.062 100.57 163.961 99.3984M163.297 100.062C164.156 100.297 165.172 101.703 164.82 102.953M164.859 102.523C165.836 102.406 167.477 101.742 167.945 100.57M167.477 101.352C167.91 101.607 168.259 101.983 168.481 102.434C168.703 102.885 168.789 103.392 168.727 103.891M168.727 103.07C169.703 103.031 170.562 102.523 170.797 101.469M170.562 102.172C171.266 102.406 172.125 103.227 172.164 104.164M172.047 103.578C172.75 103.461 173.258 103.031 173.727 102.328M175.641 102.211C176.539 103.109 175.328 106.117 173.453 105.57M156.305 41.2344C154.469 42.3672 149.156 42.0156 151.773 37.6406M156.852 38.2656C153.141 39.75 148.648 36.8984 153.336 33.8516M152.086 32.8359C149.039 32.8359 146.969 37.7578 151.07 39.4766M140.172 34.9063C139.391 36.4688 142.242 38.1875 144.195 36.625C145.719 35.4141 145.602 32.1328 144.703 30.8828M138.609 38.6172C137.594 41.9375 145.016 42.1328 143.844 36.8594M138.219 43.5781C138.453 46.0781 145.289 45.2578 143.102 40.1797M143.883 38.7734C144.43 39.5547 145.953 40.8438 148.531 40.5703M145.016 35.2969C145.25 36.1953 146.773 36.8594 148.727 36.1953M76.4218 111.781C74.664 112.992 77.3594 114.945 78.3359 112.797M75.0547 112.719C73.3359 113.969 75.9922 115.922 76.9687 113.773M73.6094 113.656C71.8906 114.906 74.5469 116.82 75.5625 114.711M72.125 114.516C70.4453 115.414 72.3984 117.562 74.0781 115.687M70.4844 115.336C68.8047 116.234 70.7578 118.383 72.4375 116.508M78.9219 112.758C78.8828 114.047 81.3047 114.555 82.2031 112.641M80.4453 113.93C79.664 114.906 81.0703 116.078 81.8125 115.648M77.2031 113.773C77.125 114.867 79.2344 115.492 80.25 114.281M78.3359 114.906C77.6719 115.766 79 116.977 79.8984 116.625M75.7969 114.75C75.875 115.609 77.0859 116.586 78.375 116.039M76.5781 115.922C76.0703 116.352 76.3047 117.406 77.0078 117.758M73.9609 115.805C73.7656 116.586 75.0937 117.992 76.4609 117.094M74.2344 116.703C73.4531 117.367 73.5312 118.305 74.5469 118.461M72.2812 116.625C72.2031 117.172 72.8672 118.031 73.7265 117.914M67.9844 116.586C67.2031 117.016 69.2344 119.203 70.5234 117.172M65.9922 117.484C64.9765 117.953 67.4765 120.375 68.6093 117.914M72.5156 117.406C71.7343 117.563 71.2265 118.695 71.8906 119.164M69.9375 117.797C69.8594 118.266 70.8359 118.969 71.6172 118.734M69.3125 117.992C68.5312 118.461 68.9609 119.789 69.8594 119.594M66.6172 118.891C65.914 119.398 66.4219 120.453 67.3984 120.219M67.9062 118.812C67.9062 119.086 68.5703 119.516 69.0781 119.32M64.1953 118.344C63.2969 118.734 63.375 120.922 66.3437 119.75M62.2031 119.242C60.9531 119.828 61.3828 121.508 64.0781 119.906M64.2734 120.023C63.9609 120.297 63.6094 121.391 64.8594 120.961M62.0469 120.57C61.539 121 61.8515 121.937 62.9453 121.586M59.4297 120.727C58.5312 121.234 60.5234 121.938 61.8515 120.531M60.0547 121.352C59.664 121.742 59.664 122.953 60.6797 122.523M57.4765 121.859C56.8906 122.289 57.8672 122.914 59.8203 122.055M58.2578 122.484C57.5156 123.07 57.5937 123.813 58.6484 123.578M56.1484 122.797C55.3672 123.539 56.5 124.008 57.8672 123.422M56.1484 123.617C54.8203 124.203 55.4062 125.336 56.2265 124.906M100.68 127.445C100.367 128.109 101.383 128.656 102.359 128.5C103.258 128.383 104.156 127.602 103.453 126.547M103.492 127.875C104.43 128.578 106.031 127.758 106.031 126.703" stroke="black" stroke-width="0.2"/>
<path d="M159 21.2344C154.977 19.2812 146.617 15.5312 144.234 18.5391C146.422 17.6406 152.75 18.5781 157.984 23.4219L159 21.2734V21.2344Z" fill="white" stroke="black" stroke-width="0.2"/>
<path d="M161.422 21.0391C156.773 15.6094 154 16.8203 150.68 14.9844C147.555 13.2266 142.555 12.875 141.578 15.6484C146.148 13.4219 150.367 16.8203 152.984 17.2891C156.5 17.8359 158.531 20.6094 159.586 21.8594L161.422 21.0781V21.0391ZM178.961 20.3359C176.539 14.8281 171.383 16.2734 169.117 13.9297C165.797 10.4922 157.398 7.28906 153.883 9.67188C161.539 9.28125 164.82 14.9453 168.883 16.9375C171.812 18.3438 174.937 21.3516 178.961 20.3359Z" fill="white" stroke="black" stroke-width="0.2"/>
<path d="M169.898 19.75C165.797 14.6328 159.43 10.1016 156.539 11.7813C160.367 12.0156 161.578 14.6719 164.273 16.3906C167.008 18.0703 165.797 20.5703 169.898 19.75ZM150.289 28.8125C145.992 27.2109 137.516 26.3906 133.57 31.3125C140.133 32.4453 149.977 31.8203 150.289 28.8125Z" fill="white" stroke="black" stroke-width="0.2"/>
<path d="M149.469 30.7266C145.172 28.6953 141.773 31.5078 137.711 31.1172C129.977 30.3359 124.43 30.8047 123.727 34.5547C128.141 30.5703 135.602 33.8516 138.609 33.0312C141.617 32.25 152.789 32.9141 156.305 34.4375C154.508 32.2109 151.695 31.625 149.469 30.7266ZM163.063 19.2031C162.047 15.8828 162.125 12.3672 167.086 12.6016C165.836 11.0391 161.227 10.2578 160.445 16.0781C154.977 12.0547 148.961 11.3516 147.867 14.8281C150.68 12.4062 155.055 14.1641 160.289 20.1016C161.161 19.6581 162.097 19.3549 163.063 19.2031Z" fill="white" stroke="black" stroke-width="0.2"/>
<path d="M155.523 23.7734C152.398 21.7422 148.18 18.5 155.562 17.1719C152.437 15.4922 147.75 16.2344 148.258 22.0547C139.82 18.6562 133.766 19.7891 132.477 23.1875C131.07 26.8984 136.305 28.9687 137.203 26.5859C136.266 26.9766 132.984 25.8828 134.703 23.7734C136.422 21.6641 145.172 23.2656 153.492 27.6016C155.836 28.7734 163.766 28.6172 155.523 23.7734Z" fill="white" stroke="black" stroke-width="0.2"/>
<path d="M153.297 29.3203C150.914 24.3984 143.102 28.8516 141.539 24.0859C139.352 31.0781 152.633 27.2109 153.297 29.3203ZM202.945 34.6328C204.586 35.4531 205.992 34.1641 203.492 33.1875C205.133 33.9688 206.578 32.7578 204.078 31.7422C205.719 32.5234 207.125 31.3125 204.625 30.2969C203.961 30.9609 203.024 33.4219 202.945 34.6328ZM203.805 25.1797C207.438 21.3516 203.531 20.0625 207.945 16.1172C211.578 12.9141 208.649 10.7656 212.047 8.30469C213.18 7.48438 215.563 5.88281 215.797 4.24219C217.242 7.875 211.266 8.38281 211.656 14.2031C211.93 17.9141 209.391 17.6016 208.453 23.8906C208.258 25.1797 207.32 28.1094 203.805 25.1797Z" fill="white" stroke="black" stroke-width="0.2"/>
<path d="M205.406 26.8984C207.438 22.6016 209.742 22.6406 210.875 20.9609C212.984 17.7187 217.438 21.5078 221.227 18.6172C220.562 22.7188 215.484 21.2734 213.258 23.8906C211.07 26.5078 209.234 27.6797 205.445 26.8984H205.406Z" fill="white" stroke="black" stroke-width="0.2"/>
<path d="M205.953 28.3047C209.469 25.4922 212.047 27.3672 214.469 25.8828C220.602 22.1719 223.062 26.6641 228.531 24.8672C227.125 28.3828 219 25.375 215.484 27.9922C211.969 30.6094 199.586 33.1484 205.914 28.3047H205.953ZM195.68 48.3828C195.602 46.7812 194.117 44.7109 192.008 44.4766C189.898 44.2031 188.961 41.9766 187.359 41.8984C185.758 41.7812 184.703 38.5781 182.477 38.6172C180.289 38.6562 179.352 41.5469 184.547 44.1641C189.742 46.7812 195.484 49.7891 195.68 48.3828ZM189.117 49.75C186.93 49.8281 186.617 53.0703 184.508 53.1484C187.398 54.7109 189.547 52.4453 191.031 50.4141L189.156 49.75H189.117Z" fill="white" stroke="black" stroke-width="0.2"/>
<path d="M190.953 50.1406C189 51.7422 188.453 55.1016 191.227 56.0781C189.586 53.7734 194.156 52.7578 192.75 50.6094L190.953 50.1406Z" fill="white" stroke="black" stroke-width="0.2"/>
<path d="M192.828 50.2578C191.344 53.1484 195.211 53.5 194.195 55.7266C196.422 55.2188 196.773 51.0391 194.742 49.9453L192.828 50.2187V50.2578Z" fill="white" stroke="black" stroke-width="0.2"/>
<path d="M178.062 44.0078C181.695 43.8125 184.977 45.7656 187.203 48.9297C188.609 50.9219 193.336 51.7422 194.977 50.1016C196.539 48.5391 195.68 45.1016 191.656 46.1953C190.641 44.5156 187.75 45.1016 186.305 43.6953C184.898 42.2891 179.469 38.2656 178.062 44.0078Z" fill="white" stroke="black" stroke-width="0.2"/>
<path d="M191.656 46.2344C190.68 46.4297 190.367 48.0703 190.992 48.9297L191.656 46.2344ZM193.727 47.2109C194 47.7188 193.805 48.4219 193.648 48.7734L193.727 47.2109ZM183.805 44.1641C185.641 44.2422 185.992 45.6094 188.023 46.1172L183.805 44.1641Z" fill="white"/>
<path d="M191.656 46.2344C190.68 46.4297 190.367 48.0703 190.992 48.9297M193.727 47.2109C194 47.7188 193.805 48.4219 193.648 48.7734M183.805 44.1641C185.641 44.2422 185.992 45.6094 188.023 46.1172" stroke="black" stroke-width="0.2" stroke-linecap="round"/>
<path d="M182.555 39.5937C187.629 40.5854 192.562 42.1992 197.242 44.3984C200.406 46.1953 205.328 46.7422 209.586 45.4922C213.883 44.3203 222.164 43.1875 221.734 48.5391C224 45.8437 221.148 42.9922 215.406 42.4844C215.523 39.8672 212.711 37.5234 210.719 39.0859C212.555 38.8125 214.156 42.2891 210.484 43.6953C210.649 43.0899 210.637 42.4499 210.449 41.8512C210.262 41.2525 209.906 40.7201 209.425 40.3172C208.944 39.9143 208.358 39.6578 207.736 39.578C207.113 39.4983 206.481 39.5986 205.914 39.8672C207.633 40.375 209.43 43.3047 205.523 44.3984C203.062 45.1016 199.508 44.2031 196.851 42.6016C194.195 41 179.273 35.1797 182.555 39.5547V39.5937Z" fill="white" stroke="black" stroke-width="0.2"/>
<path d="M198.766 36.9766C196.773 37.875 198.062 39.9844 194.977 41.1953C191.852 42.3672 189.664 45.1406 190.367 47.5234C192.477 42.875 196.227 43.1094 197.516 41.2734C198.844 39.4766 200.758 36.8203 198.766 36.9766Z" fill="white" stroke="black" stroke-width="0.2"/>
<path d="M199.313 37.25C199.234 40.9219 196.344 39.5938 197.477 44.75C197.828 46.3516 198.492 48.9688 197.359 51.5859C200.602 49.2422 198.531 44.2813 199.977 42.4063C200.68 41.4688 201.617 40.0625 201.93 38.8906C201.188 40.9609 201.266 44.9062 203.297 45.9219C201.656 42.0156 207.789 38.7734 203.57 34.2031C202.945 35.375 201.031 37.3281 199.352 37.25H199.313ZM189.078 33.5781C189.586 34.3594 190.094 36.2344 189.625 37.3281C190.641 36.7031 192.086 35.1406 192.555 34.0859C194.625 34.3984 195.406 36.9375 193.453 38.0703C194.625 38.0703 196.734 38.0703 197.867 36.7031C196.461 35.1406 192.086 32.7188 189.078 33.5781Z" fill="white" stroke="black" stroke-width="0.2"/>
<path d="M157.789 26.3516C157.244 25.9304 156.597 25.6608 155.914 25.5703C152.867 24.9453 154.469 22.2109 157.047 22.25C162.594 16.1953 165.68 20.8437 172.438 18.9687C174.781 18.2656 176.422 18.4609 177.672 19.0469C180.719 17.0156 184.234 17.5625 186.812 19.9453C187.072 19.4972 187.49 19.1628 187.984 19.0078C190.367 18.3438 192.281 20.3359 192.945 22.9531C194.781 22.6406 196.891 23.5391 198.297 24.7891C200.211 23.8125 201.5 23.7734 202.008 24.7891C203.727 24.0078 205.914 23.4609 207.047 26.1953C208.18 28.9297 204.43 28.1094 203.805 33.8516C203.414 37.3672 199.508 38.7734 196.383 36.6641C191.383 33.2656 186.5 32.7578 184.078 37.8359C181.695 42.9922 179.781 45.9609 173.922 44.2812C172.705 44.0051 171.434 44.0993 170.271 44.5518C169.109 45.0043 168.108 45.7944 167.398 46.8203C165.68 49.1641 163.102 46.9766 159.977 47.2109C163.883 46.625 162.359 45.6484 165.797 45.4141C168.922 45.2187 168.102 42.2891 170.094 41.8984C162.281 43.8906 162.555 40.9609 156.109 42.9922C158.922 39.3594 163.375 41.3906 165.563 39.2812C159.742 39.1641 157.125 35.375 154.508 36.9375C150.406 39.4766 152.164 46.625 141.422 46C136.187 45.7266 132.867 46.3906 129.781 49.5156C135.211 38.2656 142.594 44.4375 146.188 40.8828C148.052 39.2052 149.67 37.2719 150.992 35.1406C151.146 34.8314 151.366 34.5595 151.636 34.3437C151.906 34.1278 152.219 33.9732 152.555 33.8906C143.609 31.0781 149.039 26.6641 157.789 26.3516Z" fill="white" stroke="black" stroke-width="0.2"/>
<path d="M202.008 24.75C202.125 25.0625 202.203 25.4531 202.203 25.9219C202.203 28.1094 198.883 28.1875 198.688 31.4687C198.57 33.1875 198.375 34.125 197.242 33.9297C196.07 33.7344 195.055 31.9375 196.148 29.8281" fill="white"/>
<path d="M202.008 24.75C202.125 25.0625 202.203 25.4531 202.203 25.9219C202.203 28.1094 198.883 28.1875 198.688 31.4687C198.57 33.1875 198.375 34.125 197.242 33.9297C196.07 33.7344 195.055 31.9375 196.148 29.8281" stroke="black" stroke-width="0.2" stroke-linecap="round"/>
<path d="M159.469 23.0703C158.765 22.5552 157.919 22.2688 157.047 22.25L159.469 23.0703ZM177.672 19.0078C180.328 20.1797 181.617 22.9141 185.484 23.0703C189.234 23.1875 191.539 28.6172 197.789 25.0625C197.944 24.9816 198.1 24.9035 198.258 24.8281M186.813 19.9453C186.276 20.9213 186.083 22.0496 186.266 23.1484L186.813 19.9453ZM174.625 31.3516C169.938 31.3516 168.688 33.7344 168.688 36.0391C168.688 38.3828 170.914 41.3906 174.82 41.3906C178.727 41.3906 180.875 38.9687 180.875 36.3516C180.875 33.7344 178.453 31.3125 174.625 31.3125V31.3516Z" fill="white"/>
<path d="M159.469 23.0703C158.765 22.5552 157.919 22.2688 157.047 22.25M177.672 19.0078C180.328 20.1797 181.617 22.9141 185.484 23.0703C189.234 23.1875 191.539 28.6172 197.789 25.0625C197.944 24.9816 198.1 24.9035 198.258 24.8281M186.813 19.9453C186.276 20.9213 186.083 22.0496 186.266 23.1484M174.625 31.3516C169.938 31.3516 168.688 33.7344 168.688 36.0391C168.688 38.3828 170.914 41.3906 174.82 41.3906C178.727 41.3906 180.875 38.9687 180.875 36.3516C180.875 33.7344 178.453 31.3125 174.625 31.3125V31.3516Z" stroke="black" stroke-width="0.2"/>
<path d="M175.484 41.2734C175.406 39.9844 173.023 40.1797 173.141 39.1641C173.219 38.1484 174.43 37.7578 174.43 36.3516C174.43 34.9453 176.539 34.8281 177.242 35.9609C177.945 37.0547 180.055 39.2031 180.523 38.1094M177.242 35.9609C176.597 36.6483 176.225 37.5476 176.196 38.49C176.167 39.4323 176.484 40.3527 177.086 41.0781M178.766 37.6406C178.375 38.4219 178.297 39.5938 178.727 40.2969L178.766 37.6406Z" fill="white"/>
<path d="M175.484 41.2734C175.406 39.9844 173.023 40.1797 173.141 39.1641C173.219 38.1484 174.43 37.7578 174.43 36.3516C174.43 34.9453 176.539 34.8281 177.242 35.9609M177.242 35.9609C177.945 37.0547 180.055 39.2031 180.523 38.1094M177.242 35.9609C176.597 36.6483 176.225 37.5476 176.196 38.49C176.167 39.4323 176.484 40.3527 177.086 41.0781M178.766 37.6406C178.375 38.4219 178.297 39.5938 178.727 40.2969" stroke="black" stroke-width="0.2"/>
<path d="M197.555 33.9688C201.266 34.2813 201.852 30.1797 199.117 29.9453M192.984 22.9922C191.734 21.3516 188.766 20.8047 188.688 24.2422" stroke="black" stroke-width="0.2"/>
<path d="M188.375 28.1875C187.125 25.0625 183.883 24.6328 182.203 26.1953C180.758 27.4844 180.719 30.8828 183.766 31.5859C184.859 30.2969 186.891 28.6562 188.375 28.1875ZM187.008 26.2344C185.172 24.6328 182.516 27.6797 184.938 30.4531L187.008 26.2344ZM152.516 33.8516C153.766 33.5781 155.523 34.1641 158.258 35.4141C159.937 36.2344 165.094 37.9531 168.297 36.2344C164.977 37.4453 162.438 32.4453 159.938 33.0312C157.438 33.6562 152.828 34.5937 150.914 32.7187C155.602 33.0312 158.141 29.2812 163.57 32.5234C165.105 33.4753 166.882 33.9636 168.687 33.9297C164.273 28.6172 158.453 32.0156 157.828 27.6797C160.484 30.5703 167.008 27.0547 170.328 32.4062M158.805 28.5C158.18 27.7187 158.414 26.9375 157.789 26.3516L158.805 28.5Z" fill="white"/>
<path d="M187.008 26.2344C185.172 24.6328 182.516 27.6797 184.937 30.4531M152.516 33.8516C153.766 33.5781 155.523 34.1641 158.258 35.4141C159.937 36.2344 165.094 37.9531 168.297 36.2344C164.977 37.4453 162.438 32.4453 159.938 33.0312C157.438 33.6562 152.828 34.5937 150.914 32.7187C155.602 33.0312 158.141 29.2812 163.57 32.5234C165.105 33.4753 166.882 33.9636 168.687 33.9297C164.273 28.6172 158.453 32.0156 157.828 27.6797C160.484 30.5703 167.008 27.0547 170.328 32.4062M158.805 28.5C158.18 27.7187 158.414 26.9375 157.789 26.3516M188.375 28.1875C187.125 25.0625 183.883 24.6328 182.203 26.1953C180.758 27.4844 180.719 30.8828 183.766 31.5859C184.859 30.2969 186.891 28.6562 188.375 28.1875Z" stroke="black" stroke-width="0.2"/>
<path d="M192.984 22.9922C191.891 21.8203 189.469 22.7188 190.172 25.1016C190.427 24.5396 190.818 24.0495 191.309 23.6747C191.799 23.2999 192.375 23.052 192.984 22.9531V22.9922ZM186.148 29.4375C186.821 28.9077 187.572 28.486 188.375 28.1875C188.068 27.3915 187.556 26.6908 186.891 26.1563C186.305 25.7656 184.664 27.9922 186.148 29.3984V29.4375Z" fill="black"/>
<path d="M183.18 25.3359C181.383 24.125 179.703 24.2422 179.156 25.2187C177.867 25.2187 176.774 26.1562 176.734 28.0312M179.508 28.8516C177.359 27.3672 174.391 27.9141 174.586 31.2344M173.258 33.1484C174.313 32.2891 175.836 31.6641 177.008 33.1484M189.43 29.8672C189.039 30.4141 188.727 31.2734 189.391 32.6016C188.609 31.5078 186.578 31.5078 184.391 34.3203M194.195 29.7109C191.578 30.0234 191.656 31.7422 193.766 32.4453M175.602 23.3047C173.375 22.875 171.774 24.1641 174.82 25.2578M179.82 21.8203C176.695 21.0391 175.445 21.8594 176.852 22.6016M170.797 34.3203C170.719 35.4531 171.305 36.8984 173.141 35.2578M171.422 37.6406C171.422 37.9531 171.383 38.3047 171.149 38.5781M164.156 22.9531C162.242 22.3672 161.891 20.6094 164.156 20.7656M163.531 27.0156C161.422 26.2734 161.422 24.2422 163.141 24.4375M167.438 25.9219C164.977 25.3359 164.899 23.6172 166.734 23.8906M167.75 20.6875C166.422 20.6094 164.43 22.0547 167.789 22.9141M171.422 23.6172C168.336 23.1875 168.414 24.3984 170.211 25.2187M173.727 20.6875C171.383 20.2578 170.563 21.6641 172.164 22.25M166.305 29.3984C165.719 28.9297 165.25 26.6641 167.984 27.3281M172.008 28.6953C170.172 28.1875 168.414 30.0234 170.094 31.0391M174.469 26.5469C172.516 26.1562 170.875 26.7422 171.93 27.4453" stroke="black" stroke-width="0.2" stroke-linecap="round"/>
<path d="M192.906 22.9922C192.315 23.0989 191.758 23.3463 191.282 23.7134C190.806 24.0805 190.425 24.5566 190.172 25.1016" fill="white"/>
<path d="M192.906 22.9922C192.315 23.0989 191.758 23.3463 191.282 23.7134C190.806 24.0805 190.425 24.5566 190.172 25.1016" stroke="black" stroke-width="0.2"/>
</g>
</g>
<defs>
<filter id="filter0_d_202_14840" x="0" y="0" width="258" height="158" filterUnits="userSpaceOnUse" color-interpolation-filters="sRGB">
<feFlood flood-opacity="0" result="BackgroundImageFix"/>
<feColorMatrix in="SourceAlpha" type="matrix" values="0 0 0 0 0 0 0 0 0 0 0 0 0 0 0 0 0 0 127 0" result="hardAlpha"/>
<feOffset dy="4"/>
<feGaussianBlur stdDeviation="2"/>
<feComposite in2="hardAlpha" operator="out"/>
<feColorMatrix type="matrix" values="0 0 0 0 0 0 0 0 0 0 0 0 0 0 0 0 0 0 0.25 0"/>
<feBlend mode="normal" in2="BackgroundImageFix" result="effect1_dropShadow_202_14840"/>
<feBlend mode="normal" in="SourceGraphic" in2="effect1_dropShadow_202_14840" result="shape"/>
</filter>
</defs>
</svg>
