<svg width="32" height="32" viewBox="0 0 32 32" fill="none" xmlns="http://www.w3.org/2000/svg">
<path fill-rule="evenodd" clip-rule="evenodd" d="M15.9989 8.60645C23.9115 8.60645 30.3259 15.1857 30.3259 23.3016H27.8079C27.8079 16.6121 22.5209 11.1891 15.9989 11.1891C9.47692 11.1891 4.1898 16.6121 4.1898 23.3016H1.67188C1.67188 15.1857 8.08629 8.60645 15.9989 8.60645ZM15.9988 13.1901C21.4433 13.1901 25.8569 17.7172 25.8569 23.3016H23.339C23.339 19.1435 20.0527 15.7728 15.9988 15.7728C11.9449 15.7728 8.65856 19.1435 8.65856 23.3016H6.14062C6.14062 17.7172 10.5543 13.1901 15.9988 13.1901ZM21.5911 23.3016C21.5911 20.1337 19.0873 17.5655 15.9987 17.5655C12.9101 17.5655 10.4062 20.1337 10.4062 23.3016H12.9242C12.9242 21.56 14.3007 20.1481 15.9987 20.1481C17.6966 20.1481 19.0731 21.56 19.0731 23.3016H21.5911Z" fill="#00FF90"/>
</svg>
