<svg width="40" height="21" viewBox="0 0 40 21" fill="none" xmlns="http://www.w3.org/2000/svg">
<path d="M20 0.486084C31.0457 0.486084 40 9.67049 40 21.0001H36.4851C36.4851 11.6616 29.1045 4.09134 20 4.09134C10.8956 4.09134 3.51494 11.6616 3.51494 21.0001H0C0 9.67049 8.95431 0.486084 20 0.486084Z" fill="#00FF90"/>
<path d="M20 6.88468C27.6003 6.88468 33.7616 13.2043 33.7616 21H30.2467C30.2467 15.1955 25.6591 10.49 20 10.49C14.3409 10.49 9.75328 15.1955 9.75328 21H6.23833C6.23833 13.2043 12.3997 6.88468 20 6.88468Z" fill="#00FF90"/>
<path d="M27.8066 21.0001C27.8066 16.5778 24.3113 12.9927 19.9998 12.9927C15.6882 12.9927 12.1929 16.5778 12.1929 21.0001H15.7079C15.7079 18.5689 17.6295 16.598 19.9998 16.598C22.3701 16.598 24.2916 18.5689 24.2916 21.0001H27.8066Z" fill="#00FF90"/>
</svg>
