<svg width="976" height="976" viewBox="0 0 976 976" fill="none" xmlns="http://www.w3.org/2000/svg">
<path fill-rule="evenodd" clip-rule="evenodd" d="M487.946 402.299C654.003 402.299 788.619 540.375 788.619 710.7H711.822C711.822 583.879 611.589 481.07 487.946 481.07C364.302 481.07 264.069 583.879 264.069 710.7H187.272C187.272 540.375 321.889 402.299 487.946 402.299Z" fill="#00FF90"/>
<path fill-rule="evenodd" clip-rule="evenodd" d="M487.946 262.497C729.28 262.497 924.919 463.164 924.919 710.7H848.122C848.122 506.668 686.866 341.267 487.946 341.267C289.026 341.267 127.769 506.668 127.769 710.7H50.9722C50.9722 463.164 246.612 262.497 487.946 262.497Z" fill="#00FF90"/>
<path fill-rule="evenodd" clip-rule="evenodd" d="M487.946 535.748C582.148 535.748 658.514 614.077 658.514 710.699H581.717C581.717 657.58 539.734 614.518 487.946 614.518C436.158 614.518 394.174 657.58 394.174 710.699H317.377C317.377 614.077 393.744 535.748 487.946 535.748Z" fill="#00FF90"/>
</svg>
