<svg width="216" height="68" viewBox="0 0 216 68" fill="none" xmlns="http://www.w3.org/2000/svg">
<path d="M11.2607 0H216L204.739 68H0L11.2607 0Z" fill="white" fill-opacity="0.04"/>
<path fill-rule="evenodd" clip-rule="evenodd" d="M54.9967 28.7314C65.2051 28.7314 73.4807 37.2197 73.4807 47.6905H68.7595C68.7595 39.8941 62.5977 33.5739 54.9967 33.5739C47.3956 33.5739 41.2338 39.8941 41.2338 47.6905H36.5126C36.5126 37.2197 44.7882 28.7314 54.9967 28.7314Z" fill="#00FF90"/>
<path fill-rule="evenodd" clip-rule="evenodd" d="M54.9967 20.1372C69.8328 20.1372 81.8598 32.4733 81.8598 47.6907H77.1386C77.1386 35.1477 67.2254 24.9796 54.9967 24.9796C42.768 24.9796 32.8546 35.1477 32.8546 47.6907H28.1335C28.1335 32.4733 40.1606 20.1372 54.9967 20.1372Z" fill="#00FF90"/>
<path fill-rule="evenodd" clip-rule="evenodd" d="M54.9967 36.9355C60.7878 36.9355 65.4824 41.7509 65.4824 47.6908H60.7613C60.7613 44.4253 58.1804 41.778 54.9967 41.778C51.813 41.778 49.232 44.4253 49.232 47.6908H44.5109C44.5109 41.7509 49.2056 36.9355 54.9967 36.9355Z" fill="#00FF90"/>
<path d="M95.528 34.56L103.03 22.042H96.364V19.27H108.068V19.688L100.72 32.206H107.804V35H95.528V34.56ZM114.557 19.27H119.199L124.303 35H120.585L119.507 31.502H113.809L112.731 35H109.387L114.557 19.27ZM114.579 28.972H118.737L116.669 22.174L114.579 28.972ZM131.91 35.242C129.813 35.242 128.214 34.7727 127.114 33.834C126.073 32.9393 125.508 31.6853 125.42 30.072H128.83C128.933 30.908 129.175 31.5093 129.556 31.876C130.069 32.3893 130.854 32.646 131.91 32.646C132.702 32.646 133.333 32.4553 133.802 32.074C134.271 31.678 134.506 31.172 134.506 30.556C134.506 29.9547 134.301 29.5 133.89 29.192C133.435 28.9133 132.651 28.686 131.536 28.51C129.468 28.246 128.023 27.762 127.202 27.058C126.307 26.3687 125.86 25.2613 125.86 23.736C125.86 22.4013 126.381 21.2793 127.422 20.37C128.493 19.49 129.879 19.05 131.58 19.05C133.369 19.05 134.763 19.446 135.76 20.238C136.757 21.03 137.329 22.2033 137.476 23.758H134.198C134.007 22.3647 133.135 21.668 131.58 21.668C130.817 21.668 130.231 21.8293 129.82 22.152C129.424 22.4747 129.226 22.9073 129.226 23.45C129.226 24.0513 129.417 24.4767 129.798 24.726C130.194 25.034 130.979 25.276 132.152 25.452C134.147 25.7013 135.584 26.1487 136.464 26.794C137.432 27.5273 137.916 28.6713 137.916 30.226C137.916 31.678 137.381 32.8587 136.31 33.768C135.181 34.7507 133.714 35.242 131.91 35.242ZM144.141 19.27H148.783L153.887 35H150.169L149.091 31.502H143.393L142.315 35H138.971L144.141 19.27ZM144.163 28.972H148.321L146.253 22.174L144.163 28.972ZM161.332 32.228C164.442 32.228 165.996 30.5487 165.996 27.19V27.014C165.996 25.3567 165.615 24.1173 164.852 23.296C164.104 22.46 162.916 22.042 161.288 22.042H159.88V32.228H161.332ZM156.316 19.27H161.464C164.148 19.27 166.216 19.9593 167.668 21.338C169.032 22.702 169.714 24.5793 169.714 26.97V27.146C169.714 29.566 169.025 31.4653 167.646 32.844C166.209 34.2813 164.141 35 161.442 35H156.316V19.27ZM175.616 19.27H180.258L185.362 35H181.644L180.566 31.502H174.868L173.79 35H170.446L175.616 19.27ZM175.638 28.972H179.796L177.728 22.174L175.638 28.972Z" fill="white"/>
<path opacity="0.2" d="M99.92 49.132C98.544 49.132 97.468 48.72 96.692 47.896C95.932 47.12 95.552 46.076 95.552 44.764V44.668C95.552 43.372 95.964 42.32 96.788 41.512C97.604 40.696 98.648 40.288 99.92 40.288C100.952 40.288 101.8 40.52 102.464 40.984C103.224 41.528 103.648 42.296 103.736 43.288H101.804C101.628 42.312 101.008 41.824 99.944 41.824C99.2 41.824 98.62 42.08 98.204 42.592C97.788 43.104 97.58 43.804 97.58 44.692V44.788C97.58 45.668 97.768 46.348 98.144 46.828C98.544 47.364 99.152 47.632 99.968 47.632C100.648 47.632 101.168 47.452 101.528 47.092C101.848 46.78 102.016 46.356 102.032 45.82H100.1V44.404H103.952V45.316C103.952 46.476 103.6 47.396 102.896 48.076C102.176 48.78 101.184 49.132 99.92 49.132ZM107.167 40.42H109.699L112.483 49H110.455L109.867 47.092H106.759L106.171 49H104.347L107.167 40.42ZM107.179 45.712H109.447L108.319 42.004L107.179 45.712ZM113.809 40.42H116.377L118.381 45.76L120.361 40.42H122.881V49H120.949V42.976L118.573 49H117.937L115.549 42.976V49H113.809V40.42ZM124.883 40.42H130.475V41.932H126.815V43.936H129.743V45.352H126.815V47.488H130.667V49H124.883V40.42ZM132.172 40.42H135.244C136.284 40.42 137.088 40.632 137.656 41.056C138.256 41.504 138.556 42.16 138.556 43.024V43.072C138.556 43.696 138.388 44.2 138.052 44.584C137.74 44.944 137.32 45.2 136.792 45.352L139.06 49H136.996L134.944 45.688H134.104V49H132.172V40.42ZM135.196 44.368C136.172 44.368 136.66 43.956 136.66 43.132V43.084C136.66 42.66 136.54 42.36 136.3 42.184C136.06 42 135.692 41.908 135.196 41.908H134.104V44.368H135.196ZM143.035 40.42H144.979V47.476H148.471V49H143.035V40.42ZM149.902 40.42H155.494V41.932H151.834V43.936H154.762V45.352H151.834V47.488H155.686V49H149.902V40.42ZM159.339 40.42H161.871L164.655 49H162.627L162.039 47.092H158.931L158.343 49H156.519L159.339 40.42ZM159.351 45.712H161.619L160.491 42.004L159.351 45.712ZM169.424 49.132C168.048 49.132 166.972 48.72 166.196 47.896C165.436 47.12 165.056 46.076 165.056 44.764V44.668C165.056 43.372 165.468 42.32 166.292 41.512C167.108 40.696 168.152 40.288 169.424 40.288C170.456 40.288 171.304 40.52 171.968 40.984C172.728 41.528 173.152 42.296 173.24 43.288H171.308C171.132 42.312 170.512 41.824 169.448 41.824C168.704 41.824 168.124 42.08 167.708 42.592C167.292 43.104 167.084 43.804 167.084 44.692V44.788C167.084 45.668 167.272 46.348 167.648 46.828C168.048 47.364 168.656 47.632 169.472 47.632C170.152 47.632 170.672 47.452 171.032 47.092C171.352 46.78 171.52 46.356 171.536 45.82H169.604V44.404H173.456V45.316C173.456 46.476 173.104 47.396 172.4 48.076C171.68 48.78 170.688 49.132 169.424 49.132ZM178.472 49.132C177.328 49.132 176.452 48.836 175.844 48.244C175.236 47.652 174.932 46.788 174.932 45.652V40.42H176.888V45.532C176.888 46.26 177.008 46.784 177.248 47.104C177.488 47.424 177.9 47.584 178.484 47.584C179.068 47.584 179.488 47.424 179.744 47.104C180.008 46.784 180.14 46.236 180.14 45.46V40.42H182.096V45.58C182.096 46.748 181.784 47.632 181.16 48.232C180.544 48.832 179.648 49.132 178.472 49.132ZM184.016 40.42H189.608V41.932H185.948V43.936H188.876V45.352H185.948V47.488H189.8V49H184.016V40.42Z" fill="white"/>
</svg>
