<svg width="40" height="40" viewBox="0 0 40 40" fill="none" xmlns="http://www.w3.org/2000/svg">
<path fill-rule="evenodd" clip-rule="evenodd" d="M9.84391 35C13.9859 35 17.3439 31.6422 17.3439 27.5V24.0625H22.6564V27.5C22.6564 31.6422 26.0939 35 30.1564 35C34.2189 35 4.59703 35 9.84391 35Z" fill="#FCC402"/>
<path fill-rule="evenodd" clip-rule="evenodd" d="M30.1562 40H9.84375C8.46297 40 7.34375 38.8806 7.34375 37.5C7.34375 36.1192 8.46297 35 9.84375 35C11.2948 35 28.7463 35 30.1562 35C31.5369 35 32.6562 36.1192 32.6562 37.5C32.6562 38.8806 31.5369 40 30.1562 40Z" fill="#FCE202"/>
<path fill-rule="evenodd" clip-rule="evenodd" d="M38.75 9.6875H36.875C33.9409 9.6875 31.4062 12.0659 31.4062 15H30.4688V9.6875C30.9031 7.54797 32.7322 5.9375 35 5.9375H38.75C39.4403 5.9375 40 6.49719 40 7.1875V8.4375C40 9.12781 39.4403 9.6875 38.75 9.6875ZM3.125 9.6875H1.25C0.559687 9.6875 0 9.12781 0 8.4375V7.1875C0 6.49719 0.559687 5.9375 1.25 5.9375H5C7.26766 5.9375 9.09688 7.54797 9.53125 9.6875V15H8.59375C8.59375 12.0659 6.05906 9.6875 3.125 9.6875Z" fill="#FCE202"/>
<path fill-rule="evenodd" clip-rule="evenodd" d="M8.4375 5H31.5625V15.3125C31.5625 21.6983 26.3858 26.875 20 26.875C13.6142 26.875 8.4375 21.6983 8.4375 15.3125V5Z" fill="url(#paint0_linear_248_38488)"/>
<path fill-rule="evenodd" clip-rule="evenodd" d="M8.125 0H31.875C32.5653 0 33.125 0.559687 33.125 1.25V2.5C33.125 3.19031 32.5653 3.75 31.875 3.75H8.125C7.43469 3.75 6.875 3.19031 6.875 2.5V1.25C6.875 0.559687 7.43469 0 8.125 0Z" fill="#FCC402"/>
<path fill-rule="evenodd" clip-rule="evenodd" d="M25.4462 14.117C24.5603 15.0395 23.4162 16.285 23.4162 16.285C23.4162 16.285 23.6126 17.8367 23.7662 19.0848C23.9253 20.3762 23.2087 20.2583 22.4298 19.9073C21.3076 19.4017 19.9999 18.7675 19.9999 18.7675C19.9999 18.7675 18.6923 19.4017 17.5701 19.9073C16.7912 20.2583 16.0745 20.3762 16.2335 19.0848C16.3873 17.8367 16.5837 16.285 16.5837 16.285C16.5837 16.285 15.4396 15.0395 14.5537 14.117C14.1049 13.6498 13.9846 13.0131 14.9435 12.8336C16.2037 12.5975 17.8885 12.2677 17.8885 12.2677C17.8885 12.2677 18.6129 10.6189 19.2595 9.49766C19.5915 8.92172 20.4084 8.92172 20.7404 9.49766C21.387 10.6189 22.1114 12.2677 22.1114 12.2677C22.1114 12.2677 23.7962 12.5975 25.0563 12.8336C26.0151 13.0131 25.8949 13.6498 25.4462 14.117Z" fill="white"/>
<defs>
<linearGradient id="paint0_linear_248_38488" x1="20" y1="26.875" x2="20" y2="5" gradientUnits="userSpaceOnUse">
<stop stop-color="#FC9502"/>
<stop offset="1" stop-color="#FCBE02"/>
</linearGradient>
</defs>
</svg>
