<svg width="29" height="32" viewBox="0 0 29 32" fill="none" xmlns="http://www.w3.org/2000/svg">
<path d="M17.95 18.6C17.4 18.6 16.85 18.55 16.65 18.15C16.4 17.7 16.7 17.3 17.05 16.75C17.6 15.95 18.45 14.6 18.45 12.5C18.45 7.8 20.65 4.1 23.45 4.1H23.7C24.55 4.1 26.15 4.05 27.3 5.15C28.05 5.9 28.45 7.05 28.45 8.55C28.45 13.25 20.5 18.6 17.95 18.6ZM17.7 17.6H17.95C20.15 17.6 27.45 12.55 27.45 8.55C27.45 7.3 27.15 6.4 26.6 5.85C25.8 5.05 24.5 5.1 23.75 5.1H23.45C21.3 5.1 19.45 8.5 19.45 12.5C19.45 14.9 18.45 16.4 17.9 17.3C17.85 17.4 17.75 17.5 17.7 17.6ZM10.5 18.6C7.95 18.6 0 13.25 0 8.55C0 7.05 0.399999 5.95 1.15 5.15C2.3 4.05 3.95 4.05 4.75 4.1H5C7.8 4.1 10 7.8 10 12.5C10 14.6 10.9 15.95 11.4 16.75C11.75 17.3 12.05 17.75 11.8 18.15C11.6 18.55 11.05 18.6 10.5 18.6ZM4.35 5.1C3.6 5.1 2.55 5.2 1.85 5.9C1.3 6.45 1 7.35 1 8.55C1 12.6 8.3 17.6 10.5 17.6H10.75C10.7 17.5 10.6 17.4 10.55 17.3C10 16.4 9 14.85 9 12.5C9 8.5 7.15 5.1 5 5.1H4.35Z" fill="#231C1C"/>
<path d="M12.9502 19.6H15.9502V26.1H12.9502V19.6Z" fill="#C89005"/>
<path d="M15.9502 26.6H12.9502C12.6502 26.6 12.4502 26.4 12.4502 26.1V19.6C12.4502 19.3 12.6502 19.1 12.9502 19.1H15.9502C16.2502 19.1 16.4502 19.3 16.4502 19.6V26.1C16.4502 26.4 16.2502 26.6 15.9502 26.6ZM13.4502 25.6H15.4502V20.1H13.4502V25.6Z" fill="#231C1C"/>
<path d="M25.4502 1.6C25.4502 2.15 25.0502 2.6 24.5502 2.6H4.3502C3.8502 2.6 3.4502 2.15 3.4502 1.6C3.4502 1.05 3.8502 0.6 4.3502 0.6H24.6002C25.0502 0.6 25.4502 1.05 25.4502 1.6Z" fill="#F8F4BC"/>
<path d="M24.6002 3.1H4.3502C3.6002 3.1 2.9502 2.45 2.9502 1.6C2.9502 0.75 3.5502 0.0999999 4.3502 0.0999999H24.6002C25.3502 0.0999999 26.0002 0.75 26.0002 1.6C26.0002 2.45 25.3502 3.1 24.6002 3.1ZM4.3502 1.1C4.1502 1.1 3.9502 1.35 3.9502 1.6C3.9502 1.85 4.1002 2.1 4.3502 2.1H24.6002C24.8002 2.1 25.0002 1.85 25.0002 1.6C25.0002 1.35 24.8502 1.1 24.6002 1.1H4.3502Z" fill="#231C1C"/>
<path d="M24 2.6C24 17.6 19.75 21.1 14.5 21.1C9.25 21.1 5 17.1 5 2.6H24Z" fill="#FAC546"/>
<path d="M14.5 21.6C7.75 21.6 4.5 15.4 4.5 2.6C4.5 2.3 4.7 2.1 5 2.1H24C24.3 2.1 24.5 2.3 24.5 2.6C24.5 15.55 21.35 21.6 14.5 21.6ZM5.45 3.1C5.55 14.85 8.5 20.6 14.45 20.6C18.6 20.6 23.35 18.6 23.45 3.1H5.45Z" fill="#231C1C"/>
<path d="M20.0002 30.1H8.90023C8.90023 27.3 8.45023 25.05 14.4502 25.05C20.4502 25.05 20.0002 27.3 20.0002 30.1Z" fill="#FAC546"/>
<path d="M19.9998 30.6H8.89983C8.59983 30.6 8.39983 30.4 8.39983 30.1V29.55C8.39983 28.15 8.34983 26.8 9.34983 25.85C10.2498 24.95 11.8998 24.5 14.4998 24.5C17.0998 24.5 18.7498 24.9 19.6498 25.85C20.5998 26.8 20.5998 28.15 20.5998 29.55V30.1C20.4998 30.4 20.2998 30.6 19.9998 30.6ZM9.39983 29.6H19.5498V29.55C19.5498 28.25 19.5498 27.25 18.8998 26.55C18.1998 25.85 16.7498 25.5 14.4998 25.5C12.2498 25.5 10.7498 25.85 10.0998 26.55C9.34983 27.25 9.39983 28.25 9.39983 29.6Z" fill="#231C1C"/>
<path d="M21.4502 30.1C21.4502 30.65 21.0502 31.1 20.5502 31.1H8.35019C7.85019 31.1 7.4502 30.65 7.4502 30.1C7.4502 29.55 7.85019 29.1 8.35019 29.1H20.6002C21.0502 29.1 21.4502 29.55 21.4502 30.1Z" fill="#F8F4BC"/>
<path d="M20.6002 31.6H8.3502C7.6002 31.6 6.9502 30.95 6.9502 30.1C6.9502 29.25 7.5502 28.6 8.3502 28.6H20.6002C21.3502 28.6 22.0002 29.25 22.0002 30.1C22.0002 30.95 21.3502 31.6 20.6002 31.6ZM8.3502 29.6C8.1502 29.6 7.9502 29.85 7.9502 30.1C7.9502 30.35 8.1002 30.6 8.3502 30.6H20.6002C20.8002 30.6 21.0002 30.35 21.0002 30.1C21.0002 29.85 20.8502 29.6 20.6002 29.6H8.3502Z" fill="#231C1C"/>
</svg>
