<svg width="34" height="34" viewBox="0 0 34 34" fill="none" xmlns="http://www.w3.org/2000/svg">
<path opacity="0.4" d="M27 31.1667H25.3333V30.75C25.3333 28.9167 23.8333 27.4167 22 27.4167H18.25V23.6C17.8333 23.65 17.4167 23.6667 17 23.6667C16.5833 23.6667 16.1667 23.65 15.75 23.6V27.4167H12C10.1667 27.4167 8.66667 28.9167 8.66667 30.75V31.1667H7C6.31667 31.1667 5.75 31.7333 5.75 32.4167C5.75 33.1 6.31667 33.6667 7 33.6667H27C27.6833 33.6667 28.25 33.1 28.25 32.4167C28.25 31.7333 27.6833 31.1667 27 31.1667Z" fill="#292D32"/>
<path opacity="0.4" d="M6.19883 16.4C5.09883 15.9833 4.13216 15.3 3.36549 14.5333C1.81549 12.8167 0.798828 10.7667 0.798828 8.36667C0.798828 5.96667 2.68216 4.08333 5.08216 4.08333H6.01549C5.58216 4.96667 5.33216 5.95 5.33216 7V12C5.33216 13.5667 5.63216 15.05 6.19883 16.4Z" fill="#292D32"/>
<path opacity="0.4" d="M33.2008 8.36667C33.2008 10.7667 32.1841 12.8167 30.6341 14.5333C29.8674 15.3 28.9008 15.9833 27.8008 16.4C28.3674 15.05 28.6674 13.5667 28.6674 12V7C28.6674 5.95 28.4174 4.96667 27.9841 4.08333H28.9174C31.3174 4.08333 33.2008 5.96667 33.2008 8.36667Z" fill="#292D32"/>
<path d="M22.0002 0.333334H12.0002C8.31683 0.333334 5.3335 3.31667 5.3335 7V12C5.3335 18.45 10.5502 23.6667 17.0002 23.6667C23.4502 23.6667 28.6668 18.45 28.6668 12V7C28.6668 3.31667 25.6835 0.333334 22.0002 0.333334ZM21.7335 11.0833L20.7002 12.35C20.5335 12.5333 20.4168 12.9 20.4335 13.15L20.5335 14.7833C20.6002 15.7833 19.8835 16.3 18.9502 15.9333L17.4335 15.3333C17.2002 15.25 16.8002 15.25 16.5668 15.3333L15.0502 15.9333C14.1168 16.3 13.4002 15.7833 13.4668 14.7833L13.5668 13.15C13.5835 12.9 13.4668 12.5333 13.3002 12.35L12.2668 11.0833C11.6168 10.3167 11.9002 9.46667 12.8668 9.21667L14.4502 8.81667C14.7002 8.75 15.0002 8.51667 15.1335 8.3L16.0168 6.93333C16.5668 6.08333 17.4335 6.08333 17.9835 6.93333L18.8668 8.3C19.0002 8.51667 19.3002 8.75 19.5502 8.81667L21.1335 9.21667C22.1002 9.46667 22.3835 10.3167 21.7335 11.0833Z" fill="#292D32"/>
<path opacity="0.4" d="M21.733 11.0831L20.6997 12.3498C20.533 12.5332 20.4163 12.8998 20.433 13.1498L20.533 14.7832C20.5997 15.7832 19.883 16.2998 18.9497 15.9332L17.433 15.3332C17.1997 15.2498 16.7997 15.2498 16.5663 15.3332L15.0497 15.9332C14.1163 16.2998 13.3997 15.7832 13.4664 14.7832L13.5664 13.1498C13.5831 12.8998 13.4664 12.5332 13.2997 12.3498L12.2664 11.0831C11.6164 10.3165 11.8997 9.46648 12.8664 9.21648L14.4497 8.81648C14.6997 8.74982 14.9997 8.51648 15.133 8.29982L16.0163 6.93315C16.5663 6.08315 17.433 6.08315 17.983 6.93315L18.8663 8.29982C18.9997 8.51648 19.2997 8.74982 19.5497 8.81648L21.133 9.21648C22.0997 9.46648 22.383 10.3165 21.733 11.0831Z" fill="#292D32"/>
</svg>
