<svg width="80" height="80" viewBox="0 0 80 80" fill="none" xmlns="http://www.w3.org/2000/svg">
<g clip-path="url(#clip0_139_3790)">
<path d="M54.4803 29.7237C53.2199 28.3722 49.2095 30.303 46.6123 33.2763C44.3588 35.8634 42.9456 39.6863 42.9456 39.6863C43.5185 39.609 47.5289 37.6397 51.081 34.8209C52.4178 33.7396 55.7408 31.0752 54.4803 29.7237ZM52.647 72.9334C48.331 74.5552 41.3032 75.8295 34.8865 74.1304C33.4733 73.7443 32.442 73.3581 31.6782 73.0106C39.1643 79.6909 46.4595 82.5484 51.0428 79.9998C56.963 76.679 62.272 70.964 66.1297 64.052C62.3102 68.5313 57.0394 71.2729 52.647 72.9334ZM46.8796 48.7221C45.5046 48.4132 43.824 52.7766 45.5428 53.2013C45.7338 53.24 46.0011 53.2786 46.2685 53.24C47.1088 53.2013 47.9873 53.0083 48.7893 52.738C48.6748 50.1508 47.9873 48.9924 46.8796 48.7221ZM35.574 30.5733C37.5219 31.6158 37.2164 34.4347 37.9421 36.8674C38.6296 39.3387 40.6539 39.5318 40.6539 39.5318C40.6539 39.5318 44.7789 31.5 41.265 25.0128C37.7511 18.5255 31.9455 20.7652 30.4941 21.4988C28.5462 22.4256 21.0219 27.3296 17.2406 37.6397C13.4975 47.8339 18.883 51.3092 22.2059 51.8884C25.5288 52.4677 30.6087 49.0696 30.7997 47.3319C30.8761 46.4052 30.2268 45.826 29.2337 45.5943C28.2406 45.3626 25.5288 45.9418 23.8101 43.8953C21.7094 41.3467 25.3379 35.709 27.3622 33.7396C29.4247 31.6545 32.5184 28.9901 35.574 30.5733ZM53.9838 58.2212C54.4422 57.7192 55.8554 56.3291 56.3519 55.8658C56.4283 55.7885 56.581 55.7885 56.6574 55.9044C57.1158 56.4063 58.4908 57.7192 58.9873 58.2212C59.0637 58.3371 59.0637 58.4915 58.9873 58.5688C58.4908 59.0708 57.154 60.4223 56.6574 60.9242C56.581 61.0015 56.4283 61.0015 56.3519 60.9242C55.8554 60.4223 54.5185 59.0708 53.9838 58.5688C53.9456 58.4529 53.9456 58.2985 53.9838 58.2212ZM40.3102 49.4944C39.8136 49.9963 38.4386 51.3478 37.9803 51.8498C37.9039 51.9271 37.7511 51.9271 37.6747 51.8498C37.1782 51.3478 35.8032 49.9963 35.3066 49.4944C35.2303 49.3785 35.2303 49.2627 35.3066 49.1854C35.765 48.6834 37.1782 47.2933 37.6747 46.83C37.7511 46.7527 37.9039 46.7527 37.9803 46.83C38.4386 47.3319 39.8136 48.6448 40.3102 49.1468C40.3865 49.2241 40.3865 49.4171 40.3102 49.4944ZM54.3658 20.2632C53.8692 20.7652 52.4942 22.1167 52.0359 22.6187C51.9595 22.6959 51.8067 22.6959 51.7303 22.6187C51.2338 22.1167 49.8588 20.7652 49.3623 20.2632C49.2859 20.1473 49.2859 20.0315 49.3623 19.9543C49.8206 19.4523 51.2338 18.0622 51.7303 17.5988C51.8067 17.5215 51.9595 17.5215 52.0359 17.5988C52.4942 18.1008 53.8692 19.4137 54.3658 19.9156C54.4422 20.0315 54.4422 20.1859 54.3658 20.2632ZM51.463 69.0333C61.0116 65.5194 63.9908 60.2292 66.1297 56.5608C70.6749 48.7993 70.7894 40.0724 70.4075 37.5625V37.4466C70.1783 35.3228 69.5672 33.199 69.1089 33.199C67.1227 33.0832 64.4109 47.3706 62.845 55.2865C62.6922 56.0974 62.5776 56.9083 62.1193 57.7579C61.7373 58.4529 61.5464 58.7232 61.3172 58.9935C61.0498 59.3024 60.5915 59.6114 60.7061 59.0321C64.2964 39.8021 66.588 29.492 68.6887 25.3217C68.9179 24.8583 69.1471 24.588 69.4144 24.4722C69.0325 23.5454 68.5741 22.6573 68.0776 21.7691C56.8484 1.18761 26.942 -3.90951 10.251 5.39659C2.99401 9.45111 3.64331 28.7198 13.3447 48.2587C12.4281 42.7754 13.6885 37.91 16.3621 32.2723C19.9906 24.6652 31.5636 13.6601 40.3102 17.0582C47.7581 19.9543 44.8935 31.7703 44.8935 31.7703C44.8935 31.7703 50.0498 24.7811 54.1748 24.588C56.3519 24.4722 60.0568 26.094 55.588 33.4693C50.3553 42.119 41.6088 45.9804 38.515 44.2042C35.8032 42.621 35.765 39.5318 35.6122 38.7209C35.4212 37.91 35.0011 35.1298 32.4803 34.9367C29.9594 34.7436 25.4524 38.2575 26.0254 39.8407C26.5219 41.1922 29.8448 40.111 31.3726 41.0764C32.9004 42.0418 33.5115 43.5091 32.9386 46.0577C31.2962 53.7033 24.9941 58.2598 20.6399 57.2173C19.6087 56.947 18.5774 56.5608 17.6607 55.9816C19.0357 58.1826 20.4489 60.2292 21.8621 62.1985L23.1608 59.9589C23.199 59.8816 23.2753 59.843 23.3517 59.843C25.9108 59.9589 28.9663 58.9163 30.4177 57.7579C29.3101 61.4649 27.7823 63.859 22.7406 63.357C22.7788 63.4342 22.8552 63.5114 22.8934 63.55C23.8483 64.0134 24.9559 64.5154 26.2545 65.0174C33.7789 67.9135 40.5011 64.052 41.6852 63.2797C42.64 62.6619 46.4595 60.3836 48.0637 57.2945C47.4525 57.3717 46.8032 57.4103 46.1539 57.4103C45.6574 57.3717 45.199 57.3331 45.0463 57.3331C44.2824 57.2945 40.3483 56.6767 42.9074 50.6528C43.3657 49.5716 45.0845 45.4012 47.5671 46.328C48.2928 46.5983 50.1262 47.2933 50.7373 50.228C50.8519 50.73 50.9282 51.1934 50.9664 51.6954C53.2963 50.228 55.1297 47.8725 55.588 45.2854C56.0081 42.814 55.4734 41.5398 54.7859 41.4239C53.8692 41.2695 52.1887 45.9418 51.9213 45.826C51.6539 45.6715 51.9213 45.0537 52.1505 44.32C53.7547 38.7981 56.1227 36.713 56.9248 36.713C57.7269 36.713 58.7963 39.2615 58.7963 42.621C58.7963 47.9498 55.7026 54.0895 50.89 56.4063C50.4699 58.8777 49.5151 61.0401 48.331 62.5461C45.0845 66.7164 38.0948 71.0413 29.1955 68.9947C28.4316 68.8402 27.7059 68.6085 27.0184 68.4155C27.7823 69.265 28.5844 70.0759 29.3865 70.8482C29.692 70.9254 30.265 71.0412 31.3726 71.2343C35.1539 71.8908 43.2129 72.0838 51.463 69.0333Z" fill="#C32034"/>
<path d="M54.4803 29.7237C53.2199 28.3722 49.2095 30.303 46.6123 33.2763C44.3588 35.8634 42.9456 39.6863 42.9456 39.6863C43.5185 39.609 47.5289 37.6397 51.081 34.8209C52.4178 33.7396 55.7408 31.0752 54.4803 29.7237ZM52.647 72.9334C48.331 74.5552 41.3032 75.8295 34.8865 74.1304C33.4733 73.7443 32.442 73.3581 31.6782 73.0106C39.1643 79.6909 46.4595 82.5484 51.0428 79.9998C56.963 76.679 62.272 70.964 66.1297 64.052C62.3102 68.5313 57.0394 71.2729 52.647 72.9334ZM46.8796 48.7221C45.5046 48.4132 43.824 52.7766 45.5428 53.2013C45.7338 53.24 46.0011 53.2786 46.2685 53.24C47.1088 53.2013 47.9873 53.0083 48.7893 52.738C48.6748 50.1508 47.9873 48.9924 46.8796 48.7221ZM35.574 30.5733C37.5219 31.6158 37.2164 34.4347 37.9421 36.8674C38.6296 39.3387 40.6539 39.5318 40.6539 39.5318C40.6539 39.5318 44.7789 31.5 41.265 25.0128C37.7511 18.5255 31.9455 20.7652 30.4941 21.4988C28.5462 22.4256 21.0219 27.3296 17.2406 37.6397C13.4975 47.8339 18.883 51.3092 22.2059 51.8884C25.5288 52.4677 30.6087 49.0696 30.7997 47.3319C30.8761 46.4052 30.2268 45.826 29.2337 45.5943C28.2406 45.3626 25.5288 45.9418 23.8101 43.8953C21.7094 41.3467 25.3379 35.709 27.3622 33.7396C29.4247 31.6545 32.5184 28.9901 35.574 30.5733ZM53.9838 58.2212C54.4422 57.7192 55.8554 56.3291 56.3519 55.8658C56.4283 55.7885 56.581 55.7885 56.6574 55.9044C57.1158 56.4063 58.4908 57.7192 58.9873 58.2212C59.0637 58.3371 59.0637 58.4915 58.9873 58.5688C58.4908 59.0708 57.154 60.4223 56.6574 60.9242C56.581 61.0015 56.4283 61.0015 56.3519 60.9242C55.8554 60.4223 54.5185 59.0708 53.9838 58.5688C53.9456 58.4529 53.9456 58.2985 53.9838 58.2212ZM40.3102 49.4944C39.8136 49.9963 38.4386 51.3478 37.9803 51.8498C37.9039 51.9271 37.7511 51.9271 37.6747 51.8498C37.1782 51.3478 35.8032 49.9963 35.3066 49.4944C35.2303 49.3785 35.2303 49.2627 35.3066 49.1854C35.765 48.6834 37.1782 47.2933 37.6747 46.83C37.7511 46.7527 37.9039 46.7527 37.9803 46.83C38.4386 47.3319 39.8136 48.6448 40.3102 49.1468C40.3865 49.2241 40.3865 49.4171 40.3102 49.4944ZM54.3658 20.2632C53.8692 20.7652 52.4942 22.1167 52.0359 22.6187C51.9595 22.6959 51.8067 22.6959 51.7303 22.6187C51.2338 22.1167 49.8588 20.7652 49.3623 20.2632C49.2859 20.1473 49.2859 20.0315 49.3623 19.9543C49.8206 19.4523 51.2338 18.0622 51.7303 17.5988C51.8067 17.5215 51.9595 17.5215 52.0359 17.5988C52.4942 18.1008 53.8692 19.4137 54.3658 19.9156C54.4422 20.0315 54.4422 20.1859 54.3658 20.2632ZM51.463 69.0333C61.0116 65.5194 63.9908 60.2292 66.1297 56.5608C70.6749 48.7993 70.7894 40.0724 70.4075 37.5625V37.4466C70.1783 35.3228 69.5672 33.199 69.1089 33.199C67.1227 33.0832 64.4109 47.3706 62.845 55.2865C62.6922 56.0974 62.5776 56.9083 62.1193 57.7579C61.7373 58.4529 61.5464 58.7232 61.3172 58.9935C61.0498 59.3024 60.5915 59.6114 60.7061 59.0321C64.2964 39.8021 66.588 29.492 68.6887 25.3217C68.9179 24.8583 69.1471 24.588 69.4144 24.4722C69.0325 23.5454 68.5741 22.6573 68.0776 21.7691C56.8484 1.18761 26.942 -3.90951 10.251 5.39659C2.99401 9.45111 3.64331 28.7198 13.3447 48.2587C12.4281 42.7754 13.6885 37.91 16.3621 32.2723C19.9906 24.6652 31.5636 13.6601 40.3102 17.0582C47.7581 19.9543 44.8935 31.7703 44.8935 31.7703C44.8935 31.7703 50.0498 24.7811 54.1748 24.588C56.3519 24.4722 60.0568 26.094 55.588 33.4693C50.3553 42.119 41.6088 45.9804 38.515 44.2042C35.8032 42.621 35.765 39.5318 35.6122 38.7209C35.4212 37.91 35.0011 35.1298 32.4803 34.9367C29.9594 34.7436 25.4524 38.2575 26.0254 39.8407C26.5219 41.1922 29.8448 40.111 31.3726 41.0764C32.9004 42.0418 33.5115 43.5091 32.9386 46.0577C31.2962 53.7033 24.9941 58.2598 20.6399 57.2173C19.6087 56.947 18.5774 56.5608 17.6607 55.9816C19.0357 58.1826 20.4489 60.2292 21.8621 62.1985L23.1608 59.9589C23.199 59.8816 23.2753 59.843 23.3517 59.843C25.9108 59.9589 28.9663 58.9163 30.4177 57.7579C29.3101 61.4649 27.7823 63.859 22.7406 63.357C22.7788 63.4342 22.8552 63.5114 22.8934 63.55C23.8483 64.0134 24.9559 64.5154 26.2545 65.0174C33.7789 67.9135 40.5011 64.052 41.6852 63.2797C42.64 62.6619 46.4595 60.3836 48.0637 57.2945C47.4525 57.3717 46.8032 57.4103 46.1539 57.4103C45.6574 57.3717 45.199 57.3331 45.0463 57.3331C44.2824 57.2945 40.3483 56.6767 42.9074 50.6528C43.3657 49.5716 45.0845 45.4012 47.5671 46.328C48.2928 46.5983 50.1262 47.2933 50.7373 50.228C50.8519 50.73 50.9282 51.1934 50.9664 51.6954C53.2963 50.228 55.1297 47.8725 55.588 45.2854C56.0081 42.814 55.4734 41.5398 54.7859 41.4239C53.8692 41.2695 52.1887 45.9418 51.9213 45.826C51.6539 45.6715 51.9213 45.0537 52.1505 44.32C53.7547 38.7981 56.1227 36.713 56.9248 36.713C57.7269 36.713 58.7963 39.2615 58.7963 42.621C58.7963 47.9498 55.7026 54.0895 50.89 56.4063C50.4699 58.8777 49.5151 61.0401 48.331 62.5461C45.0845 66.7164 38.0948 71.0413 29.1955 68.9947C28.4316 68.8402 27.7059 68.6085 27.0184 68.4155C27.7823 69.265 28.5844 70.0759 29.3865 70.8482C29.692 70.9254 30.265 71.0412 31.3726 71.2343C35.1539 71.8908 43.2129 72.0838 51.463 69.0333Z" fill="black" fill-opacity="0.61"/>
</g>
<g clip-path="url(#clip1_139_3790)">
<path d="M60.4162 28.8009C59.1557 27.4494 55.1453 29.3801 52.5481 32.3535C50.2946 34.9406 48.8814 38.7635 48.8814 38.7635C49.4543 38.6862 53.4647 36.7169 57.0168 33.898C58.3536 32.8168 61.6766 30.1524 60.4162 28.8009ZM58.5828 72.0106C54.2668 73.6324 47.239 74.9066 40.8223 73.2076C39.4091 72.8215 38.3779 72.4353 37.614 72.0878C45.1001 78.7681 52.3953 81.6256 56.9786 79.077C62.8988 75.7562 68.2079 70.0412 72.0655 63.1292C68.2461 67.6085 62.9752 70.3501 58.5828 72.0106ZM52.8154 47.7993C51.4404 47.4903 49.7599 51.8538 51.4786 52.2785C51.6696 52.3172 51.937 52.3558 52.2043 52.3172C53.0446 52.2785 53.9231 52.0855 54.7252 51.8152C54.6106 49.228 53.9231 48.0696 52.8154 47.7993ZM41.5098 29.6504C43.4578 30.693 43.1522 33.5119 43.8779 35.9446C44.5654 38.4159 46.5897 38.609 46.5897 38.609C46.5897 38.609 50.7147 30.5772 47.2008 24.0899C43.6869 17.6027 37.8813 19.8424 36.4299 20.576C34.482 21.5028 26.9577 26.4068 23.1764 36.7169C19.4333 46.9111 24.8188 50.3864 28.1417 50.9656C31.4646 51.5449 36.5445 48.1468 36.7355 46.4091C36.8119 45.4824 36.1626 44.9032 35.1695 44.6715C34.1765 44.4398 31.4646 45.019 29.7459 42.9725C27.6452 40.4239 31.2737 34.7862 33.298 32.8168C35.3605 30.7316 38.4543 28.0673 41.5098 29.6504ZM59.9196 57.2984C60.378 56.7964 61.7912 55.4063 62.2877 54.9429C62.3641 54.8657 62.5169 54.8657 62.5933 54.9816C63.0516 55.4835 64.4266 56.7964 64.9231 57.2984C64.9995 57.4143 64.9995 57.5687 64.9231 57.646C64.4266 58.1479 63.0898 59.4994 62.5933 60.0014C62.5169 60.0787 62.3641 60.0787 62.2877 60.0014C61.7912 59.4994 60.4544 58.1479 59.9196 57.646C59.8814 57.5301 59.8814 57.3756 59.9196 57.2984ZM46.246 48.5716C45.7494 49.0735 44.3744 50.425 43.9161 50.927C43.8397 51.0043 43.6869 51.0043 43.6105 50.927C43.114 50.425 41.739 49.0735 41.2425 48.5716C41.1661 48.4557 41.1661 48.3399 41.2425 48.2626C41.7008 47.7606 43.114 46.3705 43.6105 45.9071C43.6869 45.8299 43.8397 45.8299 43.9161 45.9071C44.3744 46.4091 45.7494 47.722 46.246 48.224C46.3224 48.3012 46.3224 48.4943 46.246 48.5716ZM60.3016 19.3404C59.805 19.8424 58.43 21.1939 57.9717 21.6959C57.8953 21.7731 57.7425 21.7731 57.6661 21.6959C57.1696 21.1939 55.7946 19.8424 55.2981 19.3404C55.2217 19.2245 55.2217 19.1087 55.2981 19.0315C55.7564 18.5295 57.1696 17.1393 57.6661 16.676C57.7425 16.5987 57.8953 16.5987 57.9717 16.676C58.43 17.178 59.805 18.4909 60.3016 18.9928C60.378 19.1087 60.378 19.2631 60.3016 19.3404ZM57.3988 68.1105C66.9474 64.5966 69.9266 59.3064 72.0655 55.638C76.6107 47.8765 76.7253 39.1496 76.3433 36.6397V36.5238C76.1141 34.4 75.503 32.2762 75.0447 32.2762C73.0586 32.1604 70.3468 46.4478 68.7808 54.3637C68.628 55.1746 68.5134 55.9855 68.0551 56.8351C67.6731 57.5301 67.4822 57.8004 67.253 58.0707C66.9856 58.3796 66.5273 58.6885 66.6419 58.1093C70.2322 38.8793 72.5239 28.5692 74.6246 24.3989C74.8537 23.9355 75.0829 23.6652 75.3502 23.5493C74.9683 22.6226 74.51 21.7345 74.0134 20.8463C62.7842 0.2648 32.8778 -4.83231 16.1868 4.47378C8.92983 8.52831 9.57913 27.7969 19.2806 47.3359C18.3639 41.8526 19.6243 36.9872 22.2979 31.3495C25.9264 23.7424 37.4994 12.7373 46.246 16.1354C53.6939 19.0315 50.8293 30.8475 50.8293 30.8475C50.8293 30.8475 55.9856 23.8583 60.1106 23.6652C62.2877 23.5494 65.9926 25.1712 61.5238 32.5465C56.2911 41.1962 47.5446 45.0576 44.4508 43.2814C41.739 41.6982 41.7008 38.609 41.548 37.7981C41.357 36.9872 40.9369 34.207 38.4161 34.0139C35.8952 33.8208 31.3883 37.3347 31.9612 38.9179C32.4577 40.2694 35.7806 39.1882 37.3084 40.1536C38.8362 41.1189 39.4473 42.5863 38.8744 45.1349C37.232 52.7805 30.9299 57.337 26.5757 56.2945C25.5445 56.0242 24.5132 55.638 23.5966 55.0588C24.9716 57.2598 26.3848 59.3064 27.798 61.2757L29.0966 59.0361C29.1348 58.9588 29.2112 58.9202 29.2875 58.9202C31.8466 59.0361 34.9022 57.9935 36.3536 56.8351C35.2459 60.542 33.7181 62.9361 28.6764 62.4342C28.7146 62.5114 28.791 62.5886 28.8292 62.6272C29.7841 63.0906 30.8917 63.5926 32.1903 64.0946C39.7147 66.9907 46.4369 63.1292 47.621 62.3569C48.5758 61.7391 52.3953 59.4608 53.9995 56.3717C53.3884 56.4489 52.739 56.4875 52.0897 56.4875C51.5932 56.4489 51.1349 56.4103 50.9821 56.4103C50.2182 56.3717 46.2842 55.7538 48.8432 49.73C49.3015 48.6488 51.0203 44.4784 53.5029 45.4052C54.2286 45.6755 56.062 46.3705 56.6731 49.3052C56.7877 49.8072 56.8641 50.2706 56.9023 50.7726C59.2321 49.3052 61.0655 46.9497 61.5238 44.3626C61.944 41.8912 61.4092 40.617 60.7217 40.5011C59.805 40.3467 58.1245 45.019 57.8571 44.9032C57.5898 44.7487 57.8571 44.1309 58.0863 43.3972C59.6905 37.8753 62.0585 35.7901 62.8606 35.7901C63.6627 35.7901 64.7321 38.3387 64.7321 41.6982C64.7321 47.027 61.6384 53.1667 56.8259 55.4835C56.4057 57.9549 55.4509 60.1173 54.2668 61.6232C51.0203 65.7936 44.0307 70.1184 35.1313 68.0719C34.3674 67.9174 33.6417 67.6857 32.9542 67.4927C33.7181 68.3422 34.5202 69.1531 35.3223 69.9254C35.6279 70.0026 36.2008 70.1184 37.3084 70.3115C41.0897 70.968 49.1487 71.161 57.3988 68.1105Z" fill="#C32034"/>
</g>
<defs>
<clipPath id="clip0_139_3790">
<rect width="65.1852" height="80" fill="white" transform="translate(3)"/>
</clipPath>
<clipPath id="clip1_139_3790">
<rect width="65.1852" height="80" fill="white" transform="translate(11.2966)"/>
</clipPath>
</defs>
</svg>
