<svg width="23" height="25" viewBox="0 0 23 25" fill="none" xmlns="http://www.w3.org/2000/svg">
<g clip-path="url(#clip0_419_15483)">
<path d="M16.0871 9.28873C15.6933 8.86638 14.44 9.46973 13.6284 10.3989C12.9242 11.2074 12.4825 12.402 12.4825 12.402C12.6616 12.3779 13.9148 11.7625 15.0249 10.8816C15.4426 10.5437 16.481 9.71107 16.0871 9.28873ZM15.5142 22.7917C14.1655 23.2986 11.9693 23.6968 9.96408 23.1658C9.52245 23.0451 9.20018 22.9245 8.96147 22.8159C11.3009 24.9035 13.5806 25.7964 15.0129 25C16.863 23.9622 18.5221 22.1763 19.7276 20.0163C18.534 21.4161 16.8869 22.2729 15.5142 22.7917ZM13.7119 15.2257C13.2822 15.1292 12.7571 16.4927 13.2942 16.6255C13.3538 16.6375 13.4374 16.6496 13.5209 16.6375C13.7835 16.6255 14.0581 16.5651 14.3087 16.4807C14.2729 15.6722 14.0581 15.3102 13.7119 15.2257ZM10.1789 9.5542C10.7876 9.88001 10.6922 10.7609 10.9189 11.5211C11.1338 12.2934 11.7664 12.3538 11.7664 12.3538C11.7664 12.3538 13.0555 9.84381 11.9574 7.81655C10.8593 5.78929 9.04502 6.48918 8.59146 6.71845C7.98273 7.00806 5.63137 8.54057 4.44973 11.7625C3.28002 14.9482 4.96297 16.0342 6.00138 16.2152C7.0398 16.3962 8.62726 15.3343 8.68694 14.7913C8.71081 14.5017 8.5079 14.3207 8.19757 14.2483C7.88724 14.1759 7.0398 14.3569 6.50269 13.7173C5.84622 12.9209 6.98012 11.1591 7.61272 10.5437C8.25725 9.89208 9.22406 9.05945 10.1789 9.5542ZM15.932 18.1942C16.0752 18.0373 16.5168 17.6029 16.672 17.4581C16.6959 17.434 16.7436 17.434 16.7675 17.4702C16.9107 17.627 17.3404 18.0373 17.4956 18.1942C17.5194 18.2304 17.5194 18.2787 17.4956 18.3028C17.3404 18.4597 16.9227 18.882 16.7675 19.0389C16.7436 19.063 16.6959 19.063 16.672 19.0389C16.5168 18.882 16.0991 18.4597 15.932 18.3028C15.92 18.2666 15.92 18.2183 15.932 18.1942ZM11.659 15.467C11.5038 15.6239 11.0741 16.0463 10.9309 16.2031C10.907 16.2273 10.8593 16.2273 10.8354 16.2031C10.6802 16.0463 10.2505 15.6239 10.0954 15.467C10.0715 15.4308 10.0715 15.3946 10.0954 15.3705C10.2386 15.2136 10.6802 14.7792 10.8354 14.6344C10.8593 14.6103 10.907 14.6103 10.9309 14.6344C11.0741 14.7913 11.5038 15.2016 11.659 15.3584C11.6828 15.3826 11.6828 15.4429 11.659 15.467ZM16.0513 6.3323C15.8962 6.48917 15.4665 6.91152 15.3233 7.06839C15.2994 7.09253 15.2516 7.09253 15.2278 7.06839C15.0726 6.91152 14.6429 6.48917 14.4877 6.3323C14.4639 6.2961 14.4639 6.2599 14.4877 6.23577C14.631 6.0789 15.0726 5.64448 15.2278 5.49968C15.2516 5.47554 15.2994 5.47554 15.3233 5.49968C15.4665 5.65655 15.8962 6.06683 16.0513 6.2237C16.0752 6.2599 16.0752 6.30817 16.0513 6.3323ZM15.1442 21.573C18.1282 20.4749 19.0592 18.8217 19.7276 17.6753C21.1479 15.2498 21.1837 12.5227 21.0644 11.7383V11.7021C20.9928 11.0384 20.8018 10.3748 20.6586 10.3748C20.0379 10.3386 19.1905 14.8034 18.7011 17.2771C18.6534 17.5305 18.6175 17.7839 18.4743 18.0494C18.355 18.2666 18.2953 18.3511 18.2237 18.4355C18.1401 18.5321 17.9969 18.6286 18.0327 18.4476C19.1547 12.4382 19.8708 9.21632 20.5273 7.91309C20.5989 7.76828 20.6705 7.68381 20.754 7.64761C20.6347 7.358 20.4915 7.08046 20.3363 6.80292C16.8272 0.371188 7.48143 -1.22166 2.26547 1.6865C-0.00233048 2.95353 0.200576 8.97498 3.23227 15.0809C2.94581 13.3674 3.3397 11.8469 4.17521 10.0852C5.30911 7.70795 8.92566 4.26884 11.659 5.33074C13.9864 6.23577 13.0913 9.92828 13.0913 9.92828C13.0913 9.92828 14.7026 7.74415 15.9917 7.68381C16.672 7.64761 17.8298 8.15443 16.4333 10.4592C14.7981 13.1622 12.0648 14.3689 11.098 13.8139C10.2505 13.3191 10.2386 12.3538 10.1909 12.1003C10.1312 11.8469 9.99989 10.9781 9.21212 10.9178C8.42436 10.8574 7.01593 11.9555 7.19497 12.4503C7.35013 12.8726 8.38855 12.5348 8.86598 12.8364C9.34341 13.1381 9.53438 13.5967 9.35535 14.3931C8.8421 16.7824 6.8727 18.2063 5.51201 17.8805C5.18975 17.796 4.86748 17.6753 4.58102 17.4943C5.01071 18.1821 5.45234 18.8217 5.89396 19.4371L6.29978 18.7372C6.31171 18.7131 6.33559 18.701 6.35946 18.701C7.15916 18.7372 8.11402 18.4114 8.56758 18.0494C8.22145 19.2078 7.74401 19.956 6.16848 19.7991C6.18042 19.8232 6.20429 19.8474 6.21623 19.8594C6.51462 20.0043 6.86076 20.1611 7.26658 20.318C9.61794 21.223 11.7186 20.0163 12.0887 19.775C12.387 19.5819 13.5806 18.8699 14.0819 17.9046C13.891 17.9287 13.6881 17.9408 13.4851 17.9408C13.33 17.9287 13.1867 17.9167 13.139 17.9167C12.9003 17.9046 11.6709 17.7115 12.4706 15.8291C12.6138 15.4912 13.1509 14.1879 13.9268 14.4776C14.1536 14.562 14.7265 14.7792 14.9174 15.6963C14.9532 15.8532 14.9771 15.998 14.9891 16.1549C15.7171 15.6963 16.2901 14.9602 16.4333 14.1517C16.5646 13.3794 16.3975 12.9812 16.1826 12.945C15.8962 12.8968 15.371 14.3569 15.2874 14.3207C15.2039 14.2724 15.2875 14.0793 15.3591 13.8501C15.8604 12.1245 16.6004 11.4729 16.851 11.4729C17.1017 11.4729 17.4359 12.2693 17.4359 13.3191C17.4359 14.9844 16.4691 16.903 14.9652 17.627C14.8339 18.3993 14.5355 19.0751 14.1655 19.5457C13.1509 20.8489 10.9667 22.2005 8.18564 21.5609C7.94692 21.5126 7.72014 21.4402 7.5053 21.3799C7.74401 21.6454 7.99466 21.8988 8.24532 22.1401C8.3408 22.1643 8.51984 22.2005 8.86598 22.2608C10.0476 22.4659 12.5661 22.5263 15.1442 21.573Z" fill="#C32034"/>
<path d="M16.0871 9.28873C15.6933 8.86638 14.44 9.46973 13.6284 10.3989C12.9242 11.2074 12.4825 12.402 12.4825 12.402C12.6616 12.3779 13.9148 11.7625 15.0249 10.8816C15.4426 10.5437 16.481 9.71107 16.0871 9.28873ZM15.5142 22.7917C14.1655 23.2986 11.9693 23.6968 9.96408 23.1658C9.52245 23.0451 9.20018 22.9245 8.96147 22.8159C11.3009 24.9035 13.5806 25.7964 15.0129 25C16.863 23.9622 18.5221 22.1763 19.7276 20.0163C18.534 21.4161 16.8869 22.2729 15.5142 22.7917ZM13.7119 15.2257C13.2822 15.1292 12.7571 16.4927 13.2942 16.6255C13.3538 16.6375 13.4374 16.6496 13.5209 16.6375C13.7835 16.6255 14.0581 16.5651 14.3087 16.4807C14.2729 15.6722 14.0581 15.3102 13.7119 15.2257ZM10.1789 9.5542C10.7876 9.88001 10.6922 10.7609 10.9189 11.5211C11.1338 12.2934 11.7664 12.3538 11.7664 12.3538C11.7664 12.3538 13.0555 9.84381 11.9574 7.81655C10.8593 5.78929 9.04502 6.48918 8.59146 6.71845C7.98273 7.00806 5.63137 8.54057 4.44973 11.7625C3.28002 14.9482 4.96297 16.0342 6.00138 16.2152C7.0398 16.3962 8.62726 15.3343 8.68694 14.7913C8.71081 14.5017 8.5079 14.3207 8.19757 14.2483C7.88724 14.1759 7.0398 14.3569 6.50269 13.7173C5.84622 12.9209 6.98012 11.1591 7.61272 10.5437C8.25725 9.89208 9.22406 9.05945 10.1789 9.5542ZM15.932 18.1942C16.0752 18.0373 16.5168 17.6029 16.672 17.4581C16.6959 17.434 16.7436 17.434 16.7675 17.4702C16.9107 17.627 17.3404 18.0373 17.4956 18.1942C17.5194 18.2304 17.5194 18.2787 17.4956 18.3028C17.3404 18.4597 16.9227 18.882 16.7675 19.0389C16.7436 19.063 16.6959 19.063 16.672 19.0389C16.5168 18.882 16.0991 18.4597 15.932 18.3028C15.92 18.2666 15.92 18.2183 15.932 18.1942ZM11.659 15.467C11.5038 15.6239 11.0741 16.0463 10.9309 16.2031C10.907 16.2273 10.8593 16.2273 10.8354 16.2031C10.6802 16.0463 10.2505 15.6239 10.0954 15.467C10.0715 15.4308 10.0715 15.3946 10.0954 15.3705C10.2386 15.2136 10.6802 14.7792 10.8354 14.6344C10.8593 14.6103 10.907 14.6103 10.9309 14.6344C11.0741 14.7913 11.5038 15.2016 11.659 15.3584C11.6828 15.3826 11.6828 15.4429 11.659 15.467ZM16.0513 6.3323C15.8962 6.48917 15.4665 6.91152 15.3233 7.06839C15.2994 7.09253 15.2516 7.09253 15.2278 7.06839C15.0726 6.91152 14.6429 6.48917 14.4877 6.3323C14.4639 6.2961 14.4639 6.2599 14.4877 6.23577C14.631 6.0789 15.0726 5.64448 15.2278 5.49968C15.2516 5.47554 15.2994 5.47554 15.3233 5.49968C15.4665 5.65655 15.8962 6.06683 16.0513 6.2237C16.0752 6.2599 16.0752 6.30817 16.0513 6.3323ZM15.1442 21.573C18.1282 20.4749 19.0592 18.8217 19.7276 17.6753C21.1479 15.2498 21.1837 12.5227 21.0644 11.7383V11.7021C20.9928 11.0384 20.8018 10.3748 20.6586 10.3748C20.0379 10.3386 19.1905 14.8034 18.7011 17.2771C18.6534 17.5305 18.6175 17.7839 18.4743 18.0494C18.355 18.2666 18.2953 18.3511 18.2237 18.4355C18.1401 18.5321 17.9969 18.6286 18.0327 18.4476C19.1547 12.4382 19.8708 9.21632 20.5273 7.91309C20.5989 7.76828 20.6705 7.68381 20.754 7.64761C20.6347 7.358 20.4915 7.08046 20.3363 6.80292C16.8272 0.371188 7.48143 -1.22166 2.26547 1.6865C-0.00233048 2.95353 0.200576 8.97498 3.23227 15.0809C2.94581 13.3674 3.3397 11.8469 4.17521 10.0852C5.30911 7.70795 8.92566 4.26884 11.659 5.33074C13.9864 6.23577 13.0913 9.92828 13.0913 9.92828C13.0913 9.92828 14.7026 7.74415 15.9917 7.68381C16.672 7.64761 17.8298 8.15443 16.4333 10.4592C14.7981 13.1622 12.0648 14.3689 11.098 13.8139C10.2505 13.3191 10.2386 12.3538 10.1909 12.1003C10.1312 11.8469 9.99989 10.9781 9.21212 10.9178C8.42436 10.8574 7.01593 11.9555 7.19497 12.4503C7.35013 12.8726 8.38855 12.5348 8.86598 12.8364C9.34341 13.1381 9.53438 13.5967 9.35535 14.3931C8.8421 16.7824 6.8727 18.2063 5.51201 17.8805C5.18975 17.796 4.86748 17.6753 4.58102 17.4943C5.01071 18.1821 5.45234 18.8217 5.89396 19.4371L6.29978 18.7372C6.31171 18.7131 6.33559 18.701 6.35946 18.701C7.15916 18.7372 8.11402 18.4114 8.56758 18.0494C8.22145 19.2078 7.74401 19.956 6.16848 19.7991C6.18042 19.8232 6.20429 19.8474 6.21623 19.8594C6.51462 20.0043 6.86076 20.1611 7.26658 20.318C9.61794 21.223 11.7186 20.0163 12.0887 19.775C12.387 19.5819 13.5806 18.8699 14.0819 17.9046C13.891 17.9287 13.6881 17.9408 13.4851 17.9408C13.33 17.9287 13.1867 17.9167 13.139 17.9167C12.9003 17.9046 11.6709 17.7115 12.4706 15.8291C12.6138 15.4912 13.1509 14.1879 13.9268 14.4776C14.1536 14.562 14.7265 14.7792 14.9174 15.6963C14.9532 15.8532 14.9771 15.998 14.9891 16.1549C15.7171 15.6963 16.2901 14.9602 16.4333 14.1517C16.5646 13.3794 16.3975 12.9812 16.1826 12.945C15.8962 12.8968 15.371 14.3569 15.2874 14.3207C15.2039 14.2724 15.2875 14.0793 15.3591 13.8501C15.8604 12.1245 16.6004 11.4729 16.851 11.4729C17.1017 11.4729 17.4359 12.2693 17.4359 13.3191C17.4359 14.9844 16.4691 16.903 14.9652 17.627C14.8339 18.3993 14.5355 19.0751 14.1655 19.5457C13.1509 20.8489 10.9667 22.2005 8.18564 21.5609C7.94692 21.5126 7.72014 21.4402 7.5053 21.3799C7.74401 21.6454 7.99466 21.8988 8.24532 22.1401C8.3408 22.1643 8.51984 22.2005 8.86598 22.2608C10.0476 22.4659 12.5661 22.5263 15.1442 21.573Z" fill="black" fill-opacity="0.61"/>
</g>
<g clip-path="url(#clip1_419_15483)">
<path d="M17.9426 9.00029C17.5487 8.57794 16.2955 9.1813 15.4839 10.1105C14.7796 10.9189 14.338 12.1136 14.338 12.1136C14.517 12.0894 15.7703 11.474 16.8803 10.5931C17.2981 10.2553 18.3365 9.42264 17.9426 9.00029ZM17.3697 22.5033C16.021 23.0101 13.8248 23.4083 11.8196 22.8774C11.3779 22.7567 11.0557 22.636 10.8169 22.5274C13.1564 24.615 15.4361 25.508 16.8684 24.7116C18.7185 23.6738 20.3775 21.8879 21.583 19.7279C20.3895 21.1277 18.7423 21.9844 17.3697 22.5033ZM15.5674 14.9373C15.1377 14.8407 14.6125 16.2043 15.1496 16.337C15.2093 16.3491 15.2929 16.3612 15.3764 16.3491C15.639 16.337 15.9135 16.2767 16.1642 16.1922C16.1284 15.3837 15.9135 15.0217 15.5674 14.9373ZM12.0344 9.26577C12.6431 9.59157 12.5476 10.4725 12.7744 11.2327C12.9893 12.005 13.6219 12.0653 13.6219 12.0653C13.6219 12.0653 14.9109 9.55537 13.8128 7.52811C12.7147 5.50085 10.9005 6.20074 10.4469 6.43001C9.83821 6.71962 7.48685 8.25213 6.30521 11.474C5.1355 14.6597 6.81845 15.7458 7.85686 15.9268C8.89528 16.1078 10.4827 15.0459 10.5424 14.5029C10.5663 14.2132 10.3634 14.0322 10.0531 13.9598C9.74272 13.8874 8.89528 14.0684 8.35817 13.4289C7.7017 12.6325 8.8356 10.8707 9.4682 10.2553C10.1127 9.60364 11.0795 8.77102 12.0344 9.26577ZM17.7875 17.9058C17.9307 17.7489 18.3723 17.3145 18.5275 17.1697C18.5514 17.1455 18.5991 17.1455 18.623 17.1817C18.7662 17.3386 19.1959 17.7489 19.351 17.9058C19.3749 17.942 19.3749 17.9902 19.351 18.0144C19.1959 18.1712 18.7781 18.5936 18.623 18.7505C18.5991 18.7746 18.5514 18.7746 18.5275 18.7505C18.3723 18.5936 17.9546 18.1712 17.7875 18.0144C17.7755 17.9782 17.7755 17.9299 17.7875 17.9058ZM13.5144 15.1786C13.3593 15.3355 12.9296 15.7578 12.7864 15.9147C12.7625 15.9388 12.7147 15.9388 12.6909 15.9147C12.5357 15.7578 12.106 15.3355 11.9508 15.1786C11.927 15.1424 11.927 15.1062 11.9508 15.0821C12.0941 14.9252 12.5357 14.4908 12.6909 14.346C12.7147 14.3218 12.7625 14.3218 12.7864 14.346C12.9296 14.5029 13.3593 14.9131 13.5144 15.07C13.5383 15.0941 13.5383 15.1545 13.5144 15.1786ZM17.9068 6.04387C17.7517 6.20074 17.322 6.62308 17.1787 6.77995C17.1549 6.80409 17.1071 6.80409 17.0832 6.77995C16.9281 6.62308 16.4984 6.20074 16.3432 6.04387C16.3194 6.00766 16.3194 5.97146 16.3432 5.94733C16.4865 5.79046 16.9281 5.35604 17.0832 5.21124C17.1071 5.18711 17.1549 5.18711 17.1787 5.21124C17.322 5.36811 17.7517 5.77839 17.9068 5.93526C17.9307 5.97146 17.9307 6.01973 17.9068 6.04387ZM16.9997 21.2845C19.9836 20.1864 20.9146 18.5332 21.583 17.3869C23.0034 14.9614 23.0392 12.2343 22.9199 11.4499V11.4137C22.8482 10.75 22.6573 10.0863 22.514 10.0863C21.8934 10.0501 21.0459 14.5149 20.5566 16.9887C20.5088 17.2421 20.473 17.4955 20.3298 17.761C20.2104 17.9782 20.1508 18.0626 20.0791 18.1471C19.9956 18.2436 19.8524 18.3402 19.8882 18.1592C21.0101 12.1498 21.7263 8.92789 22.3827 7.62465C22.4544 7.47984 22.526 7.39537 22.6095 7.35917C22.4902 7.06956 22.3469 6.79202 22.1918 6.51448C18.6826 0.08275 9.3369 -1.5101 4.12095 1.39806C1.85315 2.6651 2.05605 8.68655 5.08775 14.7925C4.80129 13.0789 5.19518 11.5585 6.03068 9.79671C7.16459 7.41951 10.7811 3.9804 13.5144 5.0423C15.8419 5.94733 14.9467 9.63984 14.9467 9.63984C14.9467 9.63984 16.5581 7.45571 17.8471 7.39537C18.5275 7.35917 19.6853 7.86599 18.2888 10.1708C16.6536 12.8738 13.9203 14.0805 12.9535 13.5254C12.106 13.0307 12.0941 12.0653 12.0463 11.8119C11.9867 11.5585 11.8554 10.6897 11.0676 10.6293C10.2798 10.569 8.87141 11.6671 9.05044 12.1619C9.20561 12.5842 10.244 12.2463 10.7215 12.548C11.1989 12.8497 11.3899 13.3082 11.2108 14.1046C10.6976 16.4939 8.72817 17.9178 7.36749 17.592C7.04522 17.5075 6.72296 17.3869 6.4365 17.2059C6.86619 17.8937 7.30781 18.5332 7.74944 19.1487L8.15526 18.4488C8.16719 18.4246 8.19106 18.4126 8.21494 18.4126C9.01464 18.4488 9.9695 18.123 10.4231 17.761C10.0769 18.9194 9.59949 19.6675 8.02396 19.5107C8.0359 19.5348 8.05977 19.5589 8.0717 19.571C8.3701 19.7158 8.71624 19.8727 9.12206 20.0296C11.4734 20.9346 13.5741 19.7279 13.9441 19.4865C14.2425 19.2935 15.4361 18.5815 15.9374 17.6161C15.7464 17.6403 15.5435 17.6524 15.3406 17.6524C15.1855 17.6403 15.0422 17.6282 14.9945 17.6282C14.7558 17.6161 13.5264 17.4231 14.3261 15.5406C14.4693 15.2027 15.0064 13.8995 15.7822 14.1891C16.009 14.2736 16.5819 14.4908 16.7729 15.4079C16.8087 15.5648 16.8326 15.7096 16.8445 15.8664C17.5726 15.4079 18.1455 14.6718 18.2888 13.8633C18.4201 13.091 18.253 12.6928 18.0381 12.6566C17.7517 12.6083 17.2265 14.0684 17.1429 14.0322C17.0594 13.984 17.1429 13.7909 17.2145 13.5616C17.7158 11.836 18.4559 11.1844 18.7065 11.1844C18.9572 11.1844 19.2914 11.9808 19.2914 13.0307C19.2914 14.6959 18.3246 16.6146 16.8207 17.3386C16.6894 18.1109 16.391 18.7867 16.021 19.2573C15.0064 20.5605 12.8222 21.912 10.0411 21.2725C9.8024 21.2242 9.57562 21.1518 9.36077 21.0915C9.59949 21.3569 9.85014 21.6103 10.1008 21.8517C10.1963 21.8758 10.3753 21.912 10.7215 21.9723C11.9031 22.1775 14.4216 22.2378 16.9997 21.2845Z" fill="#C32034"/>
</g>
<defs>
<clipPath id="clip0_419_15483">
<rect width="20.3704" height="25" fill="white"/>
</clipPath>
<clipPath id="clip1_419_15483">
<rect width="20.3704" height="25" fill="white" transform="translate(2.59277)"/>
</clipPath>
</defs>
</svg>
