<svg width="23" height="25" viewBox="0 0 23 25" fill="none" xmlns="http://www.w3.org/2000/svg">
<g clip-path="url(#clip0_153_1951)">
<path d="M16.0876 9.28873C15.6938 8.86638 14.4405 9.46973 13.6289 10.3989C12.9246 11.2074 12.483 12.402 12.483 12.402C12.6621 12.3779 13.9153 11.7625 15.0253 10.8816C15.4431 10.5437 16.4815 9.71107 16.0876 9.28873ZM15.5147 22.7917C14.166 23.2986 11.9698 23.6968 9.96457 23.1658C9.52294 23.0451 9.20067 22.9245 8.96195 22.8159C11.3014 24.9035 13.5811 25.7964 15.0134 25C16.8635 23.9622 18.5225 22.1763 19.7281 20.0163C18.5345 21.4161 16.8873 22.2729 15.5147 22.7917ZM13.7124 15.2257C13.2827 15.1292 12.7575 16.4927 13.2947 16.6255C13.3543 16.6375 13.4379 16.6496 13.5214 16.6375C13.784 16.6255 14.0585 16.5651 14.3092 16.4807C14.2734 15.6722 14.0585 15.3102 13.7124 15.2257ZM10.1794 9.5542C10.7881 9.88001 10.6926 10.7609 10.9194 11.5211C11.1343 12.2934 11.7669 12.3538 11.7669 12.3538C11.7669 12.3538 13.0559 9.84381 11.9578 7.81655C10.8598 5.78929 9.04551 6.48918 8.59195 6.71845C7.98322 7.00806 5.63186 8.54057 4.45022 11.7625C3.28051 14.9482 4.96346 16.0342 6.00187 16.2152C7.04029 16.3962 8.62775 15.3343 8.68743 14.7913C8.7113 14.5017 8.50839 14.3207 8.19806 14.2483C7.88773 14.1759 7.04029 14.3569 6.50318 13.7173C5.84671 12.9209 6.98061 11.1591 7.61321 10.5437C8.25774 9.89208 9.22454 9.05945 10.1794 9.5542ZM15.9325 18.1942C16.0757 18.0373 16.5173 17.6029 16.6725 17.4581C16.6964 17.434 16.7441 17.434 16.768 17.4702C16.9112 17.627 17.3409 18.0373 17.4961 18.1942C17.5199 18.2304 17.5199 18.2787 17.4961 18.3028C17.3409 18.4597 16.9231 18.882 16.768 19.0389C16.7441 19.063 16.6964 19.063 16.6725 19.0389C16.5173 18.882 16.0996 18.4597 15.9325 18.3028C15.9205 18.2666 15.9205 18.2183 15.9325 18.1942ZM11.6595 15.467C11.5043 15.6239 11.0746 16.0463 10.9314 16.2031C10.9075 16.2273 10.8597 16.2273 10.8359 16.2031C10.6807 16.0463 10.251 15.6239 10.0959 15.467C10.072 15.4308 10.072 15.3946 10.0959 15.3705C10.2391 15.2136 10.6807 14.7792 10.8359 14.6344C10.8597 14.6103 10.9075 14.6103 10.9314 14.6344C11.0746 14.7913 11.5043 15.2016 11.6595 15.3584C11.6833 15.3826 11.6833 15.4429 11.6595 15.467ZM16.0518 6.3323C15.8967 6.48917 15.467 6.91152 15.3237 7.06839C15.2999 7.09253 15.2521 7.09253 15.2283 7.06839C15.0731 6.91152 14.6434 6.48917 14.4882 6.3323C14.4644 6.2961 14.4644 6.2599 14.4882 6.23577C14.6315 6.0789 15.0731 5.64448 15.2283 5.49968C15.2521 5.47554 15.2999 5.47554 15.3237 5.49968C15.467 5.65655 15.8967 6.06683 16.0518 6.2237C16.0757 6.2599 16.0757 6.30817 16.0518 6.3323ZM15.1447 21.573C18.1287 20.4749 19.0597 18.8217 19.7281 17.6753C21.1484 15.2498 21.1842 12.5227 21.0649 11.7383V11.7021C20.9933 11.0384 20.8023 10.3748 20.6591 10.3748C20.0384 10.3386 19.191 14.8034 18.7016 17.2771C18.6538 17.5305 18.618 17.7839 18.4748 18.0494C18.3554 18.2666 18.2958 18.3511 18.2241 18.4355C18.1406 18.5321 17.9974 18.6286 18.0332 18.4476C19.1551 12.4382 19.8713 9.21632 20.5278 7.91309C20.5994 7.76828 20.671 7.68381 20.7545 7.64761C20.6352 7.358 20.492 7.08046 20.3368 6.80292C16.8277 0.371188 7.48191 -1.22166 2.26596 1.6865C-0.0018422 2.95353 0.201064 8.97498 3.23276 15.0809C2.9463 13.3674 3.34019 11.8469 4.17569 10.0852C5.3096 7.70795 8.92615 4.26884 11.6595 5.33074C13.9869 6.23577 13.0918 9.92828 13.0918 9.92828C13.0918 9.92828 14.7031 7.74415 15.9922 7.68381C16.6725 7.64761 17.8303 8.15443 16.4338 10.4592C14.7986 13.1622 12.0653 14.3689 11.0985 13.8139C10.251 13.3191 10.2391 12.3538 10.1913 12.1003C10.1317 11.8469 10.0004 10.9781 9.21261 10.9178C8.42485 10.8574 7.01642 11.9555 7.19545 12.4503C7.35062 12.8726 8.38904 12.5348 8.86647 12.8364C9.3439 13.1381 9.53487 13.5967 9.35583 14.3931C8.84259 16.7824 6.87319 18.2063 5.5125 17.8805C5.19024 17.796 4.86797 17.6753 4.58151 17.4943C5.0112 18.1821 5.45283 18.8217 5.89445 19.4371L6.30027 18.7372C6.3122 18.7131 6.33607 18.701 6.35995 18.701C7.15965 18.7372 8.11451 18.4114 8.56807 18.0494C8.22193 19.2078 7.7445 19.956 6.16897 19.7991C6.18091 19.8232 6.20478 19.8474 6.21672 19.8594C6.51511 20.0043 6.86125 20.1611 7.26707 20.318C9.61843 21.223 11.7191 20.0163 12.0891 19.775C12.3875 19.5819 13.5811 18.8699 14.0824 17.9046C13.8914 17.9287 13.6885 17.9408 13.4856 17.9408C13.3305 17.9287 13.1872 17.9167 13.1395 17.9167C12.9008 17.9046 11.6714 17.7115 12.4711 15.8291C12.6143 15.4912 13.1514 14.1879 13.9273 14.4776C14.154 14.562 14.727 14.7792 14.9179 15.6963C14.9537 15.8532 14.9776 15.998 14.9895 16.1549C15.7176 15.6963 16.2905 14.9602 16.4338 14.1517C16.5651 13.3794 16.398 12.9812 16.1831 12.945C15.8967 12.8968 15.3715 14.3569 15.2879 14.3207C15.2044 14.2724 15.2879 14.0793 15.3596 13.8501C15.8609 12.1245 16.6009 11.4729 16.8515 11.4729C17.1022 11.4729 17.4364 12.2693 17.4364 13.3191C17.4364 14.9844 16.4696 16.903 14.9657 17.627C14.8344 18.3993 14.536 19.0751 14.166 19.5457C13.1514 20.8489 10.9672 22.2005 8.18612 21.5609C7.94741 21.5126 7.72063 21.4402 7.50579 21.3799C7.7445 21.6454 7.99515 21.8988 8.2458 22.1401C8.34129 22.1643 8.52033 22.2005 8.86647 22.2608C10.0481 22.4659 12.5666 22.5263 15.1447 21.573Z" fill="#C32034"/>
<path d="M16.0876 9.28873C15.6938 8.86638 14.4405 9.46973 13.6289 10.3989C12.9246 11.2074 12.483 12.402 12.483 12.402C12.6621 12.3779 13.9153 11.7625 15.0253 10.8816C15.4431 10.5437 16.4815 9.71107 16.0876 9.28873ZM15.5147 22.7917C14.166 23.2986 11.9698 23.6968 9.96457 23.1658C9.52294 23.0451 9.20067 22.9245 8.96195 22.8159C11.3014 24.9035 13.5811 25.7964 15.0134 25C16.8635 23.9622 18.5225 22.1763 19.7281 20.0163C18.5345 21.4161 16.8873 22.2729 15.5147 22.7917ZM13.7124 15.2257C13.2827 15.1292 12.7575 16.4927 13.2947 16.6255C13.3543 16.6375 13.4379 16.6496 13.5214 16.6375C13.784 16.6255 14.0585 16.5651 14.3092 16.4807C14.2734 15.6722 14.0585 15.3102 13.7124 15.2257ZM10.1794 9.5542C10.7881 9.88001 10.6926 10.7609 10.9194 11.5211C11.1343 12.2934 11.7669 12.3538 11.7669 12.3538C11.7669 12.3538 13.0559 9.84381 11.9578 7.81655C10.8598 5.78929 9.04551 6.48918 8.59195 6.71845C7.98322 7.00806 5.63186 8.54057 4.45022 11.7625C3.28051 14.9482 4.96346 16.0342 6.00187 16.2152C7.04029 16.3962 8.62775 15.3343 8.68743 14.7913C8.7113 14.5017 8.50839 14.3207 8.19806 14.2483C7.88773 14.1759 7.04029 14.3569 6.50318 13.7173C5.84671 12.9209 6.98061 11.1591 7.61321 10.5437C8.25774 9.89208 9.22454 9.05945 10.1794 9.5542ZM15.9325 18.1942C16.0757 18.0373 16.5173 17.6029 16.6725 17.4581C16.6964 17.434 16.7441 17.434 16.768 17.4702C16.9112 17.627 17.3409 18.0373 17.4961 18.1942C17.5199 18.2304 17.5199 18.2787 17.4961 18.3028C17.3409 18.4597 16.9231 18.882 16.768 19.0389C16.7441 19.063 16.6964 19.063 16.6725 19.0389C16.5173 18.882 16.0996 18.4597 15.9325 18.3028C15.9205 18.2666 15.9205 18.2183 15.9325 18.1942ZM11.6595 15.467C11.5043 15.6239 11.0746 16.0463 10.9314 16.2031C10.9075 16.2273 10.8597 16.2273 10.8359 16.2031C10.6807 16.0463 10.251 15.6239 10.0959 15.467C10.072 15.4308 10.072 15.3946 10.0959 15.3705C10.2391 15.2136 10.6807 14.7792 10.8359 14.6344C10.8597 14.6103 10.9075 14.6103 10.9314 14.6344C11.0746 14.7913 11.5043 15.2016 11.6595 15.3584C11.6833 15.3826 11.6833 15.4429 11.6595 15.467ZM16.0518 6.3323C15.8967 6.48917 15.467 6.91152 15.3237 7.06839C15.2999 7.09253 15.2521 7.09253 15.2283 7.06839C15.0731 6.91152 14.6434 6.48917 14.4882 6.3323C14.4644 6.2961 14.4644 6.2599 14.4882 6.23577C14.6315 6.0789 15.0731 5.64448 15.2283 5.49968C15.2521 5.47554 15.2999 5.47554 15.3237 5.49968C15.467 5.65655 15.8967 6.06683 16.0518 6.2237C16.0757 6.2599 16.0757 6.30817 16.0518 6.3323ZM15.1447 21.573C18.1287 20.4749 19.0597 18.8217 19.7281 17.6753C21.1484 15.2498 21.1842 12.5227 21.0649 11.7383V11.7021C20.9933 11.0384 20.8023 10.3748 20.6591 10.3748C20.0384 10.3386 19.191 14.8034 18.7016 17.2771C18.6538 17.5305 18.618 17.7839 18.4748 18.0494C18.3554 18.2666 18.2958 18.3511 18.2241 18.4355C18.1406 18.5321 17.9974 18.6286 18.0332 18.4476C19.1551 12.4382 19.8713 9.21632 20.5278 7.91309C20.5994 7.76828 20.671 7.68381 20.7545 7.64761C20.6352 7.358 20.492 7.08046 20.3368 6.80292C16.8277 0.371188 7.48191 -1.22166 2.26596 1.6865C-0.0018422 2.95353 0.201064 8.97498 3.23276 15.0809C2.9463 13.3674 3.34019 11.8469 4.17569 10.0852C5.3096 7.70795 8.92615 4.26884 11.6595 5.33074C13.9869 6.23577 13.0918 9.92828 13.0918 9.92828C13.0918 9.92828 14.7031 7.74415 15.9922 7.68381C16.6725 7.64761 17.8303 8.15443 16.4338 10.4592C14.7986 13.1622 12.0653 14.3689 11.0985 13.8139C10.251 13.3191 10.2391 12.3538 10.1913 12.1003C10.1317 11.8469 10.0004 10.9781 9.21261 10.9178C8.42485 10.8574 7.01642 11.9555 7.19545 12.4503C7.35062 12.8726 8.38904 12.5348 8.86647 12.8364C9.3439 13.1381 9.53487 13.5967 9.35583 14.3931C8.84259 16.7824 6.87319 18.2063 5.5125 17.8805C5.19024 17.796 4.86797 17.6753 4.58151 17.4943C5.0112 18.1821 5.45283 18.8217 5.89445 19.4371L6.30027 18.7372C6.3122 18.7131 6.33607 18.701 6.35995 18.701C7.15965 18.7372 8.11451 18.4114 8.56807 18.0494C8.22193 19.2078 7.7445 19.956 6.16897 19.7991C6.18091 19.8232 6.20478 19.8474 6.21672 19.8594C6.51511 20.0043 6.86125 20.1611 7.26707 20.318C9.61843 21.223 11.7191 20.0163 12.0891 19.775C12.3875 19.5819 13.5811 18.8699 14.0824 17.9046C13.8914 17.9287 13.6885 17.9408 13.4856 17.9408C13.3305 17.9287 13.1872 17.9167 13.1395 17.9167C12.9008 17.9046 11.6714 17.7115 12.4711 15.8291C12.6143 15.4912 13.1514 14.1879 13.9273 14.4776C14.154 14.562 14.727 14.7792 14.9179 15.6963C14.9537 15.8532 14.9776 15.998 14.9895 16.1549C15.7176 15.6963 16.2905 14.9602 16.4338 14.1517C16.5651 13.3794 16.398 12.9812 16.1831 12.945C15.8967 12.8968 15.3715 14.3569 15.2879 14.3207C15.2044 14.2724 15.2879 14.0793 15.3596 13.8501C15.8609 12.1245 16.6009 11.4729 16.8515 11.4729C17.1022 11.4729 17.4364 12.2693 17.4364 13.3191C17.4364 14.9844 16.4696 16.903 14.9657 17.627C14.8344 18.3993 14.536 19.0751 14.166 19.5457C13.1514 20.8489 10.9672 22.2005 8.18612 21.5609C7.94741 21.5126 7.72063 21.4402 7.50579 21.3799C7.7445 21.6454 7.99515 21.8988 8.2458 22.1401C8.34129 22.1643 8.52033 22.2005 8.86647 22.2608C10.0481 22.4659 12.5666 22.5263 15.1447 21.573Z" fill="black" fill-opacity="0.61"/>
</g>
<g clip-path="url(#clip1_153_1951)">
<path d="M17.9426 9.00029C17.5487 8.57794 16.2955 9.1813 15.4839 10.1105C14.7796 10.9189 14.338 12.1136 14.338 12.1136C14.517 12.0894 15.7703 11.474 16.8803 10.5931C17.2981 10.2553 18.3365 9.42264 17.9426 9.00029ZM17.3697 22.5033C16.021 23.0101 13.8248 23.4083 11.8196 22.8774C11.3779 22.7567 11.0557 22.636 10.8169 22.5274C13.1564 24.615 15.4361 25.508 16.8684 24.7116C18.7185 23.6738 20.3775 21.8879 21.583 19.7279C20.3895 21.1277 18.7423 21.9844 17.3697 22.5033ZM15.5674 14.9373C15.1377 14.8407 14.6125 16.2043 15.1496 16.337C15.2093 16.3491 15.2929 16.3612 15.3764 16.3491C15.639 16.337 15.9135 16.2767 16.1642 16.1922C16.1284 15.3837 15.9135 15.0217 15.5674 14.9373ZM12.0344 9.26577C12.6431 9.59157 12.5476 10.4725 12.7744 11.2327C12.9893 12.005 13.6219 12.0653 13.6219 12.0653C13.6219 12.0653 14.9109 9.55537 13.8128 7.52811C12.7147 5.50085 10.9005 6.20074 10.4469 6.43001C9.83821 6.71962 7.48685 8.25213 6.30521 11.474C5.1355 14.6597 6.81845 15.7458 7.85686 15.9268C8.89528 16.1078 10.4827 15.0459 10.5424 14.5029C10.5663 14.2132 10.3634 14.0322 10.0531 13.9598C9.74272 13.8874 8.89528 14.0684 8.35817 13.4289C7.7017 12.6325 8.8356 10.8707 9.4682 10.2553C10.1127 9.60364 11.0795 8.77102 12.0344 9.26577ZM17.7875 17.9058C17.9307 17.7489 18.3723 17.3145 18.5275 17.1697C18.5514 17.1455 18.5991 17.1455 18.623 17.1817C18.7662 17.3386 19.1959 17.7489 19.351 17.9058C19.3749 17.942 19.3749 17.9902 19.351 18.0144C19.1959 18.1712 18.7781 18.5936 18.623 18.7505C18.5991 18.7746 18.5514 18.7746 18.5275 18.7505C18.3723 18.5936 17.9546 18.1712 17.7875 18.0144C17.7755 17.9782 17.7755 17.9299 17.7875 17.9058ZM13.5144 15.1786C13.3593 15.3355 12.9296 15.7578 12.7864 15.9147C12.7625 15.9388 12.7147 15.9388 12.6909 15.9147C12.5357 15.7578 12.106 15.3355 11.9508 15.1786C11.927 15.1424 11.927 15.1062 11.9508 15.0821C12.0941 14.9252 12.5357 14.4908 12.6909 14.346C12.7147 14.3218 12.7625 14.3218 12.7864 14.346C12.9296 14.5029 13.3593 14.9131 13.5144 15.07C13.5383 15.0941 13.5383 15.1545 13.5144 15.1786ZM17.9068 6.04387C17.7517 6.20074 17.322 6.62308 17.1787 6.77995C17.1549 6.80409 17.1071 6.80409 17.0832 6.77995C16.9281 6.62308 16.4984 6.20074 16.3432 6.04387C16.3194 6.00766 16.3194 5.97146 16.3432 5.94733C16.4865 5.79046 16.9281 5.35604 17.0832 5.21124C17.1071 5.18711 17.1549 5.18711 17.1787 5.21124C17.322 5.36811 17.7517 5.77839 17.9068 5.93526C17.9307 5.97146 17.9307 6.01973 17.9068 6.04387ZM16.9997 21.2845C19.9836 20.1864 20.9146 18.5332 21.583 17.3869C23.0034 14.9614 23.0392 12.2343 22.9199 11.4499V11.4137C22.8482 10.75 22.6573 10.0863 22.514 10.0863C21.8934 10.0501 21.0459 14.5149 20.5566 16.9887C20.5088 17.2421 20.473 17.4955 20.3298 17.761C20.2104 17.9782 20.1508 18.0626 20.0791 18.1471C19.9956 18.2436 19.8524 18.3402 19.8882 18.1592C21.0101 12.1498 21.7263 8.92789 22.3827 7.62465C22.4544 7.47984 22.526 7.39537 22.6095 7.35917C22.4902 7.06956 22.3469 6.79202 22.1918 6.51448C18.6826 0.08275 9.3369 -1.5101 4.12095 1.39806C1.85315 2.6651 2.05605 8.68655 5.08775 14.7925C4.80129 13.0789 5.19518 11.5585 6.03068 9.79671C7.16459 7.41951 10.7811 3.9804 13.5144 5.0423C15.8419 5.94733 14.9467 9.63984 14.9467 9.63984C14.9467 9.63984 16.5581 7.45571 17.8471 7.39537C18.5275 7.35917 19.6853 7.86599 18.2888 10.1708C16.6536 12.8738 13.9203 14.0805 12.9535 13.5254C12.106 13.0307 12.0941 12.0653 12.0463 11.8119C11.9867 11.5585 11.8554 10.6897 11.0676 10.6293C10.2798 10.569 8.87141 11.6671 9.05044 12.1619C9.20561 12.5842 10.244 12.2463 10.7215 12.548C11.1989 12.8497 11.3899 13.3082 11.2108 14.1046C10.6976 16.4939 8.72817 17.9178 7.36749 17.592C7.04522 17.5075 6.72296 17.3869 6.4365 17.2059C6.86619 17.8937 7.30781 18.5332 7.74944 19.1487L8.15526 18.4488C8.16719 18.4246 8.19106 18.4126 8.21494 18.4126C9.01464 18.4488 9.9695 18.123 10.4231 17.761C10.0769 18.9194 9.59949 19.6675 8.02396 19.5107C8.0359 19.5348 8.05977 19.5589 8.0717 19.571C8.3701 19.7158 8.71624 19.8727 9.12206 20.0296C11.4734 20.9346 13.5741 19.7279 13.9441 19.4865C14.2425 19.2935 15.4361 18.5815 15.9374 17.6161C15.7464 17.6403 15.5435 17.6524 15.3406 17.6524C15.1855 17.6403 15.0422 17.6282 14.9945 17.6282C14.7558 17.6161 13.5264 17.4231 14.3261 15.5406C14.4693 15.2027 15.0064 13.8995 15.7822 14.1891C16.009 14.2736 16.5819 14.4908 16.7729 15.4079C16.8087 15.5648 16.8326 15.7096 16.8445 15.8664C17.5726 15.4079 18.1455 14.6718 18.2888 13.8633C18.4201 13.091 18.253 12.6928 18.0381 12.6566C17.7517 12.6083 17.2265 14.0684 17.1429 14.0322C17.0594 13.984 17.1429 13.7909 17.2145 13.5616C17.7158 11.836 18.4559 11.1844 18.7065 11.1844C18.9572 11.1844 19.2914 11.9808 19.2914 13.0307C19.2914 14.6959 18.3246 16.6146 16.8207 17.3386C16.6894 18.1109 16.391 18.7867 16.021 19.2573C15.0064 20.5605 12.8222 21.912 10.0411 21.2725C9.8024 21.2242 9.57562 21.1518 9.36077 21.0915C9.59949 21.3569 9.85014 21.6103 10.1008 21.8517C10.1963 21.8758 10.3753 21.912 10.7215 21.9723C11.9031 22.1775 14.4216 22.2378 16.9997 21.2845Z" fill="#C32034"/>
</g>
<defs>
<clipPath id="clip0_153_1951">
<rect width="20.3704" height="25" fill="white"/>
</clipPath>
<clipPath id="clip1_153_1951">
<rect width="20.3704" height="25" fill="white" transform="translate(2.59277)"/>
</clipPath>
</defs>
</svg>
