<svg width="15" height="15" viewBox="0 0 15 15" fill="none" xmlns="http://www.w3.org/2000/svg">
<g clip-path="url(#clip0_118_1514)">
<path d="M4.20642 3.38623C3.83605 3.51851 3.70377 3.2275 3.51859 2.98941C3.12176 2.38094 2.69848 1.77248 2.30166 1.16401C2.24875 1.08465 2.19584 0.978825 2.14293 0.873005C2.14293 0.84655 2.16938 0.820095 2.19584 0.79364C2.30166 0.84655 2.40748 0.873005 2.48684 0.925915C2.96303 1.26983 3.41277 1.69311 3.88896 2.01057C4.41806 2.38094 4.84134 2.83068 5.1588 3.41269C5.29107 3.67724 5.52917 3.80951 5.76726 3.91533C6.66674 4.33861 7.59266 4.15343 8.51859 4.12697C9.55033 4.10052 10.6085 3.94179 11.6138 4.36507C11.9577 4.49734 12.3281 4.68253 12.6456 4.92062C13.1218 5.23808 13.545 5.60846 13.9948 5.95237C14.2064 6.1111 14.2593 6.40211 14.1535 6.6402C14.0477 6.8783 13.7302 7.03703 13.5186 6.90475C13.2276 6.74602 12.963 6.56084 12.6985 6.37565C11.9048 5.84655 11.0583 5.39681 10.1323 5.37036C9.41806 5.3439 8.70377 5.44972 7.98949 5.52909C7.40748 5.582 6.82547 5.68782 6.26991 5.37036C5.97891 5.18517 5.87308 5.44972 5.76726 5.63491C5.71435 5.71427 5.76726 5.92592 5.82017 6.03174C6.13764 6.48147 6.4551 6.93121 6.79901 7.4074C6.69319 7.38094 6.58737 7.32803 6.42864 7.30158C6.48155 7.6984 6.58737 8.06877 6.61383 8.4656C6.7461 9.8148 7.11647 11.0582 7.96303 12.0635C8.28049 12.4339 8.65086 12.7513 8.99478 13.0688C9.15351 13.2275 9.31224 13.3862 9.23287 13.6508C9.17996 13.9153 9.1006 14.1799 8.80959 14.2328C8.70377 14.2328 8.59795 14.2328 8.51859 14.2063C6.7461 13.0423 5.60853 11.4021 5.39689 9.02115C5.34398 8.43914 5.31753 7.85713 5.18525 7.30158C5.13234 7.01057 4.9207 6.71957 4.76197 6.45502C4.47097 6.00528 4.20642 5.52909 3.67732 5.37036C3.20113 5.23808 2.85721 4.89417 2.48684 4.55025C1.95774 4.04761 1.40219 3.57142 0.846631 3.06877C0.767266 3.01586 0.767266 2.85713 0.714355 2.75131C0.820176 2.75131 0.925996 2.72486 0.978906 2.75131C1.71965 3.04232 2.43393 3.35978 3.17467 3.70369C3.28049 3.7566 3.35986 3.91533 3.43922 4.04761C3.49213 4.12697 3.54504 4.25925 3.59795 4.25925C3.67732 4.25925 3.80959 4.20634 3.8625 4.12697C3.99478 3.94179 4.07414 3.73015 4.17996 3.54496C4.23287 3.4656 4.20642 3.41269 4.20642 3.38623Z" fill="#1CBCFF"/>
<path d="M6.98438 5.9259C7.19602 5.95236 7.43411 6.00527 7.64575 6.03172C7.64575 6.05818 7.64575 6.11109 7.64575 6.164C7.43411 6.13754 7.19602 6.11109 6.98438 6.08463C6.98438 6.03172 6.98438 5.97881 6.98438 5.9259Z" fill="#1CBCFF"/>
<path d="M7.3811 6.64021C7.16946 6.56084 6.93137 6.48148 6.71973 6.40211C6.74618 6.3492 6.74618 6.29629 6.77264 6.26984C6.98428 6.3492 7.19592 6.45502 7.40756 6.53439C7.40756 6.56084 7.3811 6.5873 7.3811 6.64021Z" fill="#1CBCFF"/>
<path d="M7.11668 7.06347C6.90504 6.9312 6.71985 6.82538 6.53467 6.6931C6.56112 6.66665 6.56112 6.61374 6.58758 6.58728C6.79922 6.71956 6.9844 6.82538 7.16959 6.95765C7.14313 6.98411 7.11668 7.01056 7.11668 7.06347Z" fill="#1CBCFF"/>
</g>
<defs>
<clipPath id="clip0_118_1514">
<rect width="15" height="15" fill="white"/>
</clipPath>
</defs>
</svg>
