<svg width="15" height="15" viewBox="0 0 15 15" fill="none" xmlns="http://www.w3.org/2000/svg">
<g clip-path="url(#clip0_118_1488)">
<path d="M7.51303 0.0793762C3.72996 0.0793762 0.793457 3.1217 0.793457 6.79895C0.793457 11.0582 1.98393 11.5079 3.75642 11.3228C3.75642 11.3228 4.39134 14.9206 5.50245 14.9206C6.61356 14.9206 7.61885 14.9206 7.61885 14.9206C7.61885 14.9206 8.62415 14.9206 9.65589 14.9206C10.6876 14.9206 11.4019 11.3228 11.4019 11.3228C13.148 11.5079 14.3649 11.0582 14.3649 6.79895C14.3649 3.1217 11.3226 0.0793762 7.51303 0.0793762ZM3.78288 9.127C2.85695 8.83599 2.40721 7.67197 2.77758 6.48149C3.14795 5.29102 4.1797 4.60319 5.10563 4.89419C6.03155 5.1852 6.48129 6.34922 6.11092 7.53969C5.767 8.67726 4.7088 9.418 3.78288 9.127ZM7.61885 10.8466C6.87811 10.8466 6.24319 12.4074 6.24319 10.7672C6.24319 10.6878 6.24319 10.582 6.24319 10.5027C6.42838 9.76192 7.0633 8.57144 7.53949 8.57144C8.09504 8.57144 8.91515 9.9471 8.91515 10.6085C8.91515 10.6085 8.91515 10.6878 8.99452 10.7937C8.99452 12.3545 8.25377 10.8466 7.61885 10.8466ZM11.4019 9.10054C10.476 9.39155 9.44425 8.67726 9.07388 7.51324C8.70351 6.32276 9.1797 5.15874 10.0792 4.86774C11.0051 4.57673 12.0368 5.29102 12.4072 6.45504C12.7776 7.64551 12.3278 8.80954 11.4019 9.10054Z" fill="#F44E1C"/>
</g>
<defs>
<clipPath id="clip0_118_1488">
<rect width="15" height="15" fill="white"/>
</clipPath>
</defs>
</svg>
