<svg width="151" height="151" viewBox="0 0 151 151" fill="none" xmlns="http://www.w3.org/2000/svg">
<path opacity="0.25" fill-rule="evenodd" clip-rule="evenodd" d="M75.7773 16.9665C68.1169 16.9665 60.5315 18.4753 53.4541 21.4068C46.3768 24.3384 39.9462 28.6352 34.5294 34.0519C29.1127 39.4687 24.8159 45.8993 21.8844 52.9766C18.9528 60.0539 17.444 67.6394 17.444 75.2998C17.444 82.9602 18.9528 90.5457 21.8844 97.623C24.8159 104.7 29.1127 111.131 34.5294 116.548C39.9462 121.964 46.3768 126.261 53.4541 129.193C60.5315 132.124 68.1169 133.633 75.7773 133.633C91.2483 133.633 106.086 127.487 117.025 116.548C127.965 105.608 134.111 90.7708 134.111 75.2998C134.111 59.8288 127.965 44.9915 117.025 34.0519C106.086 23.1123 91.2483 16.9665 75.7773 16.9665ZM0.777344 75.2998C0.777344 55.4086 8.67911 36.332 22.7443 22.2668C36.8096 8.20157 55.8861 0.299805 75.7773 0.299805C95.6686 0.299805 114.745 8.20157 128.81 22.2668C142.876 36.332 150.777 55.4086 150.777 75.2998C150.777 95.191 142.876 114.268 128.81 128.333C114.745 142.398 95.6686 150.3 75.7773 150.3C55.8861 150.3 36.8096 142.398 22.7443 128.333C8.67911 114.268 0.777344 95.191 0.777344 75.2998ZM117.444 75.8748C117.444 78.0849 116.566 80.2046 115.003 81.7674C113.44 83.3302 111.321 84.2081 109.111 84.2081H84.6857V108.633C84.6857 110.843 83.8077 112.963 82.2449 114.526C80.6821 116.088 78.5625 116.966 76.3523 116.966C74.1422 116.966 72.0226 116.088 70.4598 114.526C68.897 112.963 68.019 110.843 68.019 108.633V84.2081H42.444C40.2339 84.2081 38.1143 83.3302 36.5515 81.7674C34.9886 80.2046 34.1107 78.0849 34.1107 75.8748C34.1107 73.6647 34.9886 71.5451 36.5515 69.9822C38.1143 68.4194 40.2339 67.5415 42.444 67.5415H68.019V41.9665C68.019 39.7563 68.897 37.6367 70.4598 36.0739C72.0226 34.5111 74.1422 33.6331 76.3523 33.6331C78.5625 33.6331 80.6821 34.5111 82.2449 36.0739C83.8077 37.6367 84.6857 39.7563 84.6857 41.9665V67.5415H109.111C111.321 67.5415 113.44 68.4194 115.003 69.9822C116.566 71.5451 117.444 73.6647 117.444 75.8748Z" fill="white"/>
</svg>
