<svg width="17" height="17" viewBox="0 0 17 17" fill="none" xmlns="http://www.w3.org/2000/svg">
<path opacity="0.25" fill-rule="evenodd" clip-rule="evenodd" d="M8.5 1.88889C7.63182 1.88889 6.77213 2.05989 5.97004 2.39213C5.16794 2.72437 4.43914 3.21134 3.82524 3.82524C3.21134 4.43914 2.72437 5.16794 2.39213 5.97004C2.05989 6.77213 1.88889 7.63182 1.88889 8.5C1.88889 9.36818 2.05989 10.2279 2.39213 11.03C2.72437 11.8321 3.21134 12.5609 3.82524 13.1748C4.43914 13.7887 5.16794 14.2756 5.97004 14.6079C6.77213 14.9401 7.63182 15.1111 8.5 15.1111C10.2534 15.1111 11.9349 14.4146 13.1748 13.1748C14.4146 11.9349 15.1111 10.2534 15.1111 8.5C15.1111 6.74662 14.4146 5.06506 13.1748 3.82524C11.9349 2.58541 10.2534 1.88889 8.5 1.88889ZM0 8.5C0 6.24566 0.895533 4.08365 2.48959 2.48959C4.08365 0.895533 6.24566 0 8.5 0C10.7543 0 12.9163 0.895533 14.5104 2.48959C16.1045 4.08365 17 6.24566 17 8.5C17 10.7543 16.1045 12.9163 14.5104 14.5104C12.9163 16.1045 10.7543 17 8.5 17C6.24566 17 4.08365 16.1045 2.48959 14.5104C0.895533 12.9163 0 10.7543 0 8.5ZM13.2222 8.56517C13.2222 8.81565 13.1227 9.05587 12.9456 9.23299C12.7685 9.41011 12.5283 9.50961 12.2778 9.50961H9.50961V12.2778C9.50961 12.5283 9.41011 12.7685 9.23299 12.9456C9.05587 13.1227 8.81565 13.2222 8.56517 13.2222C8.31468 13.2222 8.07446 13.1227 7.89734 12.9456C7.72023 12.7685 7.62072 12.5283 7.62072 12.2778V9.50961H4.72222C4.47174 9.50961 4.23152 9.41011 4.0544 9.23299C3.87728 9.05587 3.77778 8.81565 3.77778 8.56517C3.77778 8.31468 3.87728 8.07446 4.0544 7.89734C4.23152 7.72023 4.47174 7.62072 4.72222 7.62072H7.62072V4.72222C7.62072 4.47174 7.72023 4.23152 7.89734 4.0544C8.07446 3.87728 8.31468 3.77778 8.56517 3.77778C8.81565 3.77778 9.05587 3.87728 9.23299 4.0544C9.41011 4.23152 9.50961 4.47174 9.50961 4.72222V7.62072H12.2778C12.5283 7.62072 12.7685 7.72023 12.9456 7.89734C13.1227 8.07446 13.2222 8.31468 13.2222 8.56517Z" fill="white"/>
</svg>
