<svg width="20" height="24" viewBox="0 0 20 24" fill="none" xmlns="http://www.w3.org/2000/svg">
<path d="M19.2857 18.4688C17.1429 18.4688 17.1429 10.5625 17.1429 10.5625C17.1429 7.25481 14.9193 4.47613 11.8971 3.6395C12.0486 3.34337 12.1429 3.01275 12.1429 2.65625C12.1429 1.46528 11.1836 0.5 10 0.5C8.81643 0.5 7.85714 1.46528 7.85714 2.65625C7.85714 3.01275 7.95143 3.34337 8.10286 3.6395C5.08071 4.47613 2.85714 7.25481 2.85714 10.5625C2.85714 10.5625 2.85714 18.4688 0.714286 18.4688C0.32 18.4688 0 18.7908 0 19.1875C0 19.5842 0.32 19.9062 0.714286 19.9062H7.24357C7.18429 20.137 7.14286 20.3756 7.14286 20.625C7.14286 22.2127 8.42214 23.5 10 23.5C11.5779 23.5 12.8571 22.2127 12.8571 20.625C12.8571 20.3756 12.8157 20.137 12.7564 19.9062H19.2857C19.68 19.9062 20 19.5842 20 19.1875C20 18.7908 19.68 18.4688 19.2857 18.4688ZM9.28571 2.65625C9.28571 2.26022 9.60643 1.9375 10 1.9375C10.3936 1.9375 10.7143 2.26022 10.7143 2.65625C10.7143 3.05228 10.3936 3.375 10 3.375C9.60643 3.375 9.28571 3.05228 9.28571 2.65625ZM4.28571 10.5625C4.28571 7.39209 6.84929 4.8125 10 4.8125C13.1507 4.8125 15.7143 7.39209 15.7143 10.5625C15.7143 10.6473 15.7171 12.6605 15.995 14.7097C16.045 15.0784 16.1264 15.6656 16.275 16.3125H3.72429C3.87286 15.6656 3.95429 15.0784 4.00429 14.7097C4.28286 12.6605 4.28571 10.6473 4.28571 10.5625ZM10 22.0625C9.21214 22.0625 8.57143 21.4178 8.57143 20.625C8.57143 20.5273 8.58929 20.4137 8.62714 20.2663L8.90429 19.1875H11.095L11.3729 20.2663C11.4107 20.4137 11.4286 20.5273 11.4286 20.625C11.4286 21.4178 10.7879 22.0625 10 22.0625ZM2.92714 18.4688C3.18714 18.0282 3.38143 17.5279 3.53286 17.0312H16.4671C16.6186 17.5279 16.8129 18.0282 17.0729 18.4688H2.92714Z" fill="#242424"/>
</svg>
