<svg width="20" height="15" viewBox="0 0 20 15" fill="none" xmlns="http://www.w3.org/2000/svg">
<g clip-path="url(#clip0_202_19212)">
<path d="M0 0H20V15H0V0Z" fill="#E41E20"/>
<path d="M8.4999 2.91565C8.35615 2.91565 8.11553 2.96252 8.11865 3.0719C7.7124 3.00627 7.67178 3.1719 7.69678 3.3219C7.73428 3.26252 7.78115 3.22815 7.81865 3.22502C7.87178 3.21565 7.92803 3.2344 7.9874 3.26877C8.04341 3.30391 8.09395 3.34708 8.1374 3.3969C7.99365 3.43127 7.88115 3.4094 7.76865 3.39065C7.70508 3.3771 7.64464 3.35165 7.59053 3.31565C7.54365 3.2844 7.52803 3.25315 7.45615 3.18127C7.37178 3.09377 7.28115 3.11877 7.30928 3.25315C7.3749 3.37815 7.48428 3.4344 7.62178 3.4594C7.6874 3.46877 7.7874 3.49065 7.8999 3.49065C8.0124 3.49065 8.1374 3.47502 8.20615 3.49065C8.16553 3.51565 8.11865 3.56252 8.0249 3.57815C7.93115 3.5969 7.79053 3.5219 7.70303 3.50315C7.7124 3.57502 7.80615 3.64377 7.9874 3.68127C8.2874 3.74377 8.53428 3.79377 8.6999 3.8844C8.83088 3.95743 8.94654 4.05505 9.04053 4.1719C9.1874 4.34377 9.19678 4.47815 9.20303 4.5094C9.23428 4.7844 9.1374 4.94065 8.95615 4.99065C8.86865 5.01252 8.70615 4.96877 8.6499 4.90002C8.5874 4.83127 8.53428 4.71252 8.5499 4.52502C8.56553 4.45627 8.64678 4.26565 8.57803 4.22815C8.25218 4.04909 7.91501 3.89146 7.56865 3.75627C7.49053 3.72502 7.42803 3.83127 7.40303 3.87502C7.17228 3.84286 6.95159 3.7597 6.757 3.63159C6.5624 3.50348 6.39878 3.33364 6.27803 3.1344C6.14678 2.8969 5.9249 3.1344 5.9624 3.36252C6.02178 3.61252 6.2124 3.79377 6.44365 3.92502C6.67803 4.05315 6.9749 4.18127 7.27178 4.17502C7.43428 4.20627 7.43115 4.41252 7.24053 4.45315C6.8624 4.45315 6.55928 4.4469 6.2749 4.1719C6.05928 3.97502 5.94053 4.2094 5.9999 4.34065C6.10615 4.75002 6.69053 4.86565 7.28115 4.7344C7.5124 4.6969 7.3749 4.94065 7.3124 4.94377C7.0624 5.1219 6.62178 5.29377 6.23115 4.94377C6.05303 4.80627 5.93115 4.91877 5.9999 5.11565C6.17178 5.63127 6.83428 5.5219 7.2874 5.2719C7.40303 5.20627 7.50928 5.35627 7.36865 5.4719C6.80303 5.86565 6.52178 5.8719 6.26553 5.7219C5.94678 5.59377 5.92178 5.9469 6.10928 6.06565C6.31865 6.19065 6.85303 6.0969 7.24678 5.8469C7.41553 5.7219 7.42178 5.91877 7.31553 5.9969C6.8499 6.40002 6.66553 6.50627 6.18115 6.44065C5.94053 6.4219 5.94365 6.71877 6.13115 6.8344C6.39053 6.99377 6.89678 6.73127 7.2874 6.40315C7.45303 6.31565 7.48115 6.4594 7.3999 6.63127C7.22691 6.87605 6.99174 7.07023 6.71865 7.19377C6.4999 7.27815 6.29365 7.26565 6.14678 7.21565C5.96553 7.15315 5.94365 7.34065 6.04365 7.5094C6.10303 7.61252 6.3499 7.64377 6.61865 7.55002C6.8874 7.45627 7.1749 7.23127 7.37178 6.9719C7.54365 6.81877 7.5249 7.0219 7.44365 7.16565C7.0499 7.79065 6.6874 8.0219 6.20928 7.9844C5.9999 7.9469 5.9499 8.1094 6.08428 8.26565C6.32178 8.4594 6.61553 8.45315 6.87803 8.2594C7.10615 8.04065 7.54678 7.5594 7.77803 7.30315C7.94053 7.17502 7.99365 7.30315 7.94365 7.56565C7.8999 7.71565 7.79365 7.87815 7.49678 7.99065C7.29365 8.10627 7.44678 8.26565 7.59678 8.2719C7.68115 8.2719 7.8499 8.1719 7.98115 8.02815C8.1499 7.8344 8.1624 7.70627 8.25615 7.40627C8.34365 7.26252 8.50303 7.33127 8.50303 7.48127C8.4249 7.78127 8.3624 7.8344 8.20615 7.95627C8.05928 8.0969 8.30928 8.14377 8.39365 8.0844C8.6374 7.9219 8.7249 7.7094 8.80615 7.51565C8.86865 7.37815 9.0374 7.44377 8.95615 7.6719C8.76865 8.21565 8.45615 8.42815 7.91553 8.54065C7.8624 8.55002 7.82803 8.58127 7.84678 8.64377L8.06553 8.86252C7.73115 8.96252 7.45928 9.01877 7.12178 9.11252L6.65928 8.80627C6.61865 8.70627 6.59678 8.55002 6.35303 8.6594C6.19053 8.5844 6.1124 8.61252 6.02178 8.69065C6.15303 8.69065 6.20928 8.72815 6.2624 8.78752C6.33115 8.96565 6.4874 8.9844 6.64678 8.9344C6.7499 9.01877 6.80303 9.08752 6.90928 9.17502L6.3874 9.1594C6.1999 8.96252 6.05615 8.9719 5.9249 9.12815C5.82178 9.14377 5.78115 9.14377 5.7124 9.26565C5.81865 9.2219 5.8874 9.2094 5.93428 9.25627C6.13115 9.3719 6.25928 9.3469 6.35615 9.25627L6.90303 9.29065C6.83428 9.35315 6.74053 9.3844 6.66865 9.44065C6.3874 9.3594 6.2374 9.4719 6.1874 9.70002C6.1479 9.79147 6.13491 9.89217 6.1499 9.99065C6.1749 9.8969 6.22178 9.81877 6.30303 9.7719C6.55303 9.8344 6.64678 9.73127 6.6624 9.58127C6.7874 9.48127 6.96865 9.4594 7.09053 9.3594C7.23428 9.40315 7.30303 9.43127 7.44678 9.47815C7.49678 9.6344 7.6124 9.69377 7.7999 9.65315C8.01865 9.6594 7.98115 9.75315 7.9999 9.82502C8.0624 9.7219 8.05928 9.61877 7.92178 9.52502C7.87178 9.39065 7.75928 9.32815 7.61553 9.40627C7.47803 9.36877 7.44365 9.31252 7.30615 9.2719C7.6499 9.16252 7.89365 9.13752 8.2374 9.02815L8.47803 9.24065C8.5249 9.26877 8.56865 9.27502 8.59678 9.24065C8.8124 8.92815 8.90928 8.65627 9.10615 8.45002C9.18428 8.36252 9.28115 8.25002 9.3874 8.2219C9.44053 8.20627 9.50615 8.21565 9.5499 8.26252C9.59053 8.30627 9.6249 8.39065 9.6124 8.51877C9.59053 8.6969 9.54678 8.75627 9.49678 8.86252C9.44365 8.9719 9.38428 9.03752 9.31865 9.1219C9.19365 9.28752 9.0249 9.3844 8.9249 9.45002C8.7249 9.57815 8.64365 9.5219 8.4874 9.51252C8.2874 9.5344 8.2374 9.63127 8.3999 9.76565C8.5499 9.8469 8.6874 9.85627 8.7999 9.8344C8.89365 9.81565 9.00615 9.69377 9.0874 9.62815C9.1749 9.52502 9.3249 9.6469 9.22178 9.76877C9.0374 9.98752 8.85615 10.1313 8.62803 10.1281C8.3874 10.1594 8.43428 10.2938 8.59053 10.3594C8.87803 10.475 9.13428 10.2563 9.26553 10.1094C9.36553 10 9.4374 9.9969 9.42178 10.1688C9.31865 10.4781 9.18428 10.5969 8.95928 10.6125C8.77803 10.5938 8.7749 10.7375 8.90928 10.8313C9.20928 11.0375 9.42803 10.6813 9.53115 10.4688C9.60303 10.275 9.71553 10.3656 9.72803 10.525C9.72803 10.7406 9.63428 10.9125 9.3749 11.1313C9.57178 11.4469 9.80303 11.7688 9.9999 12.0844L10.5999 5.3969L9.9999 4.34377C9.9374 4.28752 9.7249 4.03752 9.67178 4.00002C9.6499 3.98127 9.64053 3.96877 9.66865 3.95627C9.69678 3.94377 9.7624 3.93127 9.80928 3.92502C9.68428 3.7969 9.57178 3.75627 9.33115 3.68752C9.39053 3.66252 9.44678 3.67502 9.62178 3.66877C9.5144 3.5245 9.36803 3.41391 9.1999 3.35002C9.33115 3.25627 9.35615 3.25002 9.4874 3.14065C9.28038 3.12466 9.0759 3.08481 8.87803 3.0219C8.75986 2.96574 8.63309 2.92983 8.50303 2.91565H8.4999ZM8.5249 3.17815C8.64365 3.17815 8.71553 3.21877 8.71553 3.26877C8.71553 3.31877 8.64365 3.3594 8.5249 3.3594C8.40615 3.3594 8.33115 3.31252 8.33115 3.26565C8.33115 3.21565 8.40615 3.17815 8.5249 3.17815Z" fill="black"/>
<path d="M11.5001 2.91565C11.6438 2.91565 11.8845 2.96252 11.8813 3.0719C12.2876 3.00627 12.3282 3.1719 12.3032 3.3219C12.2657 3.26252 12.2188 3.22815 12.1813 3.22502C12.1282 3.21565 12.072 3.2344 12.0126 3.26877C11.9566 3.30391 11.9061 3.34708 11.8626 3.3969C12.0063 3.43127 12.1188 3.4094 12.2313 3.39065C12.2949 3.3771 12.3554 3.35165 12.4095 3.31565C12.4563 3.2844 12.472 3.25315 12.5438 3.18127C12.6282 3.09377 12.7188 3.11877 12.6907 3.25315C12.6251 3.37815 12.5157 3.4344 12.3782 3.4594C12.3126 3.46877 12.2126 3.49065 12.1001 3.49065C11.9876 3.49065 11.8626 3.47502 11.7938 3.49065C11.8345 3.51565 11.8813 3.56252 11.9751 3.57815C12.0688 3.5969 12.2095 3.5219 12.297 3.50315C12.2876 3.57502 12.1938 3.64377 12.0126 3.68127C11.7126 3.74377 11.4657 3.79377 11.3001 3.8844C11.1691 3.95743 11.0535 4.05505 10.9595 4.1719C10.8126 4.34377 10.8032 4.47815 10.797 4.5094C10.7657 4.7844 10.8626 4.94065 11.0438 4.99065C11.1313 5.01252 11.2938 4.96877 11.3501 4.90002C11.4126 4.83127 11.4657 4.71252 11.4501 4.52502C11.4345 4.45627 11.3532 4.26565 11.422 4.22815C11.7478 4.04909 12.085 3.89146 12.4313 3.75627C12.5095 3.72502 12.572 3.83127 12.597 3.87502C12.8277 3.84286 13.0484 3.7597 13.243 3.63159C13.4376 3.50348 13.6012 3.33364 13.722 3.1344C13.8532 2.8969 14.0751 3.1344 14.0376 3.36252C13.9782 3.61252 13.7876 3.79377 13.5563 3.92502C13.322 4.05315 13.0251 4.18127 12.7282 4.17502C12.5657 4.20627 12.5688 4.41252 12.7595 4.45315C13.1376 4.45315 13.4407 4.4469 13.7251 4.1719C13.9407 3.97502 14.0595 4.2094 14.0001 4.34065C13.8938 4.75002 13.3095 4.86565 12.7188 4.7344C12.4876 4.6969 12.6251 4.94065 12.6876 4.94377C12.9376 5.1219 13.3782 5.29377 13.7688 4.94377C13.947 4.80627 14.0688 4.91877 14.0001 5.11565C13.8282 5.63127 13.1657 5.5219 12.7126 5.2719C12.597 5.20627 12.4907 5.35627 12.6313 5.4719C13.197 5.86565 13.4782 5.8719 13.7345 5.7219C14.0532 5.59377 14.0782 5.9469 13.8907 6.06565C13.6813 6.19065 13.147 6.0969 12.7532 5.8469C12.5845 5.7219 12.5782 5.91877 12.6845 5.9969C13.1501 6.40002 13.3345 6.50627 13.8188 6.44065C14.0595 6.4219 14.0563 6.71877 13.8688 6.8344C13.6095 6.99377 13.1032 6.73127 12.7126 6.40315C12.547 6.31565 12.5188 6.4594 12.6001 6.63127C12.7731 6.87605 13.0083 7.07023 13.2813 7.19377C13.5001 7.27815 13.7063 7.26565 13.8532 7.21565C14.0345 7.15315 14.0563 7.34065 13.9563 7.5094C13.897 7.61252 13.6501 7.64377 13.3813 7.55002C13.1126 7.45627 12.8251 7.23127 12.6282 6.9719C12.4563 6.81877 12.4751 7.0219 12.5563 7.16565C12.9501 7.79065 13.3126 8.0219 13.7907 7.9844C14.0001 7.9469 14.0501 8.1094 13.9157 8.26565C13.6782 8.4594 13.3845 8.45315 13.122 8.2594C12.8938 8.04065 12.4532 7.5594 12.222 7.30315C12.0595 7.17502 12.0063 7.30315 12.0563 7.56565C12.1001 7.71565 12.2063 7.87815 12.5032 7.99065C12.7063 8.10627 12.5532 8.26565 12.4032 8.2719C12.3188 8.2719 12.1501 8.1719 12.0188 8.02815C11.8501 7.8344 11.8376 7.70627 11.7438 7.40627C11.6563 7.26252 11.497 7.33127 11.497 7.48127C11.5751 7.78127 11.6376 7.8344 11.7938 7.95627C11.9407 8.0969 11.6907 8.14377 11.6063 8.0844C11.3626 7.9219 11.2751 7.7094 11.1938 7.51565C11.1313 7.37815 10.9626 7.44377 11.0438 7.6719C11.2313 8.21565 11.5438 8.42815 12.0845 8.54065C12.1376 8.55002 12.172 8.58127 12.1532 8.64377L11.9345 8.86252C12.2688 8.96252 12.5407 9.01877 12.8782 9.11252L13.3407 8.80627C13.3813 8.70627 13.4032 8.55002 13.647 8.6594C13.8095 8.5844 13.8876 8.61252 13.9782 8.69065C13.847 8.69065 13.7907 8.72815 13.7376 8.78752C13.6688 8.96565 13.5126 8.9844 13.3532 8.9344C13.2501 9.01877 13.197 9.08752 13.0907 9.17502L13.6126 9.1594C13.8001 8.96252 13.9438 8.9719 14.0751 9.12815C14.1782 9.14377 14.2188 9.14377 14.2876 9.26565C14.1813 9.2219 14.1126 9.2094 14.0657 9.25627C13.8688 9.3719 13.7407 9.3469 13.6438 9.25627L13.097 9.29065C13.1657 9.35315 13.2595 9.3844 13.3313 9.44065C13.6126 9.3594 13.7626 9.4719 13.8126 9.70002C13.8521 9.79147 13.8651 9.89217 13.8501 9.99065C13.8251 9.8969 13.7782 9.81877 13.697 9.7719C13.447 9.8344 13.3532 9.73127 13.3376 9.58127C13.2126 9.48127 13.0313 9.4594 12.9095 9.3594C12.7657 9.40315 12.697 9.43127 12.5532 9.47815C12.5032 9.6344 12.3876 9.69377 12.2001 9.65315C11.9813 9.6594 12.0188 9.75315 12.0001 9.82502C11.9376 9.7219 11.9407 9.61877 12.0782 9.52502C12.1282 9.39065 12.2407 9.32815 12.3845 9.40627C12.522 9.36877 12.5563 9.31252 12.6938 9.2719C12.3501 9.16252 12.1063 9.13752 11.7626 9.02815L11.522 9.24065C11.4751 9.26877 11.4313 9.27502 11.4032 9.24065C11.1876 8.92815 11.0907 8.65627 10.8938 8.45002C10.8157 8.36252 10.7188 8.25002 10.6126 8.2219C10.5595 8.20627 10.4938 8.21565 10.4501 8.26252C10.4095 8.30627 10.3751 8.39065 10.3876 8.51877C10.4095 8.6969 10.4532 8.75627 10.5032 8.86252C10.5563 8.9719 10.6157 9.03752 10.6813 9.1219C10.8063 9.28752 10.9751 9.3844 11.0751 9.45002C11.2751 9.57815 11.3563 9.5219 11.5126 9.51252C11.7126 9.5344 11.7626 9.63127 11.6001 9.76565C11.4501 9.8469 11.3126 9.85627 11.2001 9.8344C11.1063 9.81565 10.9938 9.69377 10.9126 9.62815C10.8251 9.52502 10.6751 9.6469 10.7782 9.76877C10.9626 9.98752 11.1438 10.1313 11.372 10.1281C11.6126 10.1594 11.5657 10.2938 11.4095 10.3594C11.122 10.475 10.8657 10.2563 10.7345 10.1094C10.6345 10 10.5626 9.9969 10.5782 10.1688C10.6813 10.4781 10.8157 10.5969 11.0407 10.6125C11.222 10.5938 11.2251 10.7375 11.0907 10.8313C10.7907 11.0375 10.572 10.6813 10.4688 10.4688C10.397 10.275 10.2845 10.3656 10.272 10.525C10.272 10.7406 10.3657 10.9125 10.6251 11.1313C10.4282 11.4469 10.197 11.7688 10.0001 12.0844L9.4001 5.3969L10.0001 4.34377C10.0626 4.28752 10.2751 4.03752 10.3282 4.00002C10.3501 3.98127 10.3595 3.96877 10.3313 3.95627C10.3032 3.94377 10.2376 3.93127 10.1907 3.92502C10.3157 3.7969 10.4282 3.75627 10.6688 3.68752C10.6095 3.66252 10.5532 3.67502 10.3782 3.66877C10.4856 3.5245 10.632 3.41391 10.8001 3.35002C10.6688 3.25627 10.6438 3.25002 10.5126 3.14065C10.7196 3.12466 10.9241 3.08481 11.122 3.0219C11.2401 2.96574 11.3669 2.92983 11.497 2.91565H11.5001ZM11.4751 3.17815C11.3563 3.17815 11.2845 3.21877 11.2845 3.26877C11.2845 3.31877 11.3563 3.3594 11.4751 3.3594C11.5938 3.3594 11.6688 3.31252 11.6688 3.26565C11.6688 3.21565 11.5938 3.17815 11.4751 3.17815Z" fill="black"/>
</g>
<defs>
<clipPath id="clip0_202_19212">
<rect width="20" height="15" fill="white"/>
</clipPath>
</defs>
</svg>
