<svg width="20" height="15" viewBox="0 0 20 15" fill="none" xmlns="http://www.w3.org/2000/svg">
<g clip-path="url(#clip0_202_71734)">
<mask id="mask0_202_71734" style="mask-type:luminance" maskUnits="userSpaceOnUse" x="-1" y="0" width="22" height="16">
<path d="M-0.00439453 0H20.047V15.04H-0.00439453V0Z" fill="white"/>
</mask>
<g mask="url(#mask0_202_71734)">
<path fill-rule="evenodd" clip-rule="evenodd" d="M20.7637 15.04H-0.721191V0H20.7637V15.04Z" fill="#BA0000"/>
<path fill-rule="evenodd" clip-rule="evenodd" d="M10.5296 11.045C10.5355 11.0273 10.5472 10.8452 10.5413 10.8452C10.5355 10.8452 10.2652 10.525 10.2711 10.525C10.277 10.525 10.6177 10.6014 10.6177 10.5897C10.6177 10.5779 10.7558 10.2518 10.7558 10.246L10.9203 10.6425L11.2581 10.7894L11.0231 10.9862L11.073 11.3681C11.073 11.3769 10.838 11.1448 10.838 11.1448L10.5766 11.1742C10.5766 11.1742 10.5413 11.0567 10.5296 11.045Z" fill="#FFEF00" stroke="black" stroke-width="0.12"/>
<path fill-rule="evenodd" clip-rule="evenodd" d="M8.69923 6.07766C8.47304 6.19516 7.61236 7.17922 7.49486 7.33197C7.37488 7.58999 7.20747 7.82317 7.00136 8.01935C6.78692 8.18091 6.66942 8.40122 6.69879 8.60685C6.69879 8.87122 6.84273 9.04747 6.95729 9.22666C7.02486 9.31185 7.11886 9.36472 7.21579 9.37353C7.41848 9.39703 7.43611 9.46166 7.53892 9.49691C7.93254 10.0374 8.52592 10.4369 8.94892 10.7512C9.14355 10.8435 9.32208 10.9665 9.47767 11.1155C9.60104 11.3563 9.57754 11.5855 9.55992 11.703L9.24561 12.8956C9.18979 13.2187 9.47473 13.1482 9.48942 13.0836C9.61573 12.9162 9.80667 13.0337 10.0769 12.076L10.4529 11.5737C10.4529 11.5737 10.5969 11.515 10.5969 11.5003C10.8172 11.2359 10.6497 11.089 10.5234 11.0391L10.2532 10.9392C10.2532 10.9392 9.93592 10.622 9.92123 10.622C9.77142 10.1843 9.03117 9.2531 8.86079 9.12385C8.74329 8.99753 8.68454 8.9476 8.57292 8.8771C8.39961 8.79485 8.34379 8.76547 8.23804 8.72435C8.14992 8.6891 8.21161 8.59216 8.26742 8.5481C8.85492 8.22791 9.31611 7.87541 9.87717 7.51703L9.96529 7.45828L9.76261 6.30678L8.82848 5.97778C8.77854 6.0101 8.74036 6.04535 8.69923 6.07766Z" fill="white" stroke="black" stroke-width="0.14"/>
<path fill-rule="evenodd" clip-rule="evenodd" d="M9.48064 12.1348C9.48064 12.1231 10.0681 12.0173 10.0681 12.0173L9.9947 12.2347L9.41602 12.411L9.48064 12.1378V12.1348Z" fill="#FFEC00"/>
<path d="M7.96191 9.94349C8.02186 9.80602 8.10896 9.68207 8.218 9.5791C8.32703 9.47612 8.45574 9.39624 8.59641 9.34424" stroke="black" stroke-width="0.12"/>
<path d="M9.46024 12.1407C9.49843 12.1319 9.66587 12.082 9.71287 12.0732C9.76574 12.0614 9.81568 12.0497 9.86562 12.0321C9.92437 12.0203 9.95962 12.0086 10.0184 11.9997C10.0664 11.9828 10.1154 11.969 10.1652 11.9586M9.35449 12.5021C9.37674 12.4798 9.40137 12.4601 9.42793 12.4433C9.46024 12.4316 9.5748 12.3846 9.61887 12.3757C9.66549 12.3641 9.71156 12.3504 9.75693 12.3346L9.89205 12.2994C9.93612 12.2817 9.97724 12.27 10.0213 12.2582" stroke="black" stroke-width="0.14"/>
<path d="M9.58932 10.0286H9.58345C9.60695 10.0286 9.59226 10.0286 9.55701 10.0697C9.54526 10.102 9.43951 10.1784 9.35726 10.1784C9.3114 10.1834 9.26533 10.1863 9.2192 10.1872L9.18101 10.1784M9.58345 11.75H9.62457C9.66864 11.75 9.7127 11.7588 9.74795 11.7588C9.79201 11.7588 9.83314 11.7705 9.87426 11.7705C9.91833 11.7764 9.96826 11.7735 10.0123 11.7823C10.0593 11.7823 10.1005 11.7911 10.1504 11.7911M10.1504 11.7911C10.1915 11.794 10.215 11.7999 10.2591 11.7999L10.1504 11.7911ZM9.29851 12.7693C9.31876 12.7472 9.34142 12.7275 9.36607 12.7105C9.39545 12.7017 9.5012 12.6518 9.54232 12.6459C9.58413 12.6332 9.6253 12.6185 9.6657 12.6018L9.79201 12.5725C9.8302 12.5519 9.86839 12.5401 9.90951 12.5284M10.0799 11.3181C10.0564 11.3857 10.0887 11.4033 10.1004 11.4327C10.1458 11.4811 10.2038 11.5157 10.2679 11.5326C10.3031 11.5414 10.3266 11.5502 10.3678 11.5678C10.3942 11.5678 10.4059 11.5766 10.4265 11.5825M6.77226 8.79777H6.78107C6.75464 8.79777 6.77226 8.80071 6.81339 8.7684C6.84276 8.73609 6.86333 8.7214 6.88976 8.68909M7.31276 9.39409C7.31864 9.39409 7.80039 9.15321 7.85033 9.10034L7.95901 9.01515C7.98839 9.00046 8.00895 8.98284 8.03539 8.96521C8.05595 8.93584 8.08532 8.91527 8.10295 8.8859C8.13232 8.85946 8.11764 8.83302 8.14408 8.80071L8.18226 8.68909M8.79326 9.04746C8.7962 9.06509 8.78739 9.11796 8.78739 9.15909C8.78739 9.20609 8.7257 9.35002 8.65226 9.39409" stroke="black" stroke-width="0.12"/>
<path d="M7.93277 9.04168L8.12958 9.10337C8.27646 9.15624 8.58196 9.35012 8.61427 9.37656C8.64364 9.40006 8.70239 9.42356 8.72002 9.44999C8.75527 9.47937 8.77877 9.51168 8.80521 9.54399C8.83458 9.57924 8.86396 9.61155 8.87864 9.64387C9.03905 9.8666 9.17127 10.1083 9.27227 10.3636C9.29283 10.3841 9.30164 10.4135 9.32221 10.4458C9.33983 10.4869 9.36039 10.5046 9.38096 10.5369C9.41033 10.5574 9.44558 10.5956 9.48083 10.6132C9.51902 10.6456 9.55427 10.6573 9.58364 10.6808C9.62183 10.6984 10.0625 10.9746 10.083 10.9892C10.1241 11.0216 10.2446 11.1479 10.1594 11.2419C10.1241 11.2712 10.0889 11.3153 10.0595 11.33C10.0272 11.3652 9.98314 11.3799 9.94496 11.3946C9.74814 11.4534 9.64533 11.4328 9.60714 11.4328H9.56602M6.95752 8.05762C7.01627 8.08112 6.99277 8.06349 7.04271 8.08699C7.07796 8.10168 7.10146 8.10168 7.13083 8.11637C7.16902 8.12518 7.26889 8.14574 7.31589 8.19274C7.35114 8.22212 7.37464 8.25149 7.41577 8.27206C7.45784 8.30085 7.50321 8.32452 7.55089 8.34256C7.59789 8.36018 7.65077 8.38074 7.69777 8.38074H7.92689H7.80939" stroke="black" stroke-width="0.12"/>
<path fill-rule="evenodd" clip-rule="evenodd" d="M6.94585 8.61565C7.06922 8.60684 7.27778 8.64503 7.28366 8.64503L7.55978 8.63915C7.70666 8.6274 7.73603 8.57159 7.75953 8.53046C7.81534 8.44821 7.8506 8.41884 7.89466 8.35421C7.95928 8.30721 8.05328 8.42178 8.05622 8.42178C8.29122 8.64503 8.10322 8.91528 8.09147 8.92409C7.97397 9.03278 7.94753 9.03865 7.87703 8.97109C7.80653 8.8859 7.78597 8.84772 7.72722 8.81834C7.61266 8.76547 7.3806 8.80659 7.37472 8.80659L7.25428 8.85359C7.19553 8.87415 7.16028 8.92409 7.06335 8.94171C6.96053 8.94759 6.92822 8.93878 6.87828 8.85653C6.81072 8.75371 6.84303 8.6274 6.94585 8.61565Z" fill="#FFE606" stroke="black" stroke-width="0.12"/>
<path fill-rule="evenodd" clip-rule="evenodd" d="M13.4904 3.54553C13.4728 3.54553 13.3054 3.62778 13.3083 3.63366C13.3112 3.63659 13.1673 4.03022 13.1644 4.02728C13.1614 4.02141 13.0615 3.68359 13.0498 3.68947C13.041 3.69534 12.6885 3.73647 12.6855 3.73941L12.9499 3.40159L12.9117 3.03441L13.1996 3.14603L13.508 2.91103C13.5139 2.90809 13.4287 3.22828 13.4287 3.22828L13.5815 3.43978C13.5815 3.43978 13.4934 3.52791 13.4904 3.54553Z" fill="#FFEF00" stroke="black" stroke-width="0.12"/>
<path fill-rule="evenodd" clip-rule="evenodd" d="M10.0595 7.57584C10.268 7.7139 11.5488 7.98415 11.7426 8.01059C12.0261 7.98885 12.3111 8.02074 12.5828 8.10459C12.8266 8.21034 13.0763 8.20446 13.2437 8.07521C13.4728 7.95184 13.5551 7.74034 13.655 7.54646C13.6761 7.50038 13.687 7.45028 13.687 7.39959C13.687 7.3489 13.6761 7.2988 13.655 7.25271C13.5786 7.06471 13.6256 7.01771 13.608 6.91196C13.8841 6.30096 13.9428 5.59009 14.0075 5.06428C14.0016 4.75584 14.0339 4.52084 14.0662 4.42684C14.1803 4.25995 14.3451 4.13428 14.5362 4.06846L15.7318 3.75709C16.0431 3.64546 15.8405 3.43396 15.7758 3.45159C15.5702 3.42221 15.5761 3.19896 14.6096 3.43103L13.9869 3.35171C13.9869 3.35171 13.8694 3.25478 13.8547 3.26359C13.5169 3.2019 13.4699 3.41928 13.4875 3.55146L13.5345 3.83934C13.5345 3.83934 13.4141 4.26821 13.42 4.27996C13.1115 4.62659 12.6562 5.73696 12.6268 5.9514C12.6121 6.15115 12.5387 6.11296 12.5563 6.30978C12.5563 6.46253 12.5387 6.36853 12.5886 6.6799C12.6033 6.7739 12.4858 6.76803 12.4212 6.73865C11.8572 6.38615 11.3226 6.15409 10.7321 5.84271L10.6411 5.79571L9.73633 6.53596L9.9067 7.51121C9.95958 7.54059 10.0066 7.55528 10.0565 7.57584H10.0595Z" fill="white" stroke="black" stroke-width="0.14"/>
<path fill-rule="evenodd" clip-rule="evenodd" d="M14.9561 3.92454C14.8218 3.77731 14.6915 3.62646 14.5654 3.47216L14.7887 3.4281L15.2234 3.84816L14.9561 3.92454Z" fill="#FFEC00"/>
<path d="M13.7898 6.32149C13.6405 6.33686 13.4896 6.32188 13.3463 6.27746C13.2029 6.23304 13.07 6.16009 12.9556 6.06299" stroke="black" stroke-width="0.12"/>
<path d="M14.9711 3.93919C14.9417 3.91275 14.8183 3.79231 14.7889 3.75119C14.7533 3.71249 14.716 3.67525 14.6773 3.63956C14.6391 3.5955 14.6098 3.56906 14.5716 3.52206C14.5339 3.48928 14.4986 3.45394 14.4658 3.41631M15.3353 3.85694C15.3265 3.85694 15.2766 3.83638 15.2472 3.82169C15.2237 3.79525 15.1238 3.72181 15.0974 3.68656C15.0646 3.65175 15.0303 3.61842 14.9946 3.58669C14.9593 3.5485 14.9329 3.52794 14.8976 3.48388C14.8622 3.45704 14.8288 3.42758 14.7978 3.39575" stroke="black" stroke-width="0.14"/>
<path d="M13.0643 4.86154L13.0672 4.87035C13.0554 4.84685 13.0613 4.86154 13.1171 4.87035C13.1524 4.86447 13.2699 4.92029 13.3081 4.99079C13.3316 5.0231 13.3668 5.07304 13.3844 5.10829C13.3903 5.1171 13.3903 5.13766 13.3962 5.14647M14.5712 4.02435L14.5653 4.01847L14.5477 3.9891L14.4948 3.87454C14.4743 3.83929 14.4654 3.79522 14.4449 3.75997C14.4273 3.71885 14.4008 3.67772 14.3861 3.6366C14.3626 3.59254 14.3509 3.55435 14.3274 3.50735M14.3274 3.50735C14.3068 3.4721 14.3039 3.4486 14.2804 3.41041L14.3274 3.50735ZM15.5964 3.77172C15.5679 3.76538 15.5402 3.75551 15.5141 3.74235C15.4906 3.72179 15.3966 3.65422 15.3673 3.62485C15.3364 3.59396 15.304 3.56455 15.2703 3.53672C15.2409 3.49854 15.2145 3.47797 15.1822 3.43979C15.1488 3.4159 15.1174 3.38938 15.0882 3.36047M13.9455 3.8011C14.0189 3.78935 14.0189 3.7541 14.0366 3.72766C14.0513 3.69829 14.063 3.62485 14.0424 3.53379L14.0248 3.43097C14.0131 3.40454 14.0131 3.38985 14.0101 3.37222M13.3727 7.91947L13.3698 7.9136C13.3815 7.9371 13.3756 7.92241 13.3228 7.89891L13.2199 7.86954M13.6283 7.15572C13.6253 7.14985 13.1788 6.85022 13.1083 6.8326C13.0672 6.81204 13.029 6.80322 12.982 6.77972L12.8998 6.7386C12.8616 6.73272 12.8293 6.71804 12.7969 6.71804C12.7617 6.70629 12.7411 6.72979 12.7029 6.72391L12.5854 6.74447M12.6001 6.03654C12.6119 6.02479 12.6648 6.00716 12.7 5.9866C12.7411 5.96604 12.8968 5.94841 12.9703 5.98954" stroke="black" stroke-width="0.12"/>
<path d="M13.0176 6.79149L12.9736 6.58587C12.9562 6.40219 12.9562 6.21729 12.9736 6.03362C12.9795 5.99543 12.9736 5.93374 12.9883 5.90143C12.9971 5.8603 13.0118 5.82212 13.0265 5.78393C13.0441 5.73987 13.0588 5.70168 13.0764 5.66937C13.097 5.55187 13.4289 5.07893 13.4524 5.05543C13.4709 5.02824 13.4905 5.00178 13.5111 4.97612C13.52 4.94674 13.5405 4.92324 13.5581 4.88799C13.5875 4.85568 13.5934 4.82924 13.611 4.79399C13.614 4.76168 13.6286 4.7088 13.6286 4.67062C13.6375 4.62068 13.6286 4.58249 13.6375 4.55018C13.6316 4.50612 13.658 3.98618 13.661 3.96268C13.6698 3.9098 13.7197 3.74237 13.8431 3.77174C13.8871 3.78643 13.94 3.79524 13.9723 3.8158C14.0135 3.82755 14.0487 3.85987 14.081 3.88337C14.2279 4.0273 14.2602 4.12424 14.2808 4.15949L14.3013 4.19474M12.6328 8.10749L12.6299 8.10162C12.6416 8.12218 12.6358 8.11043 12.6211 8.0693C12.6181 8.03112 12.6064 7.98118 12.6005 7.94593C12.5917 7.90774 12.5741 7.86662 12.58 7.84312C12.5653 7.80493 12.5741 7.77555 12.58 7.73737C12.5888 7.69037 12.5946 7.65805 12.5946 7.61399C12.6005 7.55524 12.5946 7.51999 12.5976 7.46712C12.5829 7.42305 12.58 7.3878 12.5594 7.34374L12.5006 7.22624L12.4419 7.12343L12.5006 7.2233" stroke="black" stroke-width="0.12"/>
<path fill-rule="evenodd" clip-rule="evenodd" d="M13.1292 7.86075C13.0616 7.755 12.9911 7.55525 12.9882 7.55231L12.8501 7.31144C12.7679 7.19394 12.7033 7.19394 12.6563 7.19394C12.5564 7.18512 12.5123 7.16456 12.4389 7.16162C12.3625 7.12637 12.4183 6.98831 12.4154 6.98537C12.4947 6.674 12.8266 6.70337 12.8384 6.70925C12.9882 6.75919 13.0058 6.77975 12.9823 6.87375C12.9441 6.97656 12.9236 7.01475 12.9236 7.07937C12.9324 7.20275 13.0851 7.38781 13.0851 7.39075L13.185 7.473C13.232 7.51412 13.2937 7.52 13.3554 7.59931C13.4112 7.6845 13.42 7.71681 13.373 7.79906C13.3143 7.91069 13.1909 7.943 13.1292 7.86075Z" fill="#FFE606" stroke="black" stroke-width="0.12"/>
<path fill-rule="evenodd" clip-rule="evenodd" d="M5.36527 4.95561C5.37996 4.96736 5.53565 5.0643 5.54152 5.05843C5.5474 5.05255 5.95277 4.95855 5.9469 4.96443C5.94102 4.9703 5.71777 5.23761 5.72952 5.24349C5.74127 5.24936 5.96452 5.51961 5.9704 5.52255L5.54446 5.4873L5.25659 5.71643L5.19196 5.4168L4.83065 5.28755C4.82477 5.28461 5.13909 5.1818 5.13909 5.1818L5.23309 4.93799C5.23309 4.93799 5.35352 4.95855 5.37115 4.95561H5.36527Z" fill="#FFEF00" stroke="black" stroke-width="0.12"/>
<path fill-rule="evenodd" clip-rule="evenodd" d="M10.6175 5.61939C10.6175 5.36383 10.1416 4.14477 10.0594 3.97145C9.88586 3.74599 9.75632 3.48989 9.67751 3.21652C9.63345 2.95214 9.49245 2.74652 9.29563 2.67602C9.06357 2.55558 8.84032 2.60258 8.62588 2.62314C8.52013 2.6437 8.42907 2.70245 8.37913 2.7847C8.26163 2.95214 8.19995 2.93745 8.1177 3.01089C7.45676 3.1137 6.83107 3.45445 6.3552 3.68652C6.18359 3.81627 5.99214 3.91745 5.78826 3.98614C5.58622 3.98318 5.3905 3.9152 5.23013 3.79227L4.31657 2.96095C4.0522 2.76414 3.98757 3.04908 4.03751 3.09314C4.12563 3.28114 3.9347 3.3957 4.66026 4.08014L4.93345 4.64414C4.93345 4.64414 4.91876 4.79689 4.93345 4.80277C5.0627 5.12002 5.2742 5.0407 5.37407 4.95258L5.58851 4.75576C5.58851 4.75576 6.01445 4.62064 6.02032 4.60889C6.47857 4.67645 7.65945 4.4532 7.85332 4.3592C8.02957 4.26227 8.03838 4.34452 8.19113 4.22114C8.31745 4.13595 8.24988 4.20352 8.48488 3.98908C8.55538 3.93033 8.6112 4.02727 8.62588 4.09777C8.63763 4.76458 8.73751 5.33739 8.7992 6.00127L8.81095 6.10408L9.9272 6.45658L10.6498 5.78095L10.6204 5.61645L10.6175 5.61939Z" fill="white" stroke="black" stroke-width="0.14"/>
<path fill-rule="evenodd" clip-rule="evenodd" d="M4.88074 3.51916C4.88955 3.52797 4.71624 4.09491 4.71624 4.09491L4.55762 3.93335L4.66924 3.33704L4.88074 3.51916Z" fill="#FFEC00"/>
<path d="M7.52734 3.1842C7.73884 3.4192 7.80641 3.80695 7.76822 4.02433" stroke="black" stroke-width="0.12"/>
<path d="M4.88964 3.49861C4.88083 3.5368 4.84558 3.71011 4.83089 3.75417C4.81703 3.80557 4.80527 3.85751 4.79564 3.90986L4.75452 4.06261C4.74864 4.11255 4.73983 4.15955 4.72514 4.20949M4.61645 3.24011C4.61939 3.24892 4.63114 3.29886 4.63408 3.33117C4.6282 3.36642 4.61939 3.4898 4.6047 3.53386C4.59378 3.58044 4.58496 3.62749 4.57827 3.67486L4.54889 3.80999C4.54451 3.85556 4.53665 3.90073 4.52539 3.94511" stroke="black" stroke-width="0.06"/>
<path d="M6.70209 4.59127L6.70503 4.58246C6.69328 4.60596 6.70503 4.59127 6.68153 4.54134C6.65509 4.51196 6.6404 4.38565 6.67565 4.31221C6.69341 4.26928 6.71301 4.22714 6.7344 4.1859C6.73734 4.17709 6.75203 4.16534 6.7579 4.15652M5.17753 3.78934L5.17459 3.79521L5.15696 3.82459C5.13934 3.86571 5.10996 3.90096 5.09234 3.93327C5.07471 3.97146 5.0424 4.00084 5.02478 4.03902L4.95428 4.15652C4.92784 4.19765 4.9014 4.22996 4.8779 4.27402L4.81915 4.36802M4.40203 3.06671C4.4079 3.07259 4.42259 3.12252 4.42553 3.15484C4.41965 3.18421 4.41378 3.30171 4.40203 3.3399L4.38146 3.46915C4.36971 3.51615 4.36678 3.54846 4.35209 3.59546C4.35053 3.63692 4.34562 3.67818 4.3374 3.71884M5.33028 4.43559C5.28034 4.37977 5.25096 4.40034 5.21865 4.3974C5.15422 4.41511 5.09616 4.45076 5.05121 4.50021C5.02771 4.52665 5.00715 4.54721 4.97484 4.57365C4.96015 4.59715 4.9484 4.60302 4.93371 4.61771M9.09028 2.65546L9.08734 2.66427C9.09909 2.64077 9.09028 2.65252 9.10203 2.70834C9.11671 2.74652 9.11671 2.77296 9.1314 2.80821M8.31184 2.86109C8.31184 2.86696 8.30303 3.40452 8.32653 3.47502C8.3324 3.51909 8.34415 3.55434 8.35003 3.61015C8.35003 3.63952 8.35884 3.6689 8.36178 3.69827C8.3794 3.73352 8.38234 3.76877 8.4029 3.79521C8.41171 3.8334 8.44109 3.83634 8.45871 3.86865C8.47928 3.89509 8.51746 3.93915 8.54096 3.95677M7.93878 4.33571C7.92115 4.32984 7.88003 4.29459 7.84478 4.27696C7.80365 4.25346 7.70084 4.13302 7.6979 4.04784" stroke="black" stroke-width="0.12"/>
<path d="M8.34121 3.57202L8.19434 3.7189C8.05013 3.83501 7.89464 3.93637 7.73021 4.02146C7.69496 4.03908 7.6509 4.08021 7.61271 4.08315C7.57452 4.10077 7.5334 4.10665 7.49521 4.11546C7.2172 4.16584 6.9339 4.18065 6.65215 4.15952C6.61879 4.15888 6.58548 4.15692 6.55227 4.15365C6.5229 4.15952 6.49352 4.15658 6.45534 4.15952C6.40834 4.15658 6.38484 4.1654 6.34665 4.16833C6.31727 4.18596 6.26734 4.20065 6.23209 4.22415C6.18802 4.24177 6.15865 4.26821 6.12634 4.2829C6.09696 4.30933 5.64459 4.57077 5.62109 4.58252C5.57409 4.60308 5.40665 4.65596 5.36259 4.53552C5.35084 4.48852 5.33321 4.43858 5.33027 4.40333C5.31559 4.36221 5.3244 4.31521 5.3244 4.27408C5.36552 4.0714 5.43015 3.99208 5.44777 3.95683L5.46834 3.92158M9.6484 3.17252L9.64546 3.18133C9.65427 3.16077 9.65134 3.16958 9.62196 3.20483C9.59259 3.22833 9.55734 3.26358 9.5309 3.29296C9.50152 3.31646 9.47802 3.35171 9.45452 3.36346C9.43102 3.39283 9.40165 3.40458 9.3664 3.42221C9.32731 3.4368 9.2899 3.45551 9.25477 3.47802C9.20484 3.50152 9.17546 3.52796 9.1314 3.5544C9.10202 3.58965 9.07265 3.61315 9.04915 3.65427C9.02565 3.69246 9.00215 3.72477 8.98159 3.76883L8.92871 3.87165M9.2724 6.01896L9.28121 6.00427C9.26652 6.03365 9.26946 6.02483 9.28415 5.97783C9.28415 5.92496 9.29884 5.8574 9.29884 5.80746C9.30765 5.75458 9.31646 5.69877 9.31646 5.6459C9.31352 5.58715 9.31352 5.5284 9.30471 5.46965C9.30471 5.41677 9.2959 5.36096 9.2959 5.30515C9.2959 5.25227 9.29002 5.20821 9.27827 5.15827C9.27821 5.11103 9.27428 5.06387 9.26652 5.01727C9.26946 4.98202 9.26065 4.94677 9.25184 4.9174L9.21659 4.76758L9.18721 4.64715C9.18134 4.60015 9.15784 4.5414 9.14609 4.50321C9.13097 4.47148 9.12011 4.4379 9.11377 4.40333C9.09909 4.37102 9.07852 4.33283 9.07559 4.29758L9.02859 4.1889L8.98746 4.08315C8.97277 4.04202 8.95515 4.00677 8.9434 3.96565C8.92871 3.95096 8.92577 3.93627 8.9199 3.92452" stroke="black" stroke-width="0.12"/>
<path fill-rule="evenodd" clip-rule="evenodd" d="M9.17533 2.89342C9.12405 2.99411 9.06305 3.08955 8.9932 3.17836L8.86983 3.42511C8.81695 3.56024 8.84926 3.61605 8.87277 3.65424C8.9227 3.74236 8.93151 3.78936 8.96676 3.85399C8.98145 3.93624 8.83458 3.96561 8.83458 3.96855C8.52908 4.0743 8.37339 3.78055 8.37339 3.76586C8.33226 3.61311 8.33814 3.58961 8.43214 3.5573C8.53789 3.53086 8.57901 3.52792 8.63189 3.49267C8.7347 3.4163 8.8052 3.19011 8.80814 3.18717L8.81989 3.05792C8.8287 2.99917 8.80226 2.94042 8.83164 2.84642C8.87276 2.75242 8.89627 2.72892 8.99027 2.72011C9.11364 2.7113 9.21058 2.79649 9.17533 2.89342Z" fill="#FFE606" stroke="black" stroke-width="0.12"/>
<path fill-rule="evenodd" clip-rule="evenodd" d="M8.77555 5.86622C8.72855 5.82216 9.63917 6.19522 9.76548 6.19816C9.93586 6.13647 10.6438 5.54016 10.6438 5.54016C10.6497 5.59891 10.6761 5.74872 10.7437 5.78104C10.4705 6.00135 10.2237 6.21579 9.95055 6.4361C9.96817 6.7886 9.90648 7.16166 10.0827 7.55235C10.0827 7.55235 9.87123 7.55822 9.87123 7.55235C9.68323 7.36435 9.61567 6.4596 9.61567 6.4596L8.7168 6.0601C8.76086 6.03072 8.79317 5.94554 8.77555 5.86329V5.86622Z" fill="#FFEF00" stroke="black" stroke-width="0.12"/>
<path d="M9.64253 6.79449C9.65722 6.78274 9.47803 6.87674 9.43103 6.90024C8.60559 7.34086 8.17965 7.98711 8.15322 8.01061L8.08859 8.11049L8.02103 8.19861C7.98805 8.24633 7.95276 8.29241 7.91528 8.33668C7.9094 8.3543 7.92703 8.32786 7.92115 8.34255M10.2095 6.26868C10.2707 6.3179 10.3345 6.36398 10.4004 6.40674C11.17 6.94136 11.9367 7.02655 11.972 7.0383C12.0013 7.0383 12.0454 7.04711 12.0895 7.05299C12.1247 7.05299 12.1658 7.06474 12.2011 7.06768C12.2422 7.07355 12.3303 7.09118 12.3715 7.10293C12.3891 7.09705 12.3568 7.09411 12.3715 7.09118" stroke="black" stroke-width="0.12"/>
</g>
</g>
<defs>
<clipPath id="clip0_202_71734">
<rect width="20" height="15" fill="white"/>
</clipPath>
</defs>
</svg>
