<svg width="20" height="15" viewBox="0 0 20 15" fill="none" xmlns="http://www.w3.org/2000/svg">
<g clip-path="url(#clip0_217_9023)">
<path d="M0 0H20V15H0V0Z" fill="#244AA5"/>
<path d="M7.90635 7.025C7.90635 7.025 7.94385 7 7.95635 6.99687C7.97197 6.99687 8.01885 6.97812 8.01885 6.97812C8.01885 6.97812 8.0501 6.9625 8.06572 6.9625C8.08447 6.9625 8.11572 6.98125 8.12822 6.99687C8.1376 7.0125 8.19072 7.04062 8.19072 7.04062C8.19072 7.04062 8.22822 7.05312 8.2376 7.04062C8.24385 7.02812 8.25947 7.01875 8.27822 7.01875C8.29385 7.01875 8.29697 7.00312 8.29697 6.99062C8.29697 6.97812 8.30322 6.9625 8.31572 6.94687C8.33135 6.93125 8.35635 6.92187 8.35635 6.92187C8.35635 6.92187 8.39385 6.90625 8.39697 6.88437C8.40322 6.8625 8.4376 6.84687 8.45947 6.84375C8.48135 6.84375 8.45947 6.83125 8.51572 6.8375C8.56885 6.84375 8.57822 6.825 8.57822 6.80937C8.58135 6.79375 8.57822 6.77812 8.6126 6.77812C8.64697 6.78437 8.6626 6.78437 8.6626 6.76562C8.6626 6.74687 8.69385 6.73438 8.64072 6.72187C8.58447 6.70625 8.59072 6.71875 8.58447 6.69062C8.58447 6.66875 8.58447 6.67187 8.5501 6.66875C8.5126 6.66562 8.53135 6.64687 8.52822 6.62812C8.5251 6.60938 8.51572 6.59687 8.50947 6.5875C8.5001 6.575 8.48135 6.575 8.48135 6.55625C8.48135 6.5375 8.47822 6.525 8.45947 6.525C8.4376 6.525 8.42822 6.525 8.42822 6.50937C8.42822 6.49062 8.43447 6.47812 8.45322 6.47812C8.4751 6.47812 8.48447 6.45937 8.48447 6.44062C8.47822 6.42188 8.47822 6.38125 8.47822 6.38125L8.50635 6.35C8.50635 6.35 8.5876 6.28437 8.59385 6.27187C8.6001 6.25937 8.62822 6.25 8.64072 6.275C8.65322 6.3 8.65947 6.30625 8.67197 6.31875C8.68135 6.33125 8.7126 6.32187 8.71885 6.30937C8.7251 6.29687 8.72822 6.25 8.74697 6.225C8.76572 6.20312 8.77822 6.19062 8.78135 6.16875C8.78447 6.14687 8.79697 6.13125 8.81885 6.13125C8.8376 6.13125 8.8501 6.10312 8.8501 6.0875C8.8501 6.07187 8.8626 6.05625 8.8876 6.05C8.9126 6.04688 8.92822 6.03125 8.9376 6.05625C8.94697 6.08125 8.95635 6.07812 8.97197 6.0875C8.99072 6.09687 9.01572 6.10625 9.02822 6.09687C9.04385 6.08437 9.0501 6.06562 9.06885 6.075C9.0876 6.0875 9.1001 6.075 9.10635 6.05312L9.11572 5.99375C9.11572 5.99375 9.11885 5.97812 9.1501 5.97812C9.18135 5.97812 9.15947 5.95937 9.1751 5.94687C9.19385 5.93437 9.19385 5.92187 9.21572 5.92812C9.2376 5.9375 9.27197 5.91875 9.25635 5.89687C9.2376 5.87812 9.2001 5.84687 9.22197 5.82187C9.24385 5.79687 9.25322 5.75937 9.23135 5.75312C9.20947 5.75 9.1751 5.75625 9.17197 5.73437C9.16885 5.70937 9.15947 5.69062 9.1876 5.6875C9.2126 5.68437 9.25635 5.68437 9.27197 5.67187C9.28447 5.65937 9.32822 5.65 9.32822 5.61562C9.32822 5.57812 9.34072 5.575 9.34697 5.55312C9.3501 5.53437 9.3501 5.49063 9.33135 5.47188C9.3126 5.45 9.2876 5.42188 9.28447 5.40938C9.27822 5.39688 9.2626 5.37812 9.23447 5.36875C9.20947 5.3625 9.18447 5.35625 9.18447 5.3375C9.18447 5.31562 9.20322 5.34062 9.20322 5.2875C9.20322 5.23437 9.16885 5.225 9.16885 5.225L9.11572 5.19375C9.11572 5.19375 9.02197 5.16875 8.99697 5.16875C8.97197 5.16875 8.94072 5.14375 8.96885 5.125C9.0001 5.10937 9.00635 5.07812 8.99697 5.05625C8.98447 5.03437 8.97822 5.01562 8.9376 5.00625C8.89697 4.99687 8.8876 4.9875 8.90635 4.9625C8.92197 4.94062 8.92822 4.92188 8.9501 4.94063C8.96885 4.95625 9.00635 4.9625 9.03447 4.95C9.06572 4.9375 9.0751 4.925 9.09072 4.94063C9.10322 4.95312 9.12197 4.96562 9.14385 4.94687C9.16572 4.925 9.20635 4.92187 9.2251 4.93125C9.24072 4.94375 9.2876 4.94062 9.3001 4.93125C9.3126 4.925 9.34385 4.9 9.34385 4.89062C9.34385 4.88125 9.3626 4.85312 9.37822 4.84375C9.39697 4.83125 9.41885 4.8 9.4376 4.8C9.45635 4.8 9.4626 4.77813 9.4626 4.76875C9.4626 4.75312 9.47822 4.725 9.48135 4.71562C9.48135 4.70625 9.51885 4.69062 9.54385 4.71562C9.57197 4.73125 9.60635 4.74062 9.60635 4.74062C9.60635 4.74062 9.6376 4.74687 9.65947 4.74062C9.66934 4.73454 9.6807 4.73132 9.69229 4.73132C9.70387 4.73132 9.71523 4.73454 9.7251 4.74062C9.75322 4.75937 9.7876 4.75937 9.7876 4.75937L9.79697 4.71875C9.79697 4.70625 9.80322 4.68125 9.7876 4.67187C9.7751 4.6625 9.75635 4.65 9.78447 4.62813C9.81572 4.60938 9.81572 4.6125 9.84385 4.6125L9.9126 4.61562C9.93447 4.61562 9.96885 4.6375 9.96885 4.65625C9.96885 4.675 9.98447 4.6875 10.0001 4.7C10.0188 4.70937 10.0407 4.71875 10.0313 4.7375C10.0282 4.75312 10.0282 4.76875 10.0501 4.7625C10.072 4.75937 10.0782 4.77187 10.0782 4.79062C10.0782 4.80625 10.0845 4.81562 10.1095 4.82187C10.1282 4.82812 10.1407 4.84375 10.1407 4.85937C10.1407 4.875 10.1345 4.8875 10.1407 4.90312L10.172 4.94687C10.172 4.94687 10.2126 4.99375 10.1595 4.96875C10.1095 4.94687 10.097 4.9375 10.0813 4.9375L10.0501 4.95312L10.0095 4.95937C9.99072 4.95937 9.97197 4.99688 10.0032 5.00313C10.0313 5.00938 10.0407 5.01562 10.0407 5.04062C10.0407 5.06562 10.0313 5.05625 10.0157 5.07187C10.0032 5.09062 9.99072 5.07812 9.96572 5.07812C9.94072 5.07812 9.93447 5.1 9.93447 5.11875C9.93447 5.1375 9.94385 5.1375 9.95322 5.15C9.96572 5.16875 9.98447 5.17187 10.0032 5.15625C10.0188 5.14062 10.0345 5.12813 10.0438 5.15938C10.0563 5.19063 10.072 5.19063 10.0907 5.19063C10.1126 5.19063 10.122 5.19062 10.1407 5.17812C10.1563 5.16875 10.1782 5.17813 10.1813 5.20625C10.1876 5.23125 10.2032 5.2375 10.222 5.24687C10.2407 5.25625 10.2532 5.2625 10.2532 5.27812C10.2595 5.29687 10.2688 5.30312 10.2876 5.29375C10.3063 5.28125 10.3345 5.275 10.347 5.29062L10.3751 5.32812V5.3625L10.447 5.3875L10.4532 5.41875C10.4532 5.42812 10.4657 5.4375 10.4845 5.43125H10.5345C10.5345 5.43125 10.5595 5.42187 10.5595 5.4C10.5595 5.38125 10.5688 5.375 10.5907 5.375C10.6063 5.375 10.647 5.39062 10.6563 5.36875C10.6688 5.35 10.7001 5.34375 10.7251 5.35312L10.8188 5.39062C10.8188 5.39062 10.8095 5.39062 10.8313 5.425C10.8532 5.45938 10.8938 5.45937 10.8938 5.45937C10.8938 5.45937 10.8938 5.49063 10.9032 5.50313C10.9095 5.51562 10.9438 5.52187 10.9595 5.50937C10.9782 5.49687 11.0032 5.47812 11.0251 5.47812C11.047 5.47812 11.0626 5.47812 11.0626 5.46562C11.0626 5.45312 11.0407 5.44375 11.0407 5.42187C11.0407 5.4 11.0626 5.40312 11.0657 5.38125C11.0688 5.3625 11.0907 5.38125 11.1063 5.39375C11.122 5.40625 11.1376 5.41875 11.1376 5.43125C11.1376 5.44687 11.1688 5.49375 11.1845 5.5C11.2032 5.50625 11.2501 5.50937 11.2657 5.49375C11.2782 5.475 11.3157 5.46875 11.3126 5.50937C11.3095 5.55 11.3001 5.55313 11.3251 5.56563C11.3501 5.57812 11.3563 5.62812 11.3345 5.64062C11.3126 5.65312 11.3032 5.65625 11.3032 5.67812C11.3032 5.7 11.297 5.72812 11.3157 5.74062C11.3345 5.75625 11.347 5.76562 11.347 5.77812C11.347 5.79375 11.3657 5.85312 11.3657 5.85312C11.3657 5.85312 11.3782 5.9125 11.372 5.925C11.372 5.94062 11.3626 5.9625 11.3938 5.95937C11.4251 5.95625 11.4345 5.95625 11.4345 5.98125C11.4345 6.00625 11.447 6.01875 11.4282 6.02812C11.4095 6.04062 11.397 6.07187 11.4157 6.07812C11.4345 6.08437 11.447 6.09687 11.4532 6.10937C11.4563 6.12187 11.4845 6.14687 11.5032 6.13125C11.522 6.11875 11.5251 6.1125 11.5407 6.10937C11.5532 6.10625 11.5657 6.09687 11.5501 6.07812C11.5376 6.0625 11.5313 6.04688 11.547 6.03437C11.5626 6.025 11.5688 5.99375 11.5688 5.99375C11.5688 5.99375 11.5907 5.9625 11.6157 5.99375C11.6407 6.025 11.647 6.0125 11.6626 6.0125C11.6782 6.0125 11.6876 6.02812 11.6876 6.04375C11.6876 6.0625 11.7251 6.05937 11.7251 6.08437L11.7313 6.17812C11.7313 6.17812 11.7313 6.2125 11.7532 6.225C11.7751 6.24062 11.772 6.24375 11.7595 6.25625C11.7501 6.275 11.7532 6.30312 11.7532 6.31875C11.7532 6.33437 11.7595 6.33437 11.7438 6.35C11.7251 6.3625 11.7157 6.38125 11.7282 6.4C11.7376 6.41875 11.7345 6.43125 11.7626 6.45625C11.7938 6.47812 11.7907 6.4875 11.7907 6.50625C11.7907 6.52187 11.8188 6.54687 11.8188 6.5625C11.8188 6.57812 11.8407 6.6 11.8595 6.60312C11.8782 6.60625 11.897 6.63437 11.897 6.65312L11.9001 6.7125C11.9001 6.7125 11.9001 6.72187 11.9188 6.72187C11.9407 6.72187 11.9563 6.74688 11.9626 6.72187C11.9688 6.69062 11.9938 6.69062 12.0063 6.68125C12.0188 6.67187 12.0501 6.6625 12.0657 6.67187C12.0813 6.68125 12.097 6.68125 12.1126 6.68125L12.1938 6.68437C12.1938 6.68437 12.2126 6.68437 12.2251 6.70937C12.2345 6.73437 12.2657 6.76562 12.2501 6.77812C12.2313 6.79375 12.2313 6.81875 12.2501 6.81875C12.2688 6.81875 12.297 6.81875 12.297 6.83437C12.297 6.85312 12.297 6.86562 12.3188 6.85625C12.3345 6.84687 12.347 6.84375 12.3532 6.85625C12.3626 6.86875 12.3751 6.86875 12.3938 6.87812C12.4126 6.89062 12.4188 6.88125 12.4313 6.86875C12.4407 6.85625 12.4845 6.84375 12.4845 6.84375C12.4845 6.84375 12.5407 6.82812 12.5626 6.83437L12.6157 6.85625C12.6157 6.85625 12.6282 6.8875 12.622 6.90937C12.6157 6.92812 12.6063 6.925 12.6157 6.95625C12.622 6.9875 12.6063 6.9875 12.5938 6.9875C12.5782 6.98125 12.5626 6.98125 12.5626 7.00937C12.5626 7.03437 12.5501 7.04062 12.5501 7.06562C12.5501 7.09063 12.5501 7.08437 12.5345 7.09687C12.522 7.10625 12.5157 7.12188 12.5376 7.12812C12.5595 7.12812 12.5532 7.15312 12.5532 7.16562L12.5501 7.20937C12.5501 7.20937 12.5501 7.225 12.5282 7.225C12.5063 7.225 12.4813 7.225 12.4782 7.24062C12.472 7.25625 12.447 7.28125 12.4688 7.3C12.4938 7.31562 12.4876 7.325 12.472 7.33125C12.4595 7.34063 12.447 7.37187 12.4782 7.38125C12.5063 7.39375 12.5032 7.40312 12.4845 7.41562C12.4657 7.42812 12.4313 7.44062 12.4313 7.45937C12.4313 7.47812 12.422 7.47812 12.4001 7.48125C12.3782 7.48437 12.3688 7.5125 12.3938 7.54375C12.4188 7.57812 12.4251 7.575 12.4438 7.575C12.4626 7.575 12.4626 7.54375 12.4626 7.54375L12.5407 7.55C12.5595 7.55 12.5845 7.55 12.6001 7.54062C12.6157 7.52812 12.6532 7.5125 12.6532 7.54062C12.6532 7.57187 12.6626 7.57187 12.6782 7.58125C12.697 7.59687 12.7001 7.58437 12.7157 7.60625C12.7313 7.625 12.7345 7.60625 12.747 7.58437C12.7563 7.5625 12.7782 7.54062 12.797 7.56562C12.8126 7.59375 12.8126 7.58437 12.8345 7.58437C12.8563 7.58437 12.8657 7.59687 12.8657 7.6125C12.8657 7.62812 12.8845 7.62812 12.9126 7.625C12.9376 7.625 12.9407 7.64062 12.9501 7.65625C12.9595 7.67187 12.9657 7.66875 12.9813 7.66875C12.9938 7.66875 13.0095 7.66875 13.0188 7.65625C13.0313 7.64375 13.0438 7.625 13.0595 7.64687C13.0751 7.66562 13.1032 7.6625 13.1095 7.64062C13.1188 7.61562 13.1501 7.59687 13.1688 7.62187C13.1876 7.65 13.2001 7.65 13.2188 7.65312C13.2376 7.65312 13.2626 7.65312 13.272 7.67187C13.2845 7.69062 13.3188 7.71562 13.2938 7.73437C13.2688 7.75625 13.2407 7.78125 13.2626 7.79062C13.2822 7.79539 13.2997 7.80635 13.3126 7.82187C13.3282 7.83437 13.3751 7.84375 13.397 7.84687C13.4188 7.84687 13.4345 7.85312 13.4595 7.83125C13.4876 7.8125 13.5126 7.8125 13.5095 7.84062C13.5063 7.86562 13.5188 7.89687 13.5188 7.89687C13.5188 7.89687 13.5376 7.94062 13.5376 7.95625C13.5376 7.97187 13.5345 7.975 13.5688 7.99687C13.6001 8.01562 13.5938 8.02812 13.622 8.00937C13.647 7.99062 13.6532 7.97812 13.6532 7.9625V7.90937C13.6532 7.90937 13.6907 7.90313 13.7032 7.89375C13.7188 7.88125 13.7751 7.85312 13.7907 7.86562C13.8063 7.87812 13.822 7.875 13.8376 7.86875C13.8532 7.8625 13.8813 7.8625 13.897 7.8625C13.9095 7.8625 13.9345 7.86562 13.9657 7.84375C13.9938 7.81875 13.9938 7.825 14.0126 7.84375C14.0282 7.85937 14.0282 7.87812 14.0188 7.89375C14.0063 7.90625 14.0188 7.93437 14.0438 7.93437C14.0688 7.93437 14.0751 7.95 14.0751 7.96562L14.0845 8.01875C14.0845 8.03125 14.0845 8.04062 14.1282 8.05C14.1657 8.05938 14.1595 8.08125 14.1657 8.1C14.1751 8.11563 14.1751 8.13125 14.1532 8.13125C14.1313 8.13125 14.122 8.14062 14.122 8.15625C14.1157 8.17187 14.0845 8.17813 14.0845 8.17813L14.0532 8.17187C14.0532 8.17187 14.0282 8.17187 14.0188 8.18437C14.0063 8.2 13.9876 8.225 14.0001 8.24687C14.0157 8.27187 14.0157 8.28437 14.0001 8.29687C13.9876 8.30625 13.9782 8.35625 13.9657 8.34687C13.9501 8.33437 13.9345 8.34687 13.9188 8.35625C13.9032 8.3625 13.9063 8.40937 13.9345 8.425C13.9657 8.44375 13.972 8.46562 13.972 8.46562L14.0032 8.51562C14.0032 8.51562 13.9938 8.525 13.9876 8.54375C13.9782 8.55937 13.9563 8.59375 13.9782 8.6C14.0001 8.60625 13.9907 8.64375 13.9688 8.64375C13.947 8.64375 13.922 8.63125 13.9188 8.65938C13.9157 8.6875 13.9032 8.67813 13.8813 8.675C13.8595 8.675 13.8063 8.65937 13.7907 8.68437C13.7751 8.7125 13.772 8.72188 13.747 8.71875C13.722 8.71875 13.7313 8.75937 13.7407 8.775L13.772 8.81563C13.772 8.81563 13.7938 8.83125 13.7938 8.86563C13.7938 8.89688 13.7782 8.89687 13.7626 8.87187C13.7501 8.85 13.722 8.85313 13.7188 8.87813C13.7157 8.90625 13.7095 8.94687 13.6876 8.94687C13.6595 8.94687 13.6501 8.95312 13.6376 8.96562C13.6282 8.97812 13.6095 9.00313 13.6095 9.01562C13.6095 9.02812 13.6063 9.04375 13.5876 9.04688C13.5688 9.05 13.5657 9.08438 13.5657 9.08438C13.5657 9.08438 13.522 9.09375 13.5188 9.10938C13.5157 9.125 13.522 9.15312 13.4876 9.15625C13.4736 9.1579 13.4601 9.16269 13.4482 9.17026C13.4363 9.17784 13.4263 9.188 13.4188 9.2C13.4063 9.21562 13.4032 9.23125 13.4188 9.24687C13.4345 9.2625 13.4438 9.31562 13.4626 9.325C13.4782 9.33437 13.4938 9.34063 13.4907 9.36563C13.4876 9.39375 13.4657 9.4125 13.4938 9.4125C13.5251 9.4125 13.5407 9.41875 13.5313 9.44375C13.5188 9.46563 13.5188 9.46875 13.5001 9.47812C13.4751 9.49062 13.4657 9.49062 13.4657 9.51562C13.4657 9.54063 13.472 9.54375 13.4532 9.55313C13.4345 9.5625 13.4345 9.575 13.4345 9.59688C13.4345 9.61875 13.4282 9.60938 13.4063 9.63125C13.3845 9.65625 13.3563 9.65625 13.3376 9.65C13.3188 9.64375 13.3157 9.64375 13.3126 9.62187C13.3095 9.60312 13.2782 9.60312 13.2595 9.60625C13.2407 9.60625 13.2157 9.62813 13.2157 9.62813C13.2157 9.62813 13.1845 9.65 13.197 9.66562C13.2126 9.68125 13.2032 9.70938 13.1782 9.70625C13.1532 9.70312 13.097 9.73125 13.0782 9.70312C13.0595 9.67188 13.0095 9.65313 13.0001 9.69375C12.9938 9.73125 13.022 9.72813 13.0188 9.76875C13.0188 9.80938 13.0095 9.80937 12.9938 9.82187C12.9813 9.83437 12.9813 9.84688 12.9751 9.8625C12.9751 9.87813 12.9688 9.91563 12.9938 9.92813C13.0188 9.94375 13.0313 9.97813 13.0313 10C13.0313 10.0188 13.0313 10.0406 13.0563 10.0406C13.0813 10.0406 13.1032 10.0344 13.1063 10.0125C13.1095 9.99062 13.1595 9.975 13.1657 10.0219C13.1657 10.0688 13.1657 10.0938 13.1876 10.1125C13.2032 10.1313 13.2188 10.1594 13.2345 10.1687C13.247 10.1781 13.272 10.2625 13.272 10.2625C13.2376 10.2719 13.2282 10.3187 13.2063 10.325C13.1938 10.3312 13.1782 10.325 13.1657 10.3344C13.1595 10.3438 13.1595 10.3562 13.147 10.3594C13.1188 10.3719 13.1251 10.3313 13.0907 10.3469C13.0626 10.3594 13.0595 10.3938 13.0188 10.3781C12.997 10.3719 12.9845 10.2844 12.9782 10.2656L12.9438 10.2094C12.9188 10.1719 12.872 10.2094 12.8563 10.1969C12.8313 10.1812 12.8407 10.1531 12.8032 10.15C12.7282 10.1437 12.7813 10.1969 12.7501 10.2063C12.6876 10.2281 12.6876 10.15 12.6438 10.1875C12.6282 10.2 12.6751 10.2094 12.6626 10.2312C12.6532 10.25 12.6095 10.2813 12.6095 10.3031C12.6157 10.3344 12.647 10.3438 12.6563 10.3656C12.6876 10.4375 12.6407 10.4844 12.572 10.4281C12.5345 10.4 12.5251 10.3438 12.4688 10.35C12.4532 10.35 12.4501 10.3625 12.4376 10.3656C12.422 10.3656 12.4126 10.3531 12.397 10.3562C12.3751 10.3656 12.397 10.3813 12.3907 10.3938C12.3907 10.3938 12.3595 10.4156 12.3595 10.425C12.3407 10.4438 12.347 10.4625 12.322 10.4812C12.3032 10.4969 12.2876 10.4875 12.2657 10.5125C12.2438 10.5344 12.2407 10.5719 12.2126 10.5938C12.197 10.6062 12.1876 10.5594 12.1688 10.5906L12.1626 10.6031C12.1563 10.6125 12.1563 10.6156 12.1626 10.625C12.2001 10.7 12.1188 10.725 12.0938 10.7781C12.0845 10.8 12.1126 10.8187 12.1032 10.8375L12.0563 10.8906C12.0563 10.8969 12.0501 10.9156 12.0438 10.9219C12.0376 10.9281 12.0126 10.9219 12.0126 10.9344C12.0126 10.9469 12.0376 10.9562 12.0438 10.9625C12.0501 10.9719 12.0376 10.9844 12.0438 10.9875C12.0813 11.0281 12.0595 11.0156 12.0782 11.05C12.0813 11.0563 12.0938 11.0469 12.1001 11.0594C12.1032 11.0719 12.0876 11.0719 12.0938 11.0844C12.0938 11.0906 12.1251 11.1281 12.1251 11.1281C12.1251 11.1406 12.0688 11.1656 12.0563 11.1656C12.022 11.1656 12.0876 11.0969 12.0313 11.0969C12.0063 11.0969 12.0032 11.15 12.0001 11.1594H11.9688C11.9313 11.1594 11.9063 11.2031 11.8938 11.2063C11.8845 11.2094 11.8626 11.2 11.847 11.2063C11.8345 11.2063 11.8157 11.2219 11.8032 11.2219C11.7938 11.2219 11.7907 11.2156 11.7813 11.2094C11.7657 11.2 11.7345 11.1969 11.7188 11.1906C11.7063 11.1906 11.6876 11.2031 11.6813 11.2C11.672 11.1937 11.6907 11.1687 11.6626 11.1562L11.6407 11.1031C11.6501 11.0719 11.6595 11.0406 11.6563 11.0063C11.6501 10.9719 11.5938 10.9438 11.5813 10.9125C11.572 10.8938 11.5626 10.8375 11.5407 10.825C11.5169 10.8067 11.4976 10.7832 11.4845 10.7563C11.4845 10.75 11.4938 10.7375 11.4845 10.725C11.4751 10.7156 11.4595 10.7094 11.4532 10.6938C11.4501 10.6813 11.4532 10.6375 11.4376 10.6281C11.422 10.6188 11.3126 10.6031 11.2813 10.6C11.2688 10.6 11.2595 10.6 11.2501 10.5906L11.2313 10.5688L11.2001 10.575C11.1907 10.575 11.1751 10.5687 11.1688 10.575C11.1345 10.5969 11.1251 10.6281 11.0907 10.6562C11.0563 10.6813 11.0188 10.6813 10.9845 10.7094C10.9626 10.7281 10.947 10.775 10.9251 10.7969C10.9157 10.8063 10.9032 10.7969 10.9001 10.8C10.8813 10.8219 10.8563 10.8375 10.8376 10.8562C10.8345 10.8625 10.8376 10.8687 10.8313 10.8719L10.7907 10.8844H10.7532C10.7376 10.8906 10.7376 10.9094 10.6751 10.9219L10.6595 10.9312L10.6407 10.9469H10.6126C10.597 10.9469 10.5876 10.9625 10.5751 10.9625C10.5438 10.9687 10.4876 10.9469 10.4626 10.9594C10.447 10.9625 10.4063 11.0125 10.3907 11.0156C10.3813 11.0188 10.372 11.0156 10.3595 11.0125L10.3407 11.0813L10.2657 11.1469C10.2563 11.1563 10.2532 11.1688 10.2407 11.1781C10.2345 11.1875 10.222 11.1938 10.2095 11.1938C10.197 11.1938 10.1751 11.1812 10.1595 11.1812C10.1345 11.175 10.0563 11.1719 10.0345 11.1781C10.0063 11.1813 10.0157 11.2531 9.95322 11.2594L9.8501 11.2719C9.84697 11.2719 9.8251 11.2594 9.80322 11.2625C9.79385 11.2656 9.76885 11.2938 9.76885 11.3V11.3156L9.7751 11.3281C9.7626 11.3438 9.73135 11.3688 9.72197 11.3906L9.70947 11.4031C9.70322 11.4094 9.65947 11.425 9.65635 11.4312C9.64697 11.4562 9.6876 11.4813 9.68135 11.4906C9.67197 11.5219 9.62822 11.5531 9.6126 11.5844C9.60947 11.5969 9.62822 11.6375 9.62822 11.65C9.62197 11.6906 9.60947 11.7406 9.6126 11.7781L9.61885 11.8313L9.64072 11.8469L9.69697 11.9594C9.70635 12.0281 9.60322 12.0031 9.66572 12.0719C9.67197 12.0844 9.67822 12.0937 9.69072 12.1031L9.77822 12.175C9.77822 12.1875 9.71572 12.1969 9.70635 12.2063C9.6751 12.2375 9.65322 12.2875 9.6251 12.3188C9.60635 12.3344 9.59385 12.3156 9.56885 12.3594C9.5626 12.375 9.56885 12.4094 9.55947 12.4219C9.54385 12.4344 9.53447 12.4156 9.51885 12.4219C9.5126 12.4219 9.50947 12.4437 9.50322 12.4469C9.4876 12.4625 9.34072 12.5406 9.32822 12.5312C9.32197 12.5281 9.3126 12.5031 9.3126 12.4969C9.3126 12.4875 9.3001 12.4688 9.29385 12.4656C9.25635 12.4344 9.2001 12.425 9.1626 12.4656C9.15322 12.475 9.15322 12.4906 9.14072 12.4969L9.07822 12.5469L9.0626 12.5625C9.04697 12.5625 9.0126 12.5219 9.0001 12.5094C8.9876 12.4906 8.9376 12.4469 8.93447 12.425C8.93447 12.35 8.8751 12.2719 8.85322 12.2H8.8876C8.92822 12.1719 8.91885 12.1063 8.99072 12.1313C9.0001 12.1188 9.0001 12.1063 9.01572 12.1C9.02197 12.0938 9.03447 12.0906 9.0376 12.0844C9.0626 12.0469 9.09072 11.9031 9.06572 11.8656C9.04385 11.8344 9.01885 11.8344 9.00322 11.7812C8.99697 11.7656 9.00322 11.75 9.00322 11.7312L8.97197 11.6344C8.96572 11.625 8.9501 11.6188 8.9501 11.6125L8.94385 11.5156C8.92197 11.4469 8.8376 11.4063 8.83447 11.3969L8.80322 11.3438C8.79072 11.3219 8.79072 11.3125 8.78447 11.2937C8.78135 11.2844 8.76572 11.275 8.76572 11.2656C8.76572 11.2469 8.81572 11.2125 8.8126 11.1812C8.8126 11.1719 8.78135 11.1406 8.7876 11.125C8.79385 11.1062 8.8251 11.0687 8.8251 11.0469C8.8251 11.0219 8.7751 10.9656 8.76885 10.9406C8.76572 10.925 8.7876 10.9156 8.78135 10.9062C8.7751 10.8938 8.7251 10.8469 8.71885 10.8344C8.70947 10.825 8.73447 10.8125 8.71885 10.7937C8.7001 10.7781 8.71572 10.7812 8.70947 10.7688C8.70322 10.7531 8.6876 10.7375 8.67822 10.7219C8.67197 10.7063 8.62822 10.55 8.63135 10.5406C8.62197 10.5312 8.60947 10.5219 8.60322 10.5094L8.59072 10.4719C8.59072 10.4719 8.54072 10.4563 8.53135 10.4406C8.5251 10.4313 8.52197 10.3906 8.50947 10.3719C8.50322 10.3625 8.49385 10.3656 8.4876 10.3594C8.48135 10.3531 8.48135 10.3437 8.47822 10.3375C8.4626 10.3187 8.43447 10.3375 8.41572 10.2625C8.38447 10.2437 8.3626 10.2313 8.34072 10.2063L8.32822 10.1938C8.30947 10.1875 8.28135 10.1844 8.26572 10.1719C8.25635 10.1719 8.20947 10.1719 8.20322 10.1656L8.19072 10.1406C8.16572 10.1375 8.12197 10.1406 8.1001 10.1219C8.08447 10.1062 8.08135 10.0344 8.0501 10.0437C8.04602 10.0425 8.04168 10.0425 8.0376 10.0437C8.01572 10.0125 7.94697 10.0125 7.91885 9.99375C7.9126 9.99062 7.8876 9.99375 7.8876 9.9875L7.89072 9.94687L7.85635 9.90312C7.82822 9.89687 7.8376 9.89375 7.8251 9.88437C7.77822 9.88437 7.77197 9.89062 7.74385 9.91562C7.7376 9.92187 7.72197 9.925 7.7126 9.92813C7.69697 9.9375 7.69385 9.96562 7.67197 9.95312L7.65322 9.9375C7.64072 9.925 7.63447 9.93125 7.62822 9.9125C7.59072 9.89063 7.4876 9.95938 7.46572 9.9125C7.44697 9.90313 7.43447 9.9125 7.41885 9.9C7.4126 9.89375 7.44072 9.80625 7.36572 9.775L7.41572 9.74063C7.42197 9.73125 7.41572 9.71563 7.41572 9.70938C7.41572 9.69375 7.4251 9.66563 7.42197 9.65625C7.42197 9.64687 7.40947 9.6375 7.40635 9.625C7.4001 9.61562 7.40635 9.6 7.4001 9.5875L7.3751 9.575C7.35635 9.55937 7.3376 9.55 7.32197 9.53125L7.30947 9.51562C7.29697 9.50625 7.25322 9.49063 7.25322 9.47188C7.25322 9.46563 7.26572 9.4625 7.26572 9.45625C7.26885 9.44688 7.26572 9.4375 7.2751 9.43125C7.29385 9.4 7.34072 9.41563 7.33447 9.3625C7.33135 9.3375 7.3126 9.31875 7.30947 9.29375C7.3001 9.2875 7.3001 9.27813 7.29385 9.27188C7.24697 9.26875 7.25322 9.22188 7.2376 9.20938C7.19072 9.17813 7.15322 9.19687 7.20635 9.13437C7.2126 9.1125 7.15947 9.07813 7.1501 9.06875C7.13135 9.05 7.14072 9.00938 7.13135 8.99063C7.13135 8.98125 7.09697 8.9625 7.0876 8.95L7.07197 8.91875V8.91562C7.08135 8.90625 7.07822 8.89062 7.07197 8.88437C7.06885 8.875 7.05322 8.87812 7.0501 8.87187C7.00635 8.83437 6.95635 8.81562 6.89697 8.79375C6.88135 8.7875 6.8876 8.775 6.87197 8.76875L6.77822 8.73125C6.77197 8.73125 6.76572 8.69687 6.75947 8.68437L6.73135 8.65312C6.73135 8.62187 6.7126 8.62187 6.6876 8.60312V8.58438L6.70635 8.51875C6.70947 8.50625 6.7251 8.49375 6.72197 8.48125L6.70947 8.40937C6.68447 8.34687 6.65635 8.35312 6.67197 8.26875C6.67197 8.25 6.66885 8.24063 6.68135 8.225L6.6876 8.21562L6.7251 8.1875C6.7376 8.16875 6.74697 8.12813 6.7626 8.11563L6.81885 8.07812C6.8251 8.07187 6.83135 8.05 6.82822 8.04062C6.81572 8.03437 6.80322 8.0375 6.79072 8.03437C6.78447 8.03437 6.76885 8.02188 6.75635 8.02188C6.75322 8.01563 6.74697 8.0125 6.74697 8.00625L6.74072 8C6.7251 8 6.70947 7.99062 6.69697 7.98437C6.68135 7.97812 6.65947 7.97812 6.64385 7.96875C6.6126 7.95312 6.58135 7.90625 6.55322 7.9C6.51572 7.89062 6.49072 7.90312 6.45322 7.90625C6.43135 7.90625 6.43135 7.89375 6.4126 7.8875C6.3876 7.87812 6.40635 7.9 6.3501 7.88125C6.34072 7.875 6.3501 7.85625 6.3501 7.85H6.31885C6.2751 7.8375 6.29072 7.79375 6.27822 7.76562C6.2751 7.75937 6.25322 7.75937 6.24697 7.75937C6.24072 7.75937 6.24072 7.75312 6.24072 7.75312L6.24697 7.75C6.25322 7.7375 6.2251 7.70625 6.2251 7.7C6.22822 7.69062 6.2876 7.68125 6.29385 7.68125C6.29697 7.67187 6.29072 7.66562 6.2876 7.65937C6.2876 7.64375 6.29697 7.62187 6.30322 7.60625V7.6C6.28447 7.59062 6.28135 7.57812 6.26572 7.56875C6.26572 7.55937 6.2751 7.55625 6.27822 7.54687C6.30635 7.46875 6.3501 7.53125 6.3876 7.45937C6.39072 7.45312 6.40322 7.4375 6.40635 7.425H6.4126C6.41885 7.425 6.43135 7.43125 6.4376 7.425C6.44385 7.41875 6.45322 7.41875 6.4626 7.41562H6.47822C6.54697 7.40312 6.53135 7.37812 6.57197 7.35C6.58447 7.34062 6.61572 7.3375 6.62822 7.33125C6.64385 7.34063 6.66572 7.3625 6.69385 7.375C6.71572 7.38125 6.7876 7.39687 6.8001 7.40625C6.81572 7.4125 6.81885 7.43125 6.83135 7.4375C6.87197 7.4625 6.84697 7.425 6.8876 7.43125C6.92822 7.44062 6.95947 7.475 6.99697 7.49062L7.02822 7.4875C7.0376 7.48438 7.1001 7.47187 7.10635 7.475L7.13135 7.48437C7.14072 7.4875 7.14697 7.46875 7.15635 7.46875C7.18135 7.475 7.18135 7.48437 7.21885 7.48125C7.21885 7.48125 7.2376 7.37812 7.25635 7.375C7.26572 7.37187 7.29385 7.39687 7.3001 7.4C7.3126 7.40312 7.3001 7.37812 7.3001 7.37812C7.29385 7.36875 7.2751 7.30625 7.27822 7.3C7.27822 7.3 7.29385 7.30625 7.30322 7.30312C7.32197 7.29687 7.3501 7.29062 7.36572 7.275L7.39697 7.22812C7.4001 7.22187 7.39072 7.20312 7.39697 7.19687L7.4251 7.17812C7.4376 7.16562 7.4376 7.14687 7.45635 7.1375C7.51885 7.13125 7.54072 7.08125 7.6001 7.075H7.61885L7.63135 7.09375C7.63135 7.09687 7.67197 7.12187 7.67822 7.11875C7.68447 7.11875 7.6876 7.10937 7.69385 7.10625C7.70322 7.10937 7.7376 7.09062 7.74072 7.07812C7.74072 7.07812 7.73447 7.06875 7.7376 7.05937C7.75319 7.04551 7.76992 7.03296 7.7876 7.02187H7.83135C7.8376 7.02812 7.8376 7.04062 7.84697 7.04062H7.88447C7.89072 7.04062 7.89385 7.025 7.90635 7.025Z" fill="#D0A650"/>
<path d="M10.9968 2.2937L11.4999 3.8437L10.1812 2.88433H11.8124L10.4937 3.8437L10.9937 2.2937H10.9968ZM12.9593 2.64058L13.4593 4.19058L12.1437 3.2312H13.7718L12.453 4.19058L12.9593 2.64058ZM14.8312 3.32183L15.3312 4.87183L14.0155 3.91245H15.6437L14.3249 4.87495L14.8312 3.32495V3.32183Z" fill="white"/>
<path d="M9.00322 2.2937L8.5001 3.8437L9.81885 2.88433H8.1876L9.50635 3.8437L9.00635 2.2937H9.00322ZM7.04072 2.64058L6.54072 4.19058L7.85635 3.2312H6.22822L7.54697 4.19058L7.04072 2.64058ZM5.17822 3.32183L5.68447 4.87183L4.36572 3.91245H5.99385L4.6751 4.87183L5.17822 3.32183Z" fill="white"/>
</g>
<defs>
<clipPath id="clip0_217_9023">
<rect width="20" height="15" fill="white"/>
</clipPath>
</defs>
</svg>
