<svg width="40" height="12" viewBox="0 0 40 12" fill="none" xmlns="http://www.w3.org/2000/svg">
<path fill-rule="evenodd" clip-rule="evenodd" d="M39.4629 4.42336L39.5326 4.57685L39.5885 4.71639L39.6303 4.89778C39.6303 4.99081 39.5745 5.12104 39.4629 5.28848L39.421 5.35825H24.6024V5.60941H25.6908V6.55825L25.8443 6.71174C25.928 6.77685 25.9698 6.88848 25.9698 7.04662L25.9419 7.15825L25.914 7.20011V7.24197L25.8443 7.40941H25.7187H25.0629H23.3885H20.1233L20.0536 7.54894L20.1233 7.59081L20.221 7.68848L20.1512 7.89778H19.5931L19.5233 7.82801L19.3419 7.40941C19.2489 7.19546 19.2396 7.01871 19.314 6.87918C19.314 6.76755 19.3698 6.71174 19.4815 6.71174H19.5233C19.7559 6.71174 19.9001 6.74429 19.9559 6.80941C20.0861 6.80941 20.2396 6.7722 20.4164 6.69778L17.7094 6.66988L17.3605 6.76755L16.7187 6.94894L16.0489 7.13034C15.8536 7.17685 15.7466 7.21406 15.728 7.24197V8.21871L12.5326 8.5536V7.54894C12.3652 7.54894 12.2629 7.5722 12.2257 7.61871L12.0024 7.80011L11.5838 8.02336L10.9419 8.07918C10.7001 8.06057 10.4257 7.95825 10.1187 7.7722L10.0629 7.80011H9.95124L9.93729 8.23267L9.83961 8.79081L9.67217 9.32104L9.47682 9.60011L8.82101 9.66987L7.84426 9.54429L6.89543 9.39081L6.36519 9.20941L5.9745 8.79081L5.55589 8.41406L5.29078 8.21871H3.46287L3.32333 9.11174C3.31403 9.18615 3.28613 9.22336 3.23961 9.22336L3.07217 9.32104L2.59775 9.22336H2.03961H1.67682L1.39775 9.26522L0.965195 9.33499L0.518683 9.43267L0.183799 9.50243H0.0861249L0.0442644 9.46057L0.0163574 9.22336V8.69313V7.61871L0.0861249 6.37685V5.45592C0.0861249 5.3815 0.179148 5.30243 0.365195 5.21871L1.60706 5.13499H1.96985L1.99775 5.10708L2.03961 5.07918L2.10938 5.03732L2.22101 4.9536H5.54194C5.61636 4.9629 5.69078 5.00476 5.76519 5.07918L6.14194 5.45592H9.90938L10.021 5.10708L10.0908 4.75825V4.67453H10.1187L10.6629 4.57685L11.1094 4.49313L11.2489 4.46522C11.2582 4.43732 11.2861 4.41406 11.3326 4.39546H12.5047V4.04662H12.0722L11.7233 4.10243L11.0536 4.18615L10.2722 4.25592L9.58845 4.21406L9.56054 4.14429V4.10243L9.51868 3.50243V3.12569C9.51868 3.05127 9.53264 3.00011 9.56054 2.9722L9.58845 2.94429H9.65822L9.95124 2.91639L10.621 2.87453L11.4024 2.83267L11.9605 2.87453H12.5047H13.1745L13.7745 2.86057L14.1652 2.83267V2.59546L14.1373 2.52569V2.30243L15.2954 2.23267H15.3094L15.4489 2.62336L15.4071 2.66522C15.3885 2.70243 15.3559 2.72104 15.3094 2.72104V2.79081H17.3326L18.0024 2.69313L18.9094 2.59546L19.7605 2.52569L20.221 2.5815L20.2768 2.62336L20.3047 4.21406H20.221L17.5001 4.04662V4.10243L17.1094 4.03267L16.4396 4.04662V4.36755H39.4629V4.42336ZM11.8629 7.1722C11.8629 6.97685 11.7559 6.87918 11.5419 6.87918H10.7605C10.5466 6.87918 10.4396 6.97685 10.4396 7.1722C10.4396 7.40476 10.5466 7.52104 10.7605 7.52104H11.5419C11.7559 7.52104 11.8629 7.40476 11.8629 7.1722ZM7.5931 8.67918C7.82566 8.74429 8.10008 8.70708 8.41636 8.56755L8.93264 8.12104L9.07217 7.70243C9.10008 7.51639 9.08147 7.3722 9.01636 7.26988C8.96985 7.09313 8.79775 6.97685 8.50008 6.92104L7.57915 6.9629C7.42101 7.04662 7.30938 7.11639 7.24426 7.1722L7.03496 7.45127C6.88613 7.69313 6.86752 7.9536 6.97915 8.23267C7.10938 8.50243 7.31403 8.65127 7.5931 8.67918Z" fill="white"/>
</svg>
