<svg width="25" height="12" viewBox="0 0 25 12" fill="none" xmlns="http://www.w3.org/2000/svg">
<path fill-rule="evenodd" clip-rule="evenodd" d="M24.3768 3.48853L24.4605 3.51644L24.5303 3.5583L24.5582 3.60016L24.614 3.64202V3.69783L24.6559 3.73969L24.6698 3.75365L24.6977 3.7676L24.7117 3.79551L24.7396 3.80946V3.82341V3.85132V3.87923V3.89318V3.92109V3.949L24.7256 3.96295L24.7396 3.9769V4.00481V4.03272L24.7256 4.06062L24.7117 4.08853L24.6838 4.10248H24.6559H24.6419L24.6559 4.11644V4.14435V4.17225L24.6419 4.18621L24.6279 4.20016L24.614 4.22807H24.5861V4.24202H24.5582L24.5442 4.25597H24.5303L23.7907 4.26993L23.7768 4.28388H23.7349H23.721H23.6931H23.6652L17.8326 4.31179H17.8047V4.32574V4.35365V4.38155V4.40946V4.43737V4.45132L17.7907 4.47923L17.7768 4.50714V4.59086V4.61876V4.63272V4.66062V4.68853V4.71644V4.74434V4.78621H17.8047L17.8326 4.80016H17.8466L17.8884 4.81411L17.9163 4.82807L17.9303 4.85597H17.9442V4.88388V4.89783H17.9721V4.91179V4.93969L17.9861 4.9676V4.98155L18 4.99551L17.9721 5.02341V5.05132V5.07923V5.10714V5.13504V5.16295V5.19086V5.21876V5.24667V5.26062V5.28853V5.31644V5.33039V5.3583V5.37225V5.40016V5.42807V5.45597V5.46993V5.49783V5.52574V5.55365V5.58155V5.59551V5.62341V5.65132V5.69318V5.72109V5.73504V5.76295V5.79086V5.80481V5.83272V5.86062V5.88853V5.91644V5.93039L17.9582 5.94434V5.9583L17.9163 5.97225H17.8326L17.7907 5.9583H17.7768V5.97225V6.00016V6.01411V6.04202V6.06993V6.08388V6.11179V6.13969V6.1676V6.19551V6.22341V6.25132V6.26528V6.29318V6.30714V6.33504V6.349V6.3769V6.40481V6.41876V6.44667V6.47458V6.50248V6.53039V6.5583V6.58621V6.60016V6.62807V6.64202L17.7628 6.66993V6.68388H17.8047L17.8186 6.69783L17.8466 6.71179V6.73969L17.8605 6.75365L17.8745 6.78155V6.79551L17.8884 6.80946H17.9024L17.9163 6.83737V6.86527V6.87923L17.9024 6.90714L17.8884 6.92109V6.949V6.96295V6.99086V7.01876V7.04667V7.07458V7.10248V7.13039V7.14434V7.17225V7.20016V7.21411V7.24202V7.25597V7.28388V7.29783V7.32574V7.35365V7.38155V7.40946V7.43737V7.46527V7.49318V7.50714V7.53504V7.56295V7.61876V7.64667V7.67458V7.68853V7.71644V7.74434V7.77225V7.80016V7.82807V7.84202V7.86993V7.91179V7.93969V7.9676V7.98155V8.00946V8.03737V8.05132V8.07923V8.10714V8.13504V8.16295V8.19086V8.21876V8.24667V8.27458V8.30248V8.31644V8.34434V8.37225V8.38621V8.41411V8.42807V8.45597V8.48388V8.49783V8.52574V8.55365V8.58155V8.60946V8.63737V8.65132V8.67923V8.70714V8.73504V8.749V8.7769V8.79086V8.81876V8.84667V8.86062V8.88853V8.91644V8.94434V8.97225V9.00016V9.02807V9.04202V9.06993V9.08388V9.11179V9.12574V9.15365V9.18155V9.19551V9.22341V9.25132V9.26528V9.29318V9.32109V9.33504V9.36295V9.39086V9.41876V9.44667V9.46062V9.48853V9.51644V9.54434V9.57225V9.60016V9.62807V9.65597V9.66993V9.69783V9.72574V9.75365V9.78155V9.80946V9.83737V9.85132V9.87923V9.90714V9.93504V9.96295V9.99086V10.0048L17.8745 10.0327L17.9024 10.0467L17.9163 10.0746V10.1025L17.9024 10.1304H17.8605H17.7489L17.7349 10.1583L17.707 10.1862V10.2002V10.2281V10.256V10.2699V10.2978V10.3118V10.3397V10.3676V10.3955V10.4095V10.4374V10.4653V10.4932V10.5211V10.535V10.5629V10.5909V10.6188V10.6327V10.6606V10.6746V10.7025V10.7304V10.7443V10.7723V10.7862L17.7489 10.8002L17.7628 10.8141L17.7768 10.842L17.7628 10.8699L17.7489 10.8839L17.707 10.8978H17.3721L17.3303 10.8839L17.3024 10.8699V10.842V10.8141L17.3303 10.8002L17.3721 10.7862H17.3861V10.7583V10.7443V10.7164V10.6885V10.6606V10.6327V10.6048V10.5769V10.549V10.5211V10.4932V10.4653V10.4513V10.4234V10.3955V10.3816V10.3536V10.3397V10.3118V10.2839V10.2699V10.242V10.2141V10.2002H17.3721V10.1723L17.3303 10.1583L17.3163 10.1304H17.3024H17.2745L17.2326 10.1025L17.2186 10.0746V10.0467L17.2047 10.0327L17.1907 10.0048L17.1768 9.99086V9.96295L17.1628 9.93504V9.90714V9.87923V9.85132V9.83737V9.80946V9.78155V9.75365V9.72574V9.69783V9.66993V9.65597V9.62807V9.60016V9.57225V9.54434V9.51644V9.48853V9.46062V9.44667V9.41876V9.39086V9.36295V9.33504V9.32109V9.29318V9.26528V9.25132V9.22341V9.19551V9.18155V9.15365V9.12574V9.11179V9.08388V9.06993V9.04202V9.02807V9.00016V8.97225V8.94434V8.91644V8.88853V8.86062V8.84667V8.81876V8.79086V8.7769V8.749V8.73504V8.70714V8.67923V8.65132V8.63737V8.60946V8.58155V8.55365V8.52574V8.49783V8.48388V8.45597V8.42807V8.41411V8.38621V8.37225V8.34434V8.31644V8.30248V8.27458V8.24667V8.21876V8.19086V8.16295V8.13504V8.10714V8.07923V8.05132V8.03737V8.00946V7.98155V7.9676V7.93969V7.91179V7.86993V7.84202V7.82807V7.80016V7.77225V7.74434V7.71644V7.68853V7.67458V7.64667V7.61876V7.56295V7.53504V7.50714V7.49318V7.46527V7.43737V7.40946V7.38155V7.35365V7.32574V7.29783V7.28388V7.25597V7.24202V7.21411V7.20016V7.17225V7.14434V7.13039V7.10248V7.07458V7.04667V7.01876V6.99086V6.96295V6.949V6.92109V6.90714V6.87923V6.86527V6.83737V6.80946V6.78155V6.7676L17.1768 6.75365H17.2186V6.73969V6.71179L17.2326 6.68388L17.2605 6.66993L17.2745 6.65597V6.62807V6.60016V6.57225V6.54434V6.53039V6.50248V6.47458V6.44667V6.41876V6.39086V6.36295V6.33504V6.32109V6.29318V6.26528V6.20946V6.18155V6.15365V6.13969V6.11179V6.08388V6.05597V6.02807V6.00016V5.98621V5.9583H17.2466H17.2186H17.1628H17.1349V5.97225L17.107 5.94434V5.93039V5.90248V5.87458V5.86062V5.83272V5.80481V5.7769L17.121 5.749L17.1349 5.73504L17.107 5.72109V5.69318V5.66528L17.121 5.65132L17.1349 5.62341V5.59551V5.58155V5.55365V5.52574L17.121 5.49783L17.107 5.46993V5.45597V5.42807V5.40016V5.37225H17.1349L17.107 5.3583L17.0931 5.33039L17.0373 5.31644L17.0233 5.30248L16.9954 5.27458V5.24667V5.21876L16.9814 5.19086L16.9675 5.1769V5.149V5.12109L16.9396 5.09318L16.8977 5.10714V5.13504V5.16295V5.19086L16.8838 5.21876L16.8698 5.24667L16.8559 5.26062L16.814 5.27458L16.7163 5.30248L16.6884 5.31644V5.33039V5.3583V5.38621L16.6745 5.40016L16.6605 5.41411L16.6466 5.44202L16.6326 5.45597L16.6186 5.46993H16.5907L16.521 5.48388L16.507 5.49783H16.4791L16.4233 5.48388V5.46993H16.3675L16.3535 5.48388L16.3396 5.49783H16.3117H16.2838H16.2279H16.1024H16.0745L15.9489 5.52574H15.921H15.8791H15.8652H15.8093L15.7954 5.49783H15.7675L15.7256 5.48388L15.7117 5.45597L15.6838 5.44202V5.41411V5.40016V5.37225V5.34434V5.31644V5.30248V5.27458V5.24667V5.21876H15.614H15.5721H12.614V5.24667V5.27458V5.30248V5.31644V5.34434V5.37225V5.40016V5.41411V5.44202V5.46993H12.6419H12.6698L12.7117 5.49783L12.7256 5.52574H12.7396V5.55365V5.58155V5.60946V5.63737V5.66528V5.69318V5.72109V5.76295L12.7814 5.80481L12.7954 5.86062L12.8233 5.90248L12.8512 5.91644L12.8791 5.93039H12.8931L12.9349 5.94434L12.9489 5.9583L12.9768 5.97225V6.00016V6.01411V6.04202V6.06993V6.08388V6.11179V6.13969V6.1676V6.19551V6.22341V6.25132V6.26528V6.29318V6.30714V6.33504V6.349V6.3769V6.40481V6.41876V6.44667V6.47458V6.50248V6.53039V6.5583V6.58621V6.60016V6.62807V6.64202V6.66993V6.68388V6.71179V6.73969V6.75365V6.78155V6.82341V6.85132V6.87923V6.89318V6.92109V6.949V6.9769V7.00481V7.01876V7.04667V7.07458V7.10248V7.13039V7.1583V7.18621V7.21411V7.22807V7.25597V7.28388V7.32574V7.35365V7.3676V7.39551V7.42341V7.43737V7.46527V7.49318V7.52109V7.549V7.56295V7.59086V7.63272V7.66062V7.68853V7.70248V7.73039V7.7583V7.77225V7.80016V7.82807V7.85597V7.88388V7.91179V7.93969V7.9676V7.99551V8.02341V8.03737V8.06527V8.09318V8.10714V8.13504V8.1769V8.20481V8.23272V8.24667V8.27458V8.30248V8.33039V8.3583V8.37225V8.40016V8.42807V8.45597V8.46993V8.49783V8.51179V8.53969V8.5676V8.58155V8.60946V8.63737V8.66528V8.69318V8.72109V8.749V8.7769V8.80481V8.83272V8.84667V8.87458V8.90248V8.91644V8.94434V8.97225V8.98621V9.01411V9.04202V9.05597V9.08388V9.11179V9.13969V9.1676V9.18155V9.20946V9.27923V9.30714V9.32109V9.349V9.36295L12.9489 9.39086V9.40481V9.43272V9.46062V9.47458V9.50248V9.51644V9.54434L12.9349 9.57225L12.907 9.58621L12.8652 9.60016H10.3954H10.3535H10.3396H10.3117H10.2698L10.2279 9.58621L10.1721 9.57225L10.1582 9.54434L10.1303 9.51644H10.0884H10.0466L10.0186 9.50248L10.0047 9.47458V9.44667V9.41876V9.39086V9.3769V9.349V9.32109V9.29318V9.26528V9.23737V9.20946V9.18155V9.1676V9.13969V9.11179V9.08388V9.05597V9.04202V9.01411V8.98621V8.97225V8.94434V8.91644V8.90248V8.87458V8.84667V8.83272V8.80481V8.7769V8.749V8.72109V8.69318V8.66528V8.63737V8.60946V8.58155V8.5676V8.53969V8.51179V8.49783V8.46993V8.45597V8.42807V8.40016V8.37225V8.3583V8.33039V8.30248V8.27458V8.24667V8.23272V8.20481V8.1769V8.13504V8.10714V8.09318V8.06527V8.03737V8.02341V7.99551V7.9676V7.93969V7.91179V7.88388V7.85597V7.82807V7.80016V7.77225V7.7583V7.73039V7.70248V7.68853V7.66062V7.63272V7.59086V7.56295V7.549V7.52109V7.49318V7.46527V7.43737V7.42341V7.39551V7.3676V7.35365V7.32574V7.28388V7.25597V7.22807V7.21411V7.18621V7.1583V7.13039V7.10248V7.07458V7.04667V7.01876V7.00481V6.9769V6.949V6.92109V6.89318V6.87923V6.85132V6.82341V6.78155V6.75365V6.73969V6.71179V6.68388V6.66993V6.64202V6.62807V6.60016V6.58621V6.5583V6.53039V6.50248V6.47458V6.44667V6.41876V6.40481V6.3769V6.349V6.33504V6.30714V6.29318V6.26528V6.25132V6.22341V6.20946L9.99074 6.19551L9.97678 6.1676V6.13969V6.11179V6.08388V6.05597V6.02807V6.00016V5.98621V5.9583V5.91644V5.88853V5.86062V5.84667V5.81876L9.99074 5.79086L10.0047 5.7769H10.0186L10.0047 5.749V5.72109V5.69318L10.0326 5.66528L10.0466 5.63737L10.0745 5.62341L10.1163 5.60946V5.59551L10.1303 5.5676V5.53969L10.1442 5.52574L10.1721 5.51179L9.66981 5.52574H9.6419V5.53969V5.59551V5.63737V5.67923V5.70714V5.749L9.62795 5.79086L9.6419 5.81876L9.65585 5.84667L9.66981 5.86062L9.69771 5.88853L9.72562 5.91644V5.9583L9.73958 5.98621V6.00016V6.02807L9.72562 6.05597L9.71167 6.08388H9.69771V6.09783L9.68376 6.12574L9.66981 6.13969L9.6419 6.1676H9.61399L9.47446 6.19551L9.44655 6.20946H9.4326H9.39074H9.37678H9.20934L9.19539 6.22341H9.18144V6.25132V6.26528V6.29318V6.30714L9.16748 6.33504L9.13958 6.349V6.3769L9.12562 6.40481L9.11167 6.41876V6.44667V6.47458V6.50248L9.08376 6.51644V6.53039L9.06981 6.5583L9.05585 6.58621V6.60016V6.62807V6.64202V6.66993L9.0419 6.68388L9.02795 6.71179V6.73969V6.75365L9.01399 6.78155L9.00004 6.79551V6.82341L8.98609 6.85132L8.95818 6.87923V6.89318V6.92109V6.949V6.96295L8.94423 6.9769V7.00481V7.01876V7.04667L8.93027 7.06062V7.07458L8.90237 7.10248V7.13039V7.1583V7.18621L8.88841 7.21411V7.22807L8.86051 7.25597V7.28388V7.32574L8.8326 7.35365V7.3676V7.39551V7.42341V7.43737V7.46527V7.49318V7.52109V7.549V7.56295V7.59086L8.80469 7.60481V7.63272V7.66062L8.77678 7.68853V7.70248V7.73039V7.7583L8.76283 7.77225V7.80016L8.73492 7.81411H8.69306L8.67911 7.82807L8.66516 7.85597L8.63725 7.86993H8.6233L8.56748 7.85597L8.55353 7.84202L8.52562 7.85597L8.51167 7.86993H8.48376H7.95353L7.88376 7.85597V7.84202L7.81399 7.82807H7.78609H7.77213L7.73027 7.81411L7.67446 7.80016L7.64655 7.77225L7.60469 7.7583L7.57678 7.74434L7.54888 7.71644V7.68853H7.50702L7.49306 7.66062L7.47911 7.63272V7.59086V7.56295L7.4512 7.53504V7.52109V7.49318V7.47923V7.45132L7.46516 7.42341L7.47911 7.40946V7.38155V7.35365V7.32574L7.49306 7.31179L7.50702 7.28388L7.52097 7.26993L7.53492 7.24202V7.21411V7.18621L7.54888 7.1583V7.14434V7.11644L7.56283 7.08853L7.57678 7.07458V7.04667V7.03272L7.60469 7.01876V7.00481V6.9769V6.949L7.61865 6.93504L7.6326 6.90714V6.87923V6.86527L7.66051 6.85132L7.67446 6.82341V6.80946V6.78155V6.7676L7.68841 6.75365V6.72574V6.69783V6.68388L7.70237 6.66993L7.71632 6.64202L7.73027 6.61411V6.60016V6.57225V6.54434L7.75818 6.53039V6.50248L7.77213 6.47458L7.78609 6.46062V6.43272L7.80004 6.40481V6.39086V6.36295V6.33504L7.81399 6.30714V6.27923L7.82795 6.26528V6.23737V6.20946L7.85585 6.19551V6.1676V6.13969V6.12574L7.86981 6.09783L7.88376 6.06993V6.05597V6.02807V6.01411L7.89771 6.00016L7.91167 5.97225V5.9583L7.89771 5.94434L7.88376 5.93039V5.90248L7.86981 5.87458L7.85585 5.86062V5.83272L7.82795 5.80481L7.81399 5.79086L7.80004 5.7769V5.749L7.77213 5.72109L7.75818 5.70714L7.73027 5.67923L7.70237 5.66528H7.67446V5.65132L7.60469 5.63737L7.59074 5.60946L7.53492 5.59551L7.49306 5.58155L7.47911 5.55365L7.4512 5.53969V5.52574H7.39539L7.36748 5.49783L7.33958 5.46993L7.31167 5.45597L7.29771 5.44202L7.26981 5.41411L7.25585 5.40016V5.38621L7.22795 5.3583L7.21399 5.33039L7.20004 5.31644L7.18609 5.30248L7.17213 5.27458V5.24667V5.23272V5.20481L7.15818 5.1769L7.14423 5.16295V5.13504H7.13027L7.11632 5.12109V5.09318V5.06528V5.03737H7.08841H7.06051H7.0326H6.99074L6.94888 5.02341L6.93492 4.99551L6.89306 4.98155L6.86516 4.9676V4.93969V4.91179V4.88388H5.33027L5.28841 4.86993V4.85597H5.2326L5.21865 4.84202L5.19074 4.81411L5.17678 4.80016L5.16283 4.78621L5.13492 4.7583V4.74434V4.71644V4.70248V4.67458V4.64667V4.63272V4.60481V4.5769V4.56295V4.53504H4.47911L4.39539 4.52109L4.33958 4.50714L4.29772 4.549L4.22795 4.5769H4.17213H4.13027V4.60481L4.08841 4.68853L2.14888 6.19551L2.06516 6.20946H2.03725L1.99539 6.22341L1.93958 6.25132V6.32109L1.89772 6.40481L1.8419 6.44667L1.78609 6.46062L1.77213 6.47458H1.75818L1.73027 6.50248L1.71632 6.51644L1.70237 6.53039L1.66051 6.5583L1.64655 6.57225L1.6326 6.58621L1.60469 6.60016H1.57678L1.54888 6.62807H1.53492L1.50702 6.64202H1.38144L1.32562 6.62807L1.31167 6.61411L1.28376 6.60016H1.22795L1.17213 6.57225L1.15818 6.54434L1.11632 6.53039L1.10237 6.51644L1.07446 6.50248L1.04655 6.47458L1.0326 6.46062L1.01865 6.43272L1.00469 6.40481L0.990739 6.39086L0.962832 6.36295V6.33504V6.30714V6.27923L0.948878 6.26528V6.23737V6.20946L0.934925 6.19551L0.920971 6.1676V6.13969V6.12574L0.907018 6.09783V6.06993V6.05597V6.02807L0.879111 6.01411L0.865157 6.00016V5.97225V5.9583V5.93039V5.91644L0.83725 5.88853V5.86062V5.83272V5.80481V5.79086L0.823297 5.76295L0.809343 5.73504V5.72109V5.69318V5.67923L0.781436 5.65132V5.62341V5.59551V5.58155V5.55365V5.52574L0.767483 5.49783L0.753529 5.46993V5.45597V5.42807V5.40016L0.725622 5.37225V5.3583V5.33039L0.711669 5.31644L0.697715 5.28853V5.26062V5.24667V5.21876V5.19086V5.1769L0.683762 5.16295L0.669808 5.13504V5.10714V5.07923V5.05132V5.03737L0.655855 5.02341L0.641901 4.99551V4.98155V4.95365V4.92574V4.91179V4.88388L0.627948 4.85597V4.84202V4.81411L0.613994 4.78621L0.600041 4.77225L0.586087 4.74434V4.71644V4.68853V4.66062V4.63272V4.61876V4.59086V4.5769L0.572134 4.56295V4.53504V4.50714V4.47923V4.45132V4.43737L0.55818 4.40946L0.530273 4.38155V4.35365V4.32574V4.29783V4.26993V4.24202V4.22807V4.20016V4.17225V4.14435V4.11644V4.10248V4.07458V4.04667V4.03272V4.00481V3.9769V3.96295V3.93504V3.90714V3.89318L0.55818 3.86528L0.572134 3.85132V3.82341L0.586087 3.80946V3.78155L0.600041 3.75365H0.627948V3.72574L0.641901 3.69783H0.669808V3.66993L0.697715 3.64202L0.711669 3.62807H0.725622L0.767483 3.61411L0.823297 3.60016V3.58621H0.879111L0.893064 3.60016V3.58621L0.907018 3.57225H0.934925L0.948878 3.5583H0.990739H1.0326L1.07446 3.57225L1.10237 3.58621L1.17213 3.5583H3.96283L4.0326 3.57225L4.08841 3.54434L4.14423 3.51644L4.17213 3.50248L4.22795 3.48853H4.29772H5.95818V3.47458L5.97213 3.44667V3.41876L5.98609 3.39086V3.36295L6.01399 3.349H6.02795V3.32109V3.29318V3.27923L6.05585 3.25132V3.23737L6.11167 3.20946H6.13958L6.15353 3.18155L6.18144 3.15365H6.2233H6.32097H6.34888L6.36283 3.1676L6.39074 3.15365V3.13969V3.11179V3.08388H6.41865V3.05597V3.02807V3.01411L6.4326 2.98621L6.41865 2.9583V2.94434L6.39074 2.93039L6.37678 2.91644L6.36283 2.88853V2.87458V2.84667V2.81876V2.80481V2.7769V2.749L6.37678 2.72109L6.39074 2.69318V2.67923L6.41865 2.66528H6.44655H6.46051V2.65132L6.48841 2.63737L6.50237 2.62341L6.53027 2.60946H6.55818H6.58609L6.61399 2.59551L6.65585 2.58155L6.66981 2.55365V2.53969V2.51179L6.68376 2.48388L6.71167 2.46993L6.72562 2.44202L6.73958 2.41411L6.76748 2.40016H6.80934V2.38621H6.97678L7.01865 2.40016L7.04655 2.41411L7.06051 2.44202L7.08841 2.46993L7.10237 2.48388L7.11632 2.51179L7.13027 2.53969H7.17213H7.26981L7.32562 2.55365L7.35353 2.58155L7.38144 2.59551L7.39539 2.60946V2.63737V2.66528H7.40934L7.43725 2.69318L7.47911 2.70714L7.49306 2.72109H7.53492H7.99539H8.21865L8.24655 2.70714H8.28841V2.69318H8.31632L8.35818 2.72109V2.70714H8.38609V2.69318L8.42795 2.72109L8.4419 2.749H8.46981L8.48376 2.7769L8.49771 2.80481V2.83272L8.52562 2.81876H8.56748L8.60934 2.83272L8.6233 2.86062V2.88853V2.91644V2.94434V2.97225V3.00016L8.63725 3.01411L8.6512 3.02807V3.05597V3.08388L8.66516 3.09783V3.11179L8.67911 3.12574V3.15365V3.1676V3.19551V3.20946H8.72097L9.76748 3.19551V3.18155L9.78144 3.1676L9.79539 3.15365H9.83725L9.89306 3.13969V3.11179L9.92097 3.08388H9.93492L9.96283 3.05597L9.97678 3.02807L10.0047 3.00016L10.0186 2.98621H10.0466V2.97225H10.1163L10.1582 3.00016L10.1861 3.02807V3.05597L10.2559 3.01411L10.3256 2.98621H10.4093V2.97225L10.507 2.98621L10.5349 3.01411L10.5489 2.97225L10.6326 2.94434H11.3163L11.3861 2.97225L11.414 3.02807L11.5396 3.01411H11.5954L11.6372 3.00016H12.5163L12.5582 3.01411H12.6L12.6419 3.04202L12.6838 3.06993L12.6977 3.08388L12.7117 3.06993L12.7396 3.04202L12.7535 3.01411H12.7675H12.8093V3.00016L12.8512 3.01411L12.8791 3.02807L12.8931 3.05597V3.08388V3.09783H12.907L12.9489 3.08388H13.0047L13.0326 3.09783V3.11179L13.5768 3.09783V3.08388L13.6047 3.05597L13.6326 3.02807L13.6466 3.01411L13.7024 3.00016L13.8977 2.98621L13.9117 2.9583L13.9396 2.94434L13.9675 2.93039L13.9814 2.91644L14.0372 2.88853H14.121H14.1349L14.1489 2.87458L14.1768 2.84667L14.2186 2.83272L14.2745 2.81876H14.3024H14.3163L14.3303 2.80481H14.3442L14.3721 2.79086L14.4 2.7769H14.414H14.4419V2.749V2.72109V2.69318L14.414 2.67923L14.4 2.66528V2.65132L13.3117 2.27458L13.2559 2.21876L13.2419 2.16295H13.2279L13.2 2.149L13.1721 2.13504H13.1442H13.1024L13.0186 2.10714H12.9768H12.9628L12.9349 2.09318H12.8931L12.8372 2.07923L12.8093 2.06528L12.7814 2.03737L12.7535 2.00946L12.7256 1.99551L12.6838 1.98155L12.6419 1.9676L12.6279 1.93969L12.6 1.92574L12.5861 1.89783L12.5721 1.88388H12.5582V1.86993L12.5442 1.85597L12.5163 1.84202L12.4884 1.81411L12.4745 1.78621V1.7583L12.4605 1.73039L12.4466 1.71644V1.68853V1.66062V1.64667L12.4605 1.63272L12.4745 1.60481V1.59086V1.56295V1.549L12.4884 1.53504L12.5163 1.50714H12.5442V1.49318L12.6 1.42341L12.6838 1.39551L12.7675 1.42341L12.8512 1.47923L12.8652 1.56295H12.8931H12.921L12.9628 1.5769L12.9907 1.59086H13.0326L13.0466 1.60481H13.0745L13.1163 1.61876L13.1303 1.63272L13.1582 1.59086C13.1768 1.57225 13.2047 1.56295 13.2419 1.56295L13.2977 1.5769L14.7489 1.9676C14.7768 1.9676 14.8 1.98155 14.8186 2.00946L14.8326 2.03737L14.8605 2.05132L14.9024 2.06528L14.9442 2.07923V2.10714L14.9721 2.12109L15 2.13504L15.014 2.16295L15.0419 2.149V2.13504H15.0559L15.1117 2.12109V2.10714L15.1535 2.13504H15.1675L15.1954 2.16295V2.19086V2.20481V2.23272V2.26062V2.27458V2.30248V2.31644V2.34434V2.3583V2.38621V2.41411V2.44202V2.46993V2.49783V2.52574V2.53969V2.5676V2.59551V2.60946V2.63737V2.67923V2.70714V2.73504V2.749V2.7769V2.80481V2.83272V2.86062V2.88853V2.90248V2.93039V2.97225V3.00016V3.01411V3.04202V3.06993V3.08388V3.11179V3.13969V3.15365L15.1675 3.1676L15.1535 3.19551L15.1117 3.20946H15.0838H15.0698L15.0559 3.22341L15.0419 3.23737L15.0279 3.25132H15H14.5535L14.5396 3.26528V3.27923L14.5256 3.29318L14.5117 3.30714H14.4698L14.4 3.33504V3.36295V3.39086V3.41876V3.44667H16.4652V3.43272V3.40481V3.3769V3.33504L16.4791 3.30714L16.4931 3.27923L16.521 3.26528L16.5628 3.25132L16.6047 3.23737L16.6186 3.20946H16.6466L16.6605 3.19551V3.18155V3.15365V3.13969V3.11179V3.08388V3.05597V3.02807V3.01411V2.98621V2.9583L16.6466 2.94434L16.6186 2.93039V2.91644V2.88853L16.6326 2.87458L16.6466 2.84667L16.6745 2.81876L16.6884 2.80481L16.7163 2.79086L16.7582 2.7769V2.749L16.7861 2.73504L16.8 2.70714L16.814 2.67923L16.8279 2.66528V2.65132H16.8559V2.62341L16.8698 2.60946H16.8838L16.9117 2.59551L17.0931 2.58155L17.107 2.5676H17.1349V2.55365H17.1907L17.2326 2.58155L17.2466 2.59551L17.2605 2.58155L17.3024 2.5676V2.55365L17.3582 2.58155L17.3721 2.59551L17.3861 2.60946V2.63737V2.66528V2.69318V2.72109V2.749V2.7769V2.80481V2.81876H17.4L17.414 2.83272H17.4279L17.4838 2.86062L17.4977 2.87458L17.5117 2.88853V2.91644L17.5396 2.93039L17.5535 2.94434V2.9583V2.98621V3.01411V3.02807V3.05597V3.08388V3.11179V3.13969V3.15365V3.18155V3.20946V3.23737V3.25132V3.27923V3.33504L17.5814 3.349L17.6093 3.36295L17.6512 3.39086L17.6652 3.41876L17.6931 3.43272V3.44667V3.47458V3.48853H24.2791H24.3768ZM17.8605 5.86062V5.83272L17.8466 5.86062H17.8605ZM17.3721 3.04202V3.06993V3.08388L17.3861 3.11179V3.08388V3.05597V3.02807V3.01411H17.3721V3.04202ZM16.7861 3.33504L16.7721 3.349H16.7861V3.33504ZM16.7024 3.40481L16.7303 3.39086L16.7582 3.36295L16.7024 3.39086V3.40481ZM14.6093 2.69318V2.72109L14.6233 2.73504V2.72109V2.69318V2.66528H14.6093V2.69318ZM13.8419 3.19551L13.8559 3.18155L13.7582 3.19551H13.8419ZM17.2884 5.84667H17.3024L17.2884 5.83272V5.84667ZM7.07446 4.84202V4.81411H7.06051V4.84202H7.07446ZM7.96748 5.67923L7.99539 5.69318V5.67923H7.96748ZM9.51632 5.97225V5.9583L9.48841 6.00016H9.53027L9.51632 5.97225ZM3.73958 4.28388L3.78144 4.25597L3.8233 4.24202H1.49306V4.26993L1.50702 4.31179V4.35365L1.52097 4.39551V4.43737L1.53492 4.47923L1.56283 4.52109L1.57678 4.5769V4.59086V4.63272V4.68853L1.61865 4.73039L1.6326 4.77225V4.78621H1.70237L1.75818 4.85597L1.96748 5.46993L2.33027 5.20481L2.41399 5.1769L2.46981 5.21876L2.49772 5.19086L2.52562 5.16295L2.53958 5.13504L2.55353 5.12109L2.58144 5.10714L2.59539 5.07923L2.66516 5.05132L2.67911 5.03737L2.70702 5.02341L2.73492 4.99551L2.76283 4.98155L2.80469 4.9676L2.8326 4.93969L2.86051 4.91179L2.88841 4.88388L2.93027 4.85597H2.95818L3.00004 4.84202L3.01399 4.81411L3.0419 4.80016L3.06981 4.78621L3.08376 4.7583L3.12562 4.73039L3.13958 4.71644L3.18144 4.68853L3.20934 4.66062L3.2512 4.63272H3.26516L3.27911 4.60481L3.30702 4.5769H3.33492L3.37678 4.549L3.39074 4.52109L3.41865 4.50714L3.4326 4.47923L3.47446 4.46528L3.50237 4.43737L3.53027 4.42341L3.55818 4.39551L3.60004 4.3676L3.62795 4.35365L3.66981 4.32574L3.71167 4.31179H3.72562L3.73958 4.28388Z" fill="white"/>
</svg>
